<mxfile host="app.diagrams.net" modified="2022-06-03T00:14:52.175Z" agent="5.0 (Macintosh; Intel Mac OS X 10_15_7) AppleWebKit/537.36 (KHTML, like Gecko) Chrome/102.0.5005.61 Safari/537.36" etag="VUhVSItmjRfUJ9UHDuHn" version="18.2.1" type="github">
  <diagram id="6I7zft8cawXg8nqun7yF" name="Page-1">
    <mxGraphModel dx="1407" dy="1981" grid="0" gridSize="10" guides="1" tooltips="1" connect="1" arrows="1" fold="1" page="0" pageScale="1" pageWidth="827" pageHeight="1169" background="#283618" math="0" shadow="0">
      <root>
        <mxCell id="0" />
        <mxCell id="1" parent="0" />
        <mxCell id="C-j3dDMoZOkLHx2g_xAV-1" value="PhotoCell" style="rounded=1;whiteSpace=wrap;html=1;fillColor=#BC6C25;strokeColor=#DDA15E;fontColor=#FEFAE0;" vertex="1" parent="1">
          <mxGeometry x="-218" y="98" width="251" height="123" as="geometry" />
        </mxCell>
        <mxCell id="C-j3dDMoZOkLHx2g_xAV-6" style="edgeStyle=orthogonalEdgeStyle;curved=0;rounded=1;sketch=0;orthogonalLoop=1;jettySize=auto;html=1;exitX=1;exitY=0.5;exitDx=0;exitDy=0;entryX=0;entryY=0.5;entryDx=0;entryDy=0;fontColor=#FEFAE0;strokeColor=#DDA15E;fillColor=#BC6C25;jumpSize=6;strokeWidth=5;" edge="1" parent="1" source="C-j3dDMoZOkLHx2g_xAV-3" target="C-j3dDMoZOkLHx2g_xAV-4">
          <mxGeometry relative="1" as="geometry" />
        </mxCell>
        <mxCell id="C-j3dDMoZOkLHx2g_xAV-19" style="edgeStyle=orthogonalEdgeStyle;curved=0;rounded=1;sketch=0;jumpSize=6;orthogonalLoop=1;jettySize=auto;html=1;entryX=0.5;entryY=0;entryDx=0;entryDy=0;fontColor=#FEFAE0;strokeColor=#82b366;strokeWidth=5;fillColor=#d5e8d4;" edge="1" parent="1" source="C-j3dDMoZOkLHx2g_xAV-3" target="C-j3dDMoZOkLHx2g_xAV-1">
          <mxGeometry relative="1" as="geometry" />
        </mxCell>
        <mxCell id="C-j3dDMoZOkLHx2g_xAV-3" value="ViewController" style="rounded=1;whiteSpace=wrap;html=1;fillColor=#BC6C25;strokeColor=#DDA15E;fontColor=#FEFAE0;" vertex="1" parent="1">
          <mxGeometry x="-218" y="-180" width="251" height="123" as="geometry" />
        </mxCell>
        <mxCell id="C-j3dDMoZOkLHx2g_xAV-4" value="Interactor" style="rounded=1;whiteSpace=wrap;html=1;fillColor=#BC6C25;strokeColor=#DDA15E;fontColor=#FEFAE0;" vertex="1" parent="1">
          <mxGeometry x="136" y="-180" width="251" height="123" as="geometry" />
        </mxCell>
        <mxCell id="C-j3dDMoZOkLHx2g_xAV-10" style="edgeStyle=orthogonalEdgeStyle;curved=0;rounded=1;sketch=0;jumpSize=6;orthogonalLoop=1;jettySize=auto;html=1;fontColor=#FEFAE0;strokeColor=#DDA15E;strokeWidth=5;fillColor=#BC6C25;entryX=0.5;entryY=0;entryDx=0;entryDy=0;" edge="1" parent="1" source="C-j3dDMoZOkLHx2g_xAV-5" target="C-j3dDMoZOkLHx2g_xAV-3">
          <mxGeometry relative="1" as="geometry">
            <mxPoint x="-123" y="-319" as="targetPoint" />
            <Array as="points">
              <mxPoint x="902" y="-118" />
              <mxPoint x="902" y="-333" />
              <mxPoint x="-92" y="-333" />
            </Array>
          </mxGeometry>
        </mxCell>
        <mxCell id="C-j3dDMoZOkLHx2g_xAV-5" value="Presenter" style="rounded=1;whiteSpace=wrap;html=1;fillColor=#BC6C25;strokeColor=#DDA15E;fontColor=#FEFAE0;" vertex="1" parent="1">
          <mxGeometry x="519" y="-180" width="251" height="123" as="geometry" />
        </mxCell>
        <mxCell id="C-j3dDMoZOkLHx2g_xAV-7" style="edgeStyle=orthogonalEdgeStyle;curved=0;rounded=1;sketch=0;orthogonalLoop=1;jettySize=auto;html=1;fontColor=#FEFAE0;strokeColor=#DDA15E;fillColor=#BC6C25;jumpSize=6;strokeWidth=5;entryX=-0.002;entryY=0.466;entryDx=0;entryDy=0;entryPerimeter=0;" edge="1" parent="1" target="C-j3dDMoZOkLHx2g_xAV-5">
          <mxGeometry relative="1" as="geometry">
            <mxPoint x="388" y="-121" as="sourcePoint" />
            <mxPoint x="491" y="-110" as="targetPoint" />
            <Array as="points">
              <mxPoint x="387" y="-123" />
            </Array>
          </mxGeometry>
        </mxCell>
        <mxCell id="C-j3dDMoZOkLHx2g_xAV-12" value="PhotoSectionItem" style="rounded=1;whiteSpace=wrap;html=1;fillColor=#dae8fc;strokeColor=#6c8ebf;" vertex="1" parent="1">
          <mxGeometry x="376" y="-381" width="129" height="39" as="geometry" />
        </mxCell>
        <mxCell id="C-j3dDMoZOkLHx2g_xAV-13" value="PhotoSectionItem" style="rounded=1;whiteSpace=wrap;html=1;fillColor=#dae8fc;strokeColor=#6c8ebf;" vertex="1" parent="1">
          <mxGeometry x="370" y="-420" width="129" height="39" as="geometry" />
        </mxCell>
        <mxCell id="C-j3dDMoZOkLHx2g_xAV-14" value="PhotoSectionItem" style="rounded=1;whiteSpace=wrap;html=1;fillColor=#dae8fc;strokeColor=#6c8ebf;" vertex="1" parent="1">
          <mxGeometry x="358" y="-459" width="129" height="39" as="geometry" />
        </mxCell>
        <mxCell id="C-j3dDMoZOkLHx2g_xAV-16" value="" style="shape=image;verticalLabelPosition=bottom;labelBackgroundColor=default;verticalAlign=top;aspect=fixed;imageAspect=0;image=https://ichef.bbci.co.uk/news/976/cpsprodpb/17638/production/_124800859_gettyimages-817514614.jpg;" vertex="1" parent="1">
          <mxGeometry x="161" y="-804" width="520" height="293" as="geometry" />
        </mxCell>
        <mxCell id="C-j3dDMoZOkLHx2g_xAV-21" value="PhotoSectionItem" style="rounded=1;whiteSpace=wrap;html=1;fillColor=#dae8fc;strokeColor=#6c8ebf;" vertex="1" parent="1">
          <mxGeometry x="-96" y="-96" width="129" height="39" as="geometry" />
        </mxCell>
        <mxCell id="C-j3dDMoZOkLHx2g_xAV-27" value="PhotoCell" style="rounded=1;whiteSpace=wrap;html=1;fillColor=#dae8fc;strokeColor=#6c8ebf;" vertex="1" parent="1">
          <mxGeometry x="475" y="13" width="130.6" height="64" as="geometry" />
        </mxCell>
        <mxCell id="C-j3dDMoZOkLHx2g_xAV-30" value="&lt;font color=&quot;#007fff&quot;&gt;Collection&lt;/font&gt;::cellForItem" style="text;html=1;align=center;verticalAlign=middle;resizable=0;points=[];autosize=1;strokeColor=none;fillColor=none;fontColor=#FEFAE0;fontStyle=1;fontFamily=Verdana;" vertex="1" parent="1">
          <mxGeometry x="458.3" y="84" width="164" height="18" as="geometry" />
        </mxCell>
        <mxCell id="C-j3dDMoZOkLHx2g_xAV-32" style="edgeStyle=orthogonalEdgeStyle;curved=0;rounded=1;sketch=0;jumpSize=6;orthogonalLoop=1;jettySize=auto;html=1;fontFamily=Verdana;fontColor=#007FFF;strokeColor=#DDA15E;strokeWidth=5;fillColor=#BC6C25;exitX=1.016;exitY=0.422;exitDx=0;exitDy=0;exitPerimeter=0;entryX=-0.007;entryY=0.564;entryDx=0;entryDy=0;entryPerimeter=0;" edge="1" parent="1" source="C-j3dDMoZOkLHx2g_xAV-30" target="C-j3dDMoZOkLHx2g_xAV-33">
          <mxGeometry relative="1" as="geometry">
            <mxPoint x="728.4074074074074" y="115" as="targetPoint" />
          </mxGeometry>
        </mxCell>
        <mxCell id="C-j3dDMoZOkLHx2g_xAV-31" value="&lt;span style=&quot;color: rgb(0, 127, 255); font-weight: 700;&quot;&gt;Collection&lt;/span&gt;&lt;span style=&quot;font-weight: 700;&quot;&gt;::willDisplay&lt;/span&gt;" style="text;html=1;align=center;verticalAlign=middle;resizable=0;points=[];autosize=1;strokeColor=none;fillColor=none;fontColor=#FEFAE0;fontFamily=Verdana;" vertex="1" parent="1">
          <mxGeometry x="458.3" y="106" width="160" height="18" as="geometry" />
        </mxCell>
        <mxCell id="C-j3dDMoZOkLHx2g_xAV-33" value="&lt;font color=&quot;#ffffff&quot;&gt;⏰ Start loading image&lt;/font&gt;" style="text;html=1;align=center;verticalAlign=middle;resizable=0;points=[];autosize=1;fontStyle=1;fontFamily=Verdana;" vertex="1" parent="1">
          <mxGeometry x="750" y="80" width="162" height="18" as="geometry" />
        </mxCell>
        <mxCell id="C-j3dDMoZOkLHx2g_xAV-34" value="&lt;span style=&quot;color: rgb(0, 127, 255); font-weight: 700;&quot;&gt;Collection&lt;/span&gt;&lt;span style=&quot;font-weight: 700;&quot;&gt;::didEndDisplaying&lt;/span&gt;" style="text;html=1;align=center;verticalAlign=middle;resizable=0;points=[];autosize=1;strokeColor=none;fillColor=none;fontColor=#FEFAE0;fontFamily=Verdana;" vertex="1" parent="1">
          <mxGeometry x="458.3" y="128" width="203" height="18" as="geometry" />
        </mxCell>
        <mxCell id="C-j3dDMoZOkLHx2g_xAV-35" value="&lt;font color=&quot;#007fff&quot;&gt;Cell&lt;/font&gt;::prepareForReuse" style="text;html=1;align=center;verticalAlign=middle;resizable=0;points=[];autosize=1;strokeColor=none;fillColor=none;fontColor=#FEFAE0;fontStyle=1;fontFamily=Verdana;" vertex="1" parent="1">
          <mxGeometry x="460.3" y="150.5" width="160" height="18" as="geometry" />
        </mxCell>
        <mxCell id="C-j3dDMoZOkLHx2g_xAV-38" value="&lt;font color=&quot;#ffffff&quot;&gt;&lt;i&gt;(Still loading image)&lt;/i&gt;&lt;/font&gt;" style="text;html=1;align=center;verticalAlign=middle;resizable=0;points=[];autosize=1;fontStyle=1;fontFamily=Verdana;" vertex="1" parent="1">
          <mxGeometry x="657" y="128" width="149" height="18" as="geometry" />
        </mxCell>
        <mxCell id="C-j3dDMoZOkLHx2g_xAV-39" value="&lt;font color=&quot;#ffffff&quot;&gt;&lt;i&gt;(Cancel loading image or omit because not visible)&lt;/i&gt;&lt;/font&gt;" style="text;html=1;align=center;verticalAlign=middle;resizable=0;points=[];autosize=1;fontStyle=1;fontFamily=Verdana;" vertex="1" parent="1">
          <mxGeometry x="618.3" y="150.5" width="353" height="18" as="geometry" />
        </mxCell>
        <mxCell id="C-j3dDMoZOkLHx2g_xAV-40" value="&lt;span style=&quot;color: rgb(0, 127, 255); font-weight: 700;&quot;&gt;Collection&lt;/span&gt;&lt;span style=&quot;font-weight: 700;&quot;&gt;::willDisplay&lt;/span&gt;" style="text;html=1;align=center;verticalAlign=middle;resizable=0;points=[];autosize=1;strokeColor=none;fillColor=none;fontColor=#FEFAE0;fontFamily=Verdana;" vertex="1" parent="1">
          <mxGeometry x="462.3" y="198" width="160" height="18" as="geometry" />
        </mxCell>
        <mxCell id="C-j3dDMoZOkLHx2g_xAV-41" value="&lt;font color=&quot;#007fff&quot;&gt;Collection&lt;/font&gt;::cellForItem" style="text;html=1;align=center;verticalAlign=middle;resizable=0;points=[];autosize=1;strokeColor=none;fillColor=none;fontColor=#FEFAE0;fontStyle=1;fontFamily=Verdana;" vertex="1" parent="1">
          <mxGeometry x="462.3" y="174" width="164" height="18" as="geometry" />
        </mxCell>
        <mxCell id="C-j3dDMoZOkLHx2g_xAV-42" value="..." style="text;html=1;align=center;verticalAlign=middle;resizable=0;points=[];autosize=1;strokeColor=none;fillColor=none;fontFamily=Tahoma;fontColor=#FFFFFF;" vertex="1" parent="1">
          <mxGeometry x="525" y="221" width="21" height="18" as="geometry" />
        </mxCell>
        <mxCell id="C-j3dDMoZOkLHx2g_xAV-43" value="..." style="text;html=1;align=center;verticalAlign=middle;resizable=0;points=[];autosize=1;strokeColor=none;fillColor=none;fontFamily=Tahoma;fontColor=#FFFFFF;" vertex="1" parent="1">
          <mxGeometry x="525" y="239" width="21" height="18" as="geometry" />
        </mxCell>
        <mxCell id="C-j3dDMoZOkLHx2g_xAV-44" value="" style="shape=image;verticalLabelPosition=bottom;labelBackgroundColor=default;verticalAlign=top;aspect=fixed;imageAspect=0;image=data:image/png,iVBORw0KGgoAAAANSUhEUgAAAxsAAAHVCAYAAACZo+YkAAABSWlDQ1BJQ0MgUHJvZmlsZQAAKJFjYGASSSwoyGFhYGDIzSspCnJ3UoiIjFJgf8bAxsDMwMggziCXmFxc4BgQ4ANUwgCjUcG3a0CVQHBZF2TWW5mPt7YduMu61upQz4qiSTKY6lEAV0pqcTKQ/gPEGckFRSUMDIwpQLZyeUkBiN0BZIsUAR0FZM8BsdMh7A0gdhKEfQSsJiTIGci+AWQLJGckAs1gfAFk6yQhiacjsaH2ggCfi6uPj0KwsYmRkUu4OwEHkwpKUitKQLRzfkFlUWZ6RomCIzCUUhU885L1dBSMDIyMGBhAYQ5R/fkGOCwZxTgQYm2LGBhsBRkYWFYgxHyCGBg26gK9EYQQU37EwCB4iIFhn1FBYlEi3AGM31iK04yNIGzu7QwMrNP+//8czsDArsnA8Pf6//+/t////3cZAwPzLQaGA98AkbNg/HhAebYAAABWZVhJZk1NACoAAAAIAAGHaQAEAAAAAQAAABoAAAAAAAOShgAHAAAAEgAAAESgAgAEAAAAAQAAAxugAwAEAAAAAQAAAdUAAAAAQVNDSUkAAABTY3JlZW5zaG90BiuxMwAAAdZpVFh0WE1MOmNvbS5hZG9iZS54bXAAAAAAADx4OnhtcG1ldGEgeG1sbnM6eD0iYWRvYmU6bnM6bWV0YS8iIHg6eG1wdGs9IlhNUCBDb3JlIDYuMC4wIj4KICAgPHJkZjpSREYgeG1sbnM6cmRmPSJodHRwOi8vd3d3LnczLm9yZy8xOTk5LzAyLzIyLXJkZi1zeW50YXgtbnMjIj4KICAgICAgPHJkZjpEZXNjcmlwdGlvbiByZGY6YWJvdXQ9IiIKICAgICAgICAgICAgeG1sbnM6ZXhpZj0iaHR0cDovL25zLmFkb2JlLmNvbS9leGlmLzEuMC8iPgogICAgICAgICA8ZXhpZjpQaXhlbFlEaW1lbnNpb24+NDY5PC9leGlmOlBpeGVsWURpbWVuc2lvbj4KICAgICAgICAgPGV4aWY6UGl4ZWxYRGltZW5zaW9uPjc5NTwvZXhpZjpQaXhlbFhEaW1lbnNpb24+CiAgICAgICAgIDxleGlmOlVzZXJDb21tZW50PlNjcmVlbnNob3Q8L2V4aWY6VXNlckNvbW1lbnQ+CiAgICAgIDwvcmRmOkRlc2NyaXB0aW9uPgogICA8L3JkZjpSREY+CjwveDp4bXBtZXRhPgoirP7xAABAAElEQVR4AexdBbwVRRc/dId0NwgqSDdIIynSJdJISggSoqIiISkKSEh9IK10I6WkiKSS0iUtXd/85zrzZvfe997d+959xTnvd99O7czsf3dnT81MtJw5X3lOTBKB1KlT0d27dx2jETt2bLpy5YI+L1qMWDqsAmXKlKEbN26oqDz26dOH9u/fT6tXr9bpkyZNotQpk9OVf65Tu3btdPqbb75J+fLlo+HDh+s0BNB2qVKlaPPmzfTs2TNLHtr87bffZFqhQoVo69atbuWRHjNmTDpz5owsh/quX79Od+7coTfeeIN27dpF9+/ft9TLEUYgKAReeukl+ax5KpMqVSrxrlzxlGVJ69GjB40ePZpwVIR4YKTKB5ZvpseLF49at2pF6zdsoL/++ktm1axZU75DcePGpddff53Wr18v01977TUqKd6v6dOm0aNHj8xqgg1Hj/USpS65iihWYopGAcPs8+eP6OKGApbz46evT4mzv0+Xf32Tnj9xPgb16NmdJn03Ocjxq3nz5rRt2zb6+++/LW17EylZvATt2fubBYMkSZJQ1qxZad++fZYqMmbMSDFjxaJTJ09a0p1GcE8xHnoak3PkyEGFCxehuXN/cFqtLt+5c2f64Ycf6OHDh9S+fXsaN24cPXnyROcjkCxZMmrSpAl9++23Mj1Pnjz06quv0sKFCylBggRUq1YtSp06tcRl586dtHfvXlmua9euNHPmTLp16xYlT56cGjVqROPHj6do0aIRxnL0P3r06HTq1ClauXKlW7uoBM9ix44d5XnoY2BpMsMP/xInTkxFihSR9zi+uNZ74tuIZ2f37t2UO3duKlmyJOGaf/31V8etAx98d0zCvbh06ZJsE+0i/+nTp/IbtmPHDlkU6YHlmXUhXKFCBflN3LRpk8zC89qwYUOKESMGrVu3jk6cOCHTvfnnTyy8aZ/LhAyBtm3bUqJEiWQlz58/l+/ln3/+KZ9l+zvvpCX13VFHb891Wt5eL8YFjA92evDgAU2YMMGe7DiOb3iDBg1o+vTpljFfVQQ+sWXLlrRgwQI3vlaVsR+tb7s9l+N+RWDFihXUs2dPyeQohh4fPTuBOcKNHzVqlD3LcRwCCV42fCghUIDxS5MmDf3zzz9yYM6WLZscjB1XzCcwAqGIwFPxnIIpOHfuHKVPn57Onz8faO0oh/LeEt611WvWULVqgrEX78LRo0fpyJEj8n3AO3HypIsJAVNZvnx5WrJkiccBN7j2nj2+QTcOD6Bkr48VwkY0grzxPLo4Po1uOTV+urcpSa6+dP2Pbj4JGqjs8aOnlDJlSku9ZgSMWzzxcfL1w/royWPCB8hUmKBOMM/48ChCHIwZmOyQUrT/5LM4ceJQihQpRHXPxf0iyZAiK5oq4GNDSoDA6YEJslC8mOXwnOAHghA0d+5cyRTbcYXgoujatWtSYEAcz9uqVaukoAFhw36eOgdHMA72fnlKM88JzfDt27dpgxDIPRGEDBAEDpBTgcPER1Zg/IMwgx++e+q7qLKDylNl1HHjxo0qKI94JqdMmSKxhxDjhPyJhZN+cFnfEIBCt0aNGgSeC9+UyE6hIVAEhQHGKXxXoZAJjPBuopy3xMKGt0j5odyhQ4doz5491K9fPxoyZIjbwIomMeAiH+VQPqSEjxsEDFg0Dhw4IF88SPwlSpSQgzA+jBhYQU4epJD2i89nBEwELgjhomjRorR48WKp3TTzzDAGRJQ77/ADAq3mqlWrqWqVqpQ3b17688ifQkOdRjCw4p2Ln0BqQJMnT0ZLly7VVj+zXW/DD65uEELE+5T01cEUPabQrGFsFrJGrMR5KVbCXBQ/7VsUM2F2ur7/fXp43bmGWPXjN2F1gJY9RgwxpIv6o0H2csk3sshzIYxBYLt48aI6xdERGu3MmbMQlBHyGkTdwArfGowlkvkXNT5/9pzu3P2XLl++7Kh+T4UfPn4oBU0IgJkyZZJtofF79+5RWqEgefTosafTwjwtKIEhsM5A6WO3RAdWNqKmmwIHvhXbt28P1a7aBQ2z8qDyzHL2MPrpVNCw1+Ep7m8sPLXJaYEj0EpYrqcJa7QiCBgQNCBwQHkEC5onsp/nqYynNFgeYa3wlpSl0tvyQZVr3bo1ff/990EVcZx38+bNULGQmA1HYzeqADj86UZVunRpwg20E5glWDMKFy4sTVIQKlAuadKkMg0WDaTBnSA0B0loIE1hAnH8IvsH0I4vx8MeATy7cNfxRN66UUE7XrlyZUqfIQPFEBrgwAgWDQgacItQQnJgZT2lQ5jPnz8/Zc+eneBmAbp54yYdP3FcugeF1kcBLlUJMjWjeCkqUPR4GaVW/snd0/Tg6nq6e3YOPXtyx1P3Xug0uI2WEuMmLBsuNzRpH5KCDe71GmGdigpaysh+k4sVK0ZwN5w6dWpkv5QQ95+xCDGEoVJBYG5K8OKAcgCeHJ4osPM8lUWa0/KB1ROS9IjQB2/6z8KGgZI/hQ1oX8G4BCYwwGUDUjeOiRMnFIzTv9KSAWk8NCwaxmVykBHwGwIQnsEcYq6PJ/JW2PB0LqcxAowAI8AIMALBIdCpUyf5HYLrnDda/9Zt2lASoeByOufBH1aF4K5N5as+qziU1KY1R6VHlCMLG8ad8KewAc0p/I49TXY0usBBRiBSI4C5QNAaBTb5koWNSH17ufOMACPACDACjIBjBAL3T3BcFZ8QFALwlcaESmh+mRiBqIgAnm2skOHrvICoiAlfEyPACDACjAAj8KIjwMJGGD0BmNQIbS9WdGGBI4xA52bCDAE803i2jx8/LifwhlnD3BAjwAgwAowAI8AIRGgEeDWqMLw9WKEFTBnWWIdvIH6BzeEIw25xU4yAzwgoawasdli3PDRWIfK5M3wiI8AIMAKMACPACEQ4BFjYCMNbgtWfsPwk1qpPmzat3OwJa9RjFSgmRiCyIYDnGRvdYbnkCxcusEUjst1A7i8jwAgwAowAIxAGCLCwEQYg25tQLlWBTaK1l+c4I8AIMAKMACPACDACjAAjEBkR4DkbkfGucZ8ZAUaAEWAEGAFGgBFgBBiBSIAA/Hew+SsTI8AIMAKMACPACDACjAAjwAgwAqGKQMzsOfOEaoWBVxYKMk0oVBF4/4LLCd3Gg68t+BLB9ZjzGQFGgBFgBBgBRoARYAQYgfBEgN2owhN9bpsRYAQYAUaAEWAEGAFGgBGIwgiwsBGFby5fGiPACDACjAAjwAgwAowAIxCeCLCwEZ7oc9uMACPACDACjAAjwAgwAoxAFEaAhY0ofHP50hgBRoARYAQYAUaAEWAEGIHwRICFjfBEn9tmBBgBRoARYAQYAUaAEWAEojACLGxE4ZvLl8YIMAKMACPACDACjAAjwAiEJwIsbIQn+tw2I8AIMAKMACPACDACjAAjEIUQSJUypeVqWNiwwMERRoARYAQYAUaAEWAEGAFGgBEILQRY2AgtJLkeRoARYAQYAUaAEWAEGIEIi0D06NEpYcKEFCNGDEsfY8eOTTVqVKfMmTNb0kMzgjYzZcpEyZMnp2jRolmqRr8yZEhPSZIktqQHF0G/0eeXXnopuKIyH+0UL16M0qVL51V5FIofPz7FjRvX6/KeCsb0lMhpjAAjwAgwAowAI8AIMAKMQFRCIFWqVNSq5bu0ZOkyOnz4sL60BAkSUN7XXqN///2XTp8+rdNDK5AvX16qXKkSQTgAnTp1ihYsXERPnz6VjH+D+vUkU4+848eP0+Iff5J5iHsiCC41hXCUJ09uIbi47AaXL1+mhYsW0+3btz2dItMgbJQvV462bNlKFy5cCLQcMmLGjEkVKpSnQgULirIXacbMmUGWDyqTLRtBocN5jAAjwAgwAowAI8AIMAJRAgFlUVBHdVE3btygUaPHSCZcpeEIph5Mt51wvhIc7Hn2eJw4caSgce/ePZo7bx79tncvZc2alXLlzCmLVihfjuLFi0tLliylgwcPUY4cOejll1+2V2OJQwB45ZVXpBCwYMFC2r5jB6VOnVoIIDUs5dBHCBi+UP16daWg4cu59nPcEbSX4DgjwAgwAowAI8AIMAKMACMQRRGAQPBeh/a0efMW+vOvv6hD+3Z04+ZNSiFcnsCw79q1mzb+/LO8+iKFC1OJEsWFJSIe/X36DC1btpzu3r1LhQsXomfPntHevb9bUEqbNo2sY+26dXTz5i3avXsPXbl8ha5cvSqFGbhP/fnnX3T4yBFR32khROShTBkzWiwvlgpFBALJo0ePpAUE1pjjJ05QGiFspE+fXtYJS02N6nALy0gPHz6i3/fto02bNturCbTPKBhbYLJs+XIqKASbaOIvJMTCRkjQ43MZAUaAEWAEGAFGgBFgBCI1AtD+Y24ChA4Vfv78OW3eskW6VxUpUlhaDyA4VKpUUVogzp49K92M4M40b/4CKlWyJD0RblF2YQNzNEBwX4IQADp58iQdEm5cSZMmlW5QcFMCwfpxUwg5yZMnk/HA/qVJk4rOnTsn3b5Umbnz5qsgvV2nDqVMmYLWrd9AadKkoRLFi9MtIegcOHhQl0EgsD4jb/bsOdKVC8JGSImFjZAiyOczAowAI8AIMAKMACPACEQpBCA0/PbbXrp/7z699VZtaeXIJtyfQDFiRKeMwvoA4SRbtmxSQJk0eYrH648bxzW5GhaIH+bOpdwv56bSpUtR3ryv0flz5+U5T54+0ediHkfMmLF03B6ACxfyHz1+bM+ScfQJQhEsKOg/ysNlK0uWzG7CRmB9RkXoR2iRb45codU618MIMAKMACPACDACjAAjwAhEMAQePHwge6SOiET7b/7DtWvX6dr1a3To0GHatu0XWe7+/fuEn53gjgWCJePq1X9o565dMg6Lx7Xr1wkWlFQpU8m0WLFiSWvHP9f+kXFP/1D+0qVLlF6sKGXOG8Ek9EoVK0jhAgIGXLpAKI+fyHCrLrA+uxUMYQJbNkIIIJ/OCDACjAAjwAgwAowAIxB5EMiSOZOwRriY76dPn8nVobzpPVaqKlyokHSHOnbsmFzKFpO7wdhXr/amsAY8ozVr11qqwjmYX/Haq6/StX+u0cu5XZO/YdV48uSJWP3qDL3+ej4xh+OKECDSEwSOE2IORlB08NAhqlqlCtWvV09YKw5Q4kSJpbXk9Jkz9ODBA7py5QoVKJBfCkSYOB4vXjyC25edAuuzvVxI4yxshBRBPp8RYAQYAUaAEWAEGAFGIMIjoLT9+fLlI/xAcBca+/U4GZb5sAIIktYA4/js+TM6evQY7dixU0yaLiCZeUwMX7lylSyPPTQwZ8NOKLN8xQo5YbtBg/qiXtck8iN//imLrli5kho2bCCFB/Rl9+7dcsK4vR4zDhevhGL+RyEh+GTO7FqB6owQNJYvXyGL/fjTEqr7dh0hAFWT17d//345lwQWD1wXrgUUWJ9l5n//nsNC4sEqYpYJLhwte848LlSDKxni/FBoJhSq8P0yQrfx4GsLvoTv18JnMgKMACPACDACjAAjwAj4ggAmkcOFCVYERWqJWSXQqHR1xDK6iRIlkpPAYemwEzYbRLqnPHtZFYfwkCRxYnrw8KGlLyofVhL0J7D5F8H1WdXj9JgqZUq52pY6j4UNhUSwx9Bl/oOvLfgSwXaZCzACjAAjwAgwAowAI8AIMALhiABPEA9H8LlpRoARYAQYAUaAEWAEGAFGICojwMJGVL67fG2MACPACDACjAAjwAgwAoxAOCLAwkY4gs9NMwKMACPACDACjAAjwAgwAlEZARY2ovLd5WtjBBgBRoARYAQYAUaAEWAEwhEBFjbCEXxumhFgBBgBRoARYAQYAUaAEYjKCLCwEZXvLl8bI8AIMAKMACPACDACjAAjEI4IsLARjuBz04wAI8AIMAKMACPACDACjEBURgB7tfOGDlH5DvO1MQKMACPACDACjAAjwAgwAuGEQMzsufJ4bPrE0SOUM+crMg87DP7++y6KFy+ejO/evYe++GIIYQv2/v37UoUK5WQ6/lWoUJXOnTtHM2d+T8WLF5Pp2GGxffuOdPnyVRo8eBAVLlxIpj99+owqVapK589fEPlt6IMPesp0/Bs48FNas2YdFS1ahMaOHUUxYriMMD+JLdj79OlPvvRJV+5lAP2cM2emLr1ixUrR/6FUvnw5cfxMpy9YsIgGDPhYx7Fj47x5s+m1117VaR999AnNn79Qx30N+NKnn39eS+nTp5dN7ty5mz799DO6fv0Gvfdee2rVqoXuStOmLWjPnt903NuAL30CPgUK5PfYRI8evQlYB0ZZsmSm8ePHUY4c2eWumKNHj6VJk6YGVpy6detCXbp01Pl16tSnw4eP6LgKhAQnf/Xp/fe7UufO76ku0vvv96RVq9ZQ8uTJaO7c2ZQ5cyaZd/nyZSpTpoIu523Al/fIaZ/wHixePF926ezZc9S37wC37j1//pz27fuDnjx5IvNefjkXxYkTx61c3ryv0SeffKTTBw36gmbP/kHHq1atTOPGjdHxU6f+prffbiB3bNWJIpAhQwbauHGNTjp69JgYywaKseg8tWz5LnXo0FbnzZz5Pzne6QQRqFPnLRo+/EuZtHXrL9SmTXszW4Z9eS+cPoNO23Ba3u2iOIERYAQYAUaAEXCIgIuDD+aklGLb8bhx4+pS48Z9S0eO/ElnzpylGTNm6XQEwAAmS5ZMCxpImzBhEu3YsYtOnTpFU6Z8jyRJECDefLOqDGfMmPG/VKJdu3YLZn0B3bx5k9auXSeYkH06L0eOHDLstE+6AgeBGjWq6dIQrPr1G0j//HONIFz8/fdpnVezZnUdRgBMvCloLF26PFQEDdTttE9gJu/duy8EvcvyN3z4CDpx4iTduHGDpk2bjio1xY4dW4edBJz2yaz7ypUrgrHrTA8fPjSTgww3b95UPmcoFCNGDMGAd7U8n+bJEJDfeaepTvrll189ChohxckffUKn48a1Mtzr12+U13Lt2nWhAAh4L+LHT6Cv0UnAl/fIaZ8wHii6ePEiQVlh/0HIVYIGyv7111Hav/+A269ixQCBCs/0woWLVdWUJEkSIRQM0vEHDx5S16493AQNFMiX7zVdDoEePT6QbQHXkSNH06+/btf5r77qUrroBBGIHh1GYRcpRYiKq6PT98KXZ9BpG07Lq2vhIyPACDACjAAj4CsCMb05EQxh/fqNpTXh/v37dOzYcX1azpwu5l8lgJlIly6tisrjunXrKVq0aNS4cUNhlehlyUufPp2Mjxs3XjMOJiMPK0GmTC7tLQqifpDTPsmTHP5TfcNpW7ZsI1hoYCGAdQaabEVgaJMmTSqFo1SpUlG7dq1Vljxmy5ZVaOqXSAFt8+YttGzZCku+k4gvfapR4y23JlKmTCGY/HY6HVamP/7Yr+NOAr706e7de/Tjj0sElkPo9u07TpqjXLlyWcrjGUmUKKG8P5YMEWnYsL5kQlX65MnfU+LEiaTW/NmzZwTmEoRwSHDyR5/QLzDhbdq0QlASrH9z586XwhYsbIr27Nmjgo6OvrxHTvtkChtPnz6VVsEiRQpR2rRppcJi69ZtgsEfQ48fPw6y77Byli5dUpeZOHGyRUiFBQgChyIIRaNGDZPP12+/7aUffphHFy64xg/cb5NgjTUJ1lZFZv9VmjdHX94Lp8+g0zaclofCh4kRYAQYAUaAEQgJAl4JG3BxOHDgoFs7sGJ0795Vp8MVAT9T+4jMJ0+eCgsI3KqK6rIqkDZtGhkE04OfnT79dCCBMVa0fLnLvcZpn3D+Sy+9pKoJ8njv3j3JxKRJ4+obCp8+fZqaNWtCvXv3pPjx47udj+vAh7lHj25uWnZl5YBgVrt2TXr55ZdpxIhRsg4IKqbVyK3i/xLAHN26dYt86ZNZ5/jxX1OePHmkQAgBUNHYseOkW5yKOzn60qe2bTtIBt9JO6rs7t27Lc8SmN+rV/9R2foYM2ZM4Sb2ro4fOnRYaqy3bfuZIBSCKlasSmfPWhlNpDvFyV992rRpC8EyhucGBLc30/UNaXhvhgz5CkHH5Mt75LRPyZIFvHclShS39BHvBH5wj+rc+X35DlkKGJGePbvr2MWLlyzWQriTwbpkJyUEwn2odu1a9O67bYRV8m/pummWhTVy9OivZVKmTBm1xRUJ586dlxa0xIkT61OgXFCEd9gcWx48uE/37z8Ik3fV6bvntDwLG+ou85ERYAQYAUbAVwS8EjY8VY4P8vTpUyhhwoQyGxpL+E+DeUmRIrnllCVLFur5HpYMEUme3FrWzIcWt0GDejoJvtGrV6/VcXsgqD6VKlVSuA1Ntp/iMf7TT0uFBaafpW9gRoIiXDNcemrUsLpUQUh49OiRRaBo376NcBP5S1o4pk2bQgUL5g+qap0HxtjEy5s+6ZP/C2TNmlVYZ1zWJJWHexYUrqpcYEdf+mTXLAdWt6f08eO/E8nRKHfuXHTp0mVxX2d6KkY1a9awWNmmTJkmy0EIURQzZiwVtByd4uSvPuG9Wr16jRY2LJ38LwKXH2Xx85TvNC2o9wh1Oe2TyYirvsDFyXTHKlKksJwnMWzYCFXEcixX7g3LezJhwncWS0i1am+SeV9xMtqA1Uu5OUEhMGnSeKpSpTpB8IRFDVYuUMeOHahYsaLiebpEaMtUKMBlFBayQYM+lmXt/zD3aOfObToZwi/mP/nyXuhKRMCbZ9BpG07Lm/3hMCPACDACjAAj4AsCXs3ZsFcMZmTWrOlaO4z8L774UvphI/zvv//ioAmaP0WwTGzcuElF6c4da1mV0bPn+3LSuIqfPHmKevXqI4UZlWYeg+sTmA5vKXZsV9m7dz33DfM2hgwZZqkO15E1axYLAwW3pHLlKgn/8ELC4tFbMGkBrhtlypSW56u2LJUFEsE1OO2TvaqDBw8J69NRi/sJLBw//jif8ud/3V7cq3hI++RVI0YhMLuYNwRN+OeffykXJDCyZRDXZLqzwU0GTLu35BQnf/UJ84HGjRtr6TaYZPNZwmTlb78d68ZsW07yMhLce4RqnPcpYME7uCK2atVOvBMFhSKhiZjH9bfuGRQCngj3EuOBIrg4mXM1kJ4nT26VLccILMiANkqXfkPOF1OZcH/MmDGDtKrhHTZxLFiwAFWvXs0iaOC8bdt+kUKLqiO4oxprQvpeePMMOm3DafngrpXzGQFGgBFgBBiB4BBwLGzAXeF//5sh/K0DXIygjZw9e65uCy4OdoKbS6dOXQXT0JvMicjQJNoJFg1Ta485HO+80ypQFwtv+nT79m0p2EAoCO6n/Pg9XQdcWqpVqyUmrVvnN+A64FZm0oABn0jNO9KwutKSJUt1tpp0evXq1WD7g/7eunVbuGbcFxpsd7yC6pNu8L9A7959BbP4tljlq6RwgftAC28JEiQQK+zUthf3Kh7SPnnViMNCcJuBe46iaNGiC2G1u5wzZPrgt2nTUgq1sEqZ5A+cfOlTt25dtGb+7NlzcmWlwoWLU6lSb1hWYSpbtgwVKVLYvATHYW/eI1TqtE9jxowTK48Vlb+iRUsRJumDIIxjHoUirEBlzrlQ6bBa5M79sooKF7fvLJPJkWG+e+vXb9AuVniX+/btr89FQL17ixb9KCaQvy8FHlj3PNGWLduEsLJTujCa44a9rJkHZQQopO+FN8+g0zaclrdfJ8cZAUaAEWAEGAGnCAT4k3hxZpYsWYRF43tKnTq1Lv3ll8No+nSrGwtcW0yCJr1Zs3clwxwvXly99C3K2IWNPn16Udu2rfXpx4+fkH7WYMo9kbd92rv3dypUyLUUr6d6PKXZr6NLl+5ydSyUVZYJhKEdhTD18OEjRDXdFStYmYS5IIpixXJBj5WYnJDTPmGyvvJ1x2o/n376uZxIDZ/ylStXSe2/Yr58ZVad9snJ9XoqiyVRmzZtJF3WYLH49tuJlkULcE4iMWHcJLiOmc+VymvYsL4Mbtq0VVvSfMHJH32CBdBciACMOdx/QNevX6evvhol5xHJBPEPwsz27TtUVE6CVzidPXtWMunm4g66oAh4+x7h3XfaJygmYDUAof+mgPH4ccA7AwsGVmQyCUJg9+5ddBIErsWLf9RxFTBXM8PqaybZ38OYMQOGvfXrNxJ+SZIklhPWJ0wYp5eJxns9bJhrLsySJcuEsmCZrrZu3To0dOhgGYcbW8uWbXWeCjh9L3x5V5224bS8uhY+MgKMACPACDACviJg/bIHUQv8h2fPnq4FDfjcw1XBLmigCviPnzlzFkFJCRMmkpPEEenUqaPF1QhL4irq16+PhSHEXggQUgITNJz0SbXh5Lh9+05LcWXNAVPQpEkjnbd79x4hcDy1uIQgs3//PnquBiaJg0FRdOLEKRV0dHTaJ1iRateuKX9ov2PH9nJuCRqFtjhnzhy6/Tt37uiwk4DTPjmp21NZXEe/fh8KN5m80u0FfvghJbizhQQnf/QJDLSpcS9ZsoSFGcfcApMePbIuH2z2CXOJvvvuW7O4Djt5j3zpE1aRglCH38cfDxBCf0HZNgScRo0a6n5AYL9x44aOI4BrQDlF3347Qb5rKq6O5gp21au/qa08cGkaMKCvKiaPcMm0EyyHXbt20oIG8rFMd2DCmf18T3Gn74Uv76rTNpyW93RdnMYIMAKMACPACDhBIJrY1M+j/4C5qR+0i1u2bLSsCoVGbgvfcTt9/fU3YkO//wm3p2ZiY74A9wVo9eFrbTK38EmuW9fFbDRr1lhs1jXQXp1bG/fv36OyZStKpstpn9wqDyYBjMqmTevEdafUJbGSDSa8mu4esE78/PMmWWb+/DmWuQ9goCCIYEUt01Xngw8+lKsM6Yq9DPjSp+XLf7QsF4s5NdD2mhYqNP/dd1PkHgNedkUX86VPY8aMsOzFYro2QZBVq+DAJaVmzQAhDY3OmDGV7KsalS1bQbusoUzChAmF9akUghaC9nzMmJE6DUsuHz58WM4jWrZssc84+atPS5YssrgQwS3oxIkTcl4BBFiTGjduTrDgKfKmT76820uXLnbUJzz744yN9tA/MPewJpi0YMFCIRh8opPAfK9bt0q7bEKggAsj3ic74V5PnTpJJ+MZUkoK8znHHjN4nux1vPvuOxahZO/efULR0cKtnGoAQlBwlg1f3gun76rTNpyWV9fLR0aAEWAEGAFGwFcEvLJsgEEzl59VjWElF/tPrTyDCZwQJhTFF8vFmoIG5h9ggzlFJkOg0nC0149y6I8vfTLr9Sb8+PFj4UYxQjAcARO7oWU1BQ3sm7Fp02ZdXQ+xOdhx4fqlCLilSZPaImisXLnaJ0EDdfrSp5Ejx8r5HqpPYMTteIMJ++4771brUvWooy99whKcEDDUT9WFI1xpVHqGDOnNLBm+csXqUgeBDj+TIFBhp21PP7Pchg0bacOGn6UFISQ4+atPWOHNdL/DzuGwFNgFjbli7w1T0MA1etMnX94jp33CUrlbtmw1YXcTNLBBH941k2A9VNZEpI8fPzFQ5n/r1l/EeDJSW4LwDOEZN59zWGV69erjVgcsZB9++IFuGi5q3bv3dCunC4gAJrorwljmiXx5L5w+g07bcFre03VxGiPACDACjAAj4AQBr4QNuHKYH9egGoDlAYQPMDSDWH0KS7+aBMYWS0OaLlTY5M0bUv3wpU/e1G8vg8nXHTp01JuBqXxcH3ZPf++9LprBQR6sN40bNxMa2fVumGGfDKyehEnyISGnfYLVpUGDpnJCrrlLM/qAezNr1mxhiWrptoqYkz467ZO399tTuYkTJ8nJtxACgemoUWOCZAzt16GYQzxDmLuiKCQ4+atP2IwOiyNAoIW23k6Ys/LJJ5/JZafted70yZf3yGmfwOTD+oclis3N8tBf3EPMhahTp76bFRPuUIqwalVwm2HC7QnCPjAxCbhhUnqtWm973D0e7lMQTlAO70ePHr0tVjKzLhWGwiBPnnzy16lTN5XsdnT6XvjyDDptw2l5t4viBEaAEWAEGAFGwAECXrlROajPY1GY7jE/ABp1rFmvXGQ8Fo7AidgILleuHFKLDuuF3RXD3nW4qGTPnk26YcEF5Pz58/YiIY477RPuRa5cOaV1BrspgzGzCyAh7ZTTPvnSHjTysKJB668EUF/qCewcX3Dyd59g5UuXLp1kjLFHxVkxWRpuZhAYAqOI2Cc8Hy+95NoUD0KEXRkR2LU4SU+aNKkYc3JJYfLo0WMWy56TekKzrNP3wpdn0GkbTsuHJh5cFyPACDACjMCLgUCYCBsvBpR8lYwAI8AIMAKMACPACDACjAAjYCLglRuVeQKHGQFGgBFgBBgBRoARYAQYAUaAEfAGARY2vEGJyzACjAAjwAgwAowAI8AIMAKMgGMEWNhwDBmfwAgwAowAI8AIMAKMACPACDAC3iDAwoY3KHEZRoARYAQYAUaAEWAEGAFGgBFwjAALG44h4xMYAUaAEWAEGAFGgBFgBBgBRsAbBFjY8Aal/8r07t2Ttm37Wew2vYZq167p4Ewuygi4I4CN+ebMmUl79uwQGyp+KzewdC8V8VMi0nvRokVzWr16udtvxYolHjcmjfjocg+jOgJ16tR2e17xDK9atYyyZMkc1S+fr89LBMJinPV3GxHxmxcR++TlIxGpisWMVL0Nx87mypWL2rVro3uAHYexOVZ4UPPmTSlBggRuTWPjMnPXdrcCESghT57cVLZsGbceYc+MmTP/53HviKhw3eYFv/deeypcuJBMKl++HFWr9ibNm7fALBLhwxHpvQBYmTJlpGzZsnrELWHCRG47zXssyImMQBgikD59ukCfWewlhD2awopy5sxBFSqUl81h89316zeEVdNBthMRx/60adMIpWMt2e8bN27Q/PkLg7yGkGSGxTgbFm3465sXkufDX30Kyf02z40dOzZBiYZ920B4zvC8RTZ64YSNuHHj0rvvNicwd5kzZ6Z48eLSX38dlUz6ggWL6M8///J4DxMmjG9Jf/LkqSUelpGBA/sTNmuzU8KECUJV2EiWLBl17Nie8ubNKzcnjB07lty5e/36jXLX8cuXL9u74HW8YsXy1K1bF4/l58yZS48fP3bLC6vrdmvYi4Rq1apSmjRpZMm1a9e57ZTtqYoECazPVHCbRHqqI6RpgwZ9TNjYDXTgwEEaP36ipUowO19++blOGzZshGB+/tbxiPRe6E4ZAWx6CHr27KncANLIkkEM4E2bNqZKlSrQyy/nEuNBPDkGAAvXjufuG3HWqlWDatSoLt6L1+SGmJcuXRLWqd/o228nemxDtQnm5KOP+olNGV0fjcOHD9O4ceNVttsRTOhHH/XX6aNHjyVsUBgY4X3t3r2r3EQUZU6dOkXDh48MrLijdHzwWrZ8h8qVe0OOBTFixKT9+w/Q3r175c7up0+f0fVVr16N3noreMvvo0ePqVevPm6bOnbo0Jby588v6zt27BiNGjVW1+0p4A1OTvuE3eRHjfqK4sSJ7alJS9ry5Sv17vZOcFKV4BlVz2mMGNHlZqUqL7SO0N5CWYYNXdOnT0/Xr1+X7/vu3Xto9uwf9Aa1ZcqUFveku2wWeRFF2IiIY3+BAvk1Vrdu3fKrsBEW46zTNiLSNy8kz0dE+A4H9Z6nTJmS+vTppYvg2/Trr9t1PLIEXihhAzswL1w4z800jUEDv/r164rB40OPA+z+/QdleqFCBenhw0c0evTXkeUe+9TP4sWL0pgxIwkMjEnQGrdv34befrs2tWnTIVDhzDznRQh3796NsmbNIi/15s2b9OOPS2Q4qH9Tp04jWHhAR478SStXrg6quF/y8ud/XfcBYbuwgecAgqEiMLwmReT3YsOGjUJY7mp21xJOkiSxECimEBgxk9R4AAa1ffuOWoCHgA83g7ZtW5vFCUIEzildupRg6DrSlStXLPmIYDfwr78eTa+/nk/nbd68RYc9BVq3bqmxf/r0GX3xxRBPxWQaPvyffPKR5X09dSprqAgbGDfnz//BTfteunRJcc0lpdatdev2Gqd8+V6TypxAO2tkfPRRXIuwgQ9r166dCUw7CExxcOQNTk779PjxE3rzzSrBNS3zz549J4UNpzipymHNVBbNOHHiCCFgr8oKlWNzYQm3M2Pp0qUl/KpWrSwtzN2796J///03VNrjSkIfgbAYZ522EVm/efa7ExG+w/Y+RcX4CyVs9Ov3IQXlAwut5tixI6lo0VJ09+5dy/1+8uQJderUzZIWXpH69RsLNyqXVvzzzwcJC02mUO0KrD9Dhgy2MC72BsAUDB78GdWr18ie5VV8zpx5UhuMwgULFpQa2eBO9Pd1B9d+aOdv2/YrFS/u7koW2u0EVd/GjZu0sJE8eTKp+TS158WLF9Onnz9/3k2zHpHeC91RLwODBn3iJmiYp6ZIkVxofWcILX19ac2B259d0DDLQ3AcMKAvvf9+TzNZhvv162MRNKANnzt3vls5lQCLUoMG9VRU+O+vFtYydysLGNzPPvuUqld/U5d1GoBFB9aZW7duezx14MABboKGWTBp0qRSMVGpkqsPz58/N7MdhVu1aqEFDdQDRiAo8hankPQpqPbNPKc4mef6K4zvHZ49T5Zw1WbZsqUJ1qSRI8eopAh3jGpjv1OAw2KcDYs2/PXNC8nz4a8+Ob3HUb38CyVslClTSt/PU6f+FlrKvtItqFGj+tqlBxpIDL6rVq2RZaH5iR/f6u6CDLhNQKNlUvbs2Shfvrwyaffu36hIkULS1eLnnzeJieW/Si1lqVIlhQlsB0HrClM9mHZoB0F37tyhzZu3Si1pzpw5pEvH0aNH5bkoqwhmNEVwZfJW2IDLGNwgcuTIQWAsL168RJ7meTRsWF+Y2tOpJqTGEhpt4DBgQD/hLpRa5sGNBJraP/7Yr8uWLFmCcud+mTJmzEC3b98Wrhx/i8mPawlzMUyCxnLHjl0yyVtGwN/XrfoH5gluNbDipEiRgq5duyYwOExwjzLdu+COgDkCINMChGfg0qUAFzP0W2kNUR7WMTvdvXtP1m9PN+PeYJs6dWoqWbK4PO3cufN0+PARKlGimHgWC0tXCbgJrlixSrtNbNz4M3Xu/J5uplixohaBokQJV10oAMFEkZP3Qp2DI54NXH/WrFkklidP/k1Lliy1aLehpYfACwJTnihRIipWrIiM453DvCT0Sz2H27b94nguRoYMGSwMOgSs/v0HSoa+Zct3JfOFBqGAaN68ibQqtGnTUqS4CM8zrB6XL18VQvcgPfemSpXK8t05f/6CKiq1x9AuK8I78dFHn6iox+M77zTTGKDAlCnfeyyHZ81XQQOM6Pjx48R4kF0+D3jHJ02aamknevToVKVKJZ0G1xpYWKCM6d+/r/DvLyfz8FwD03PnzonFDqbo8VNmGv+++Wasvm+wAOG5V4T73LhxQxUVz9vPdPLkKR33FPAWJ6d9AuNVq9bbwo0qjluzGPdgRVKE++kLTup8fx6LFi0irWqqjTFjxtGCBQvF+JxRukeq+U0VK1bwKGzgm4F5ZRg/8A3C+LFu3QY9fqh6cfT2+5JHCOUYB0y6cOEC7dy5W357YSHEuIvv4f/+N4eOHTsuXb5UeSffPLiIlipVQrj+ZRffr3jim32W8G0Oam4jMMN3LUsWKPGiEeaubN26TfZD9SG4I95J9ezgO7tjx87gTvGY73Scxff9pZeSyrpwn9KlSyeuv7h0Gcf3YNOmzXT8+AlLW07aCOtvHp47jHEY6+/fv09nzpyV3y+ETXLKG2C88uU7DLdbvCt4hlOnTkXwYsAYBSv11av/mF3SYW/fC5wAiy7uIRRACP/yyy9iTA34luhKI2HghRE2wCgr33TcJ7z8+/cfkLcMvtavvvqKeHhcTHS0aAGLdMH1wZNWCIO23eWkYcMGBM0cCD64KVIkl2EwGrNn/0DNmjWRcRzhqz1u3Lf0xhtltE/8w4cP6bff9gpmsYQsp/79+ut2wRC+72ZtUfneHOEOA2uFKUTgPJhCv/76G8EgTJYfE6ThRVL06NEjwXh10i9SkiRJBLMxSGVL/20IGzDJDx8+RFiFXEyhLiAC8BWGmR4fjbAmJ9eNvlWqVFEyj9CY2glMRdu2HbSQ2bPn+4IhqWEvJu+zutfIBBO7cOFiWa527ZpasDVPhJtMnjwuQdVMR9gJthUrlqdPPx0oqwDeeHbBTJoEBq1p0xaS2cdHF4NkypQpZBEIJrNmzZZhDPCmJdAUNpy8F6gMA+cnnwwQror13N6nFi2aSWsABu24ceNKLbl65/A+4GMD/3nQli1bxT14T/pKIx0Ext3p5Ey41ZjUo8cH+vkcOXK0UBK8qt9DjA0QJk0rz4QJk7SwDEFATfSHz/2bb1bVGnn7+/LgwUPhJtQjyLkdEHDeeSdAOIFCAEJjcPTTT0uEC9c/0s0xuLLIx7ikng18RN9/v6tYnGG2RTEAZQjuiSKMWXD5A82YMUsLG4ijLggb+ADjZ6eCBfNrQQN5EADA1Ctq2rQRJUyYUEVp8mSr4KMz/gs4wcmXPmEunyfCmKkIjC/ebV9wUnX486iECdUG3m0w8Xjnhw79SoxFnWUWFEPqnVNlcS8WCrdjKL5M+v33feL5bGVREDgZZ1u2bCHccN8yq5TM/6ZNW6hLl46WdCj1fP1uYAyG2yO+/SZBaMI3H99vc54cFl0ZPvxLqlw5QLhW5/Xu3UucM56++WaCSgr0iPeoc+cABc7ixT/5LGw4HWeHDPlCKhLRuXLl1ohFR6pa+tmjRzf64IMPLcoAJ22E1TcPLq7ffTdeeD0UsPQfkU6dOshvqlJWuhXwIqF2beffYShoZ82arsdMsxlM2O7b9yOCYtkkJ+8F+M9Jk8Zb+K8OHdrSvn1/mFVG2nAAVx1pL8G7jt+7d8+iba5Zs4YcECCAQLMO3+66dRvK38qVq7yrNIhSStBQRUzmE2nKmqHycYQmxC5oIB1pbdq0QtAnwodw3LgxboIGKgNzhAEIE4UVZc2aVQWlRgkfJkVr166XOF69elV8sK7K+Sv4SH311VCPggbOw8dq0aL5UqBT9YTF0el141kYMWJooBM0s2bNIq5zWFh0XbcREmyBu2ImdYUiAK1dw4b1ZRKefWi7FBUpUkRqaREvXry4SpaC7q5du3XcaaBr107CLai+G0ODeqDF+emnhdJCB4vB6dOndfVp0qQRFqZsOq6YJ2iVFEHb6pRMSyHOBZNskmmZgKABgc+kdevWy2tp0qSR0AgPN7Ms7xmYDggciuLGjSMEp2FyyeNevbq71YtyuDfmOZMnfy+XRYZAiA+eSffu3ZcWyvbtO4lJhP2FNfGWmR1kGKvPmBRLWHUTJQpg9pEH6wNcFBo0aEI1a9aR2md1jp0JvXjxosryeOzRwzXxGJmw/M2bt0CXw9jXosU7Or537+/CYnpACsG4blPgUYWc4KTOsR+D6pO9LOJQpphj98SJk8UY+DBUcfLUrq9p0Mqb9M03Y6T1AMIl3nv1zWvZsq3bCoB58uR2EzRQV4EC+YVCpbGu1uk4izHHTsmTJxff4A72ZJ/j+GbC+mQXNFAhrFAYj+zvbbduXTwKGjgH30nkm/ce6XaqV+9ti6ABhnjgwE/txcIkbhc00Cjecbh6xowZsfXMX3zxmUdBA9cAC+qIEWH7HUa7cJP09D1FHpSTUMLivVLk9L344IMeFkFD1YO5lFGBIvYTF8oIY3BVZnp8VKGBwA9LC8LSsWDBIou5Fs136dJdz4/o0qWTdpsJrmtwf/r337v6hYEbDUxtWMUGZGqMzbrw4YJJECvWQBOoCJPXYYHwhVq0aK6ZF2hyoDE8e/a8nOStNLIYJDHpHe5N8ANXdPnyFRWUR2gIy5atYEnDwA5zpyJoouA2homzVapUkoM7mKzWrVsKjXQfVczvR6fXjfLmxwnacmjW4TuvcMI9yZgxg7RuQKMJ9xtQ584dBUMUR4bxLP3yy3YZxj+TSV+yZJlgbF2+91gZJqg5ADgX7kIhwRbPHVaUSZYsuWQyUCcIJmRY20DQxqj5AdAogck4dOiwEHKLyXz8w/18/DhghTAn7wU00G3bttF1wZoCbCGQt2/fTuIGZhIC+ZdfDpMua1myZJHlYV3Jls0VRgLcAlBfihQpZT6e58A00LJAIP9MYQJFsPyhWvQBJnZYJxThfkHoMQmr0c2Y8b0QyIqayTKM5x4E90bTfUomin+KycczVbt2LbE6XhsxBv0ts8EEtGr1rioq7wMsm9u2/awtsxUrVtXWNTDl5ctX1lZJfaIXgd27d1v6Dy2yqVhAFWAMMR7ZCR9drHylCO+BehdUmnmE+6hyhUP6xImTLJpxaLohVCjCGIUxSVlRf/ppqRCm+qlsySw5wUmfaASC65NRVAd79gwQmOAeoyxqoYWTbiiUArAWoG/KaoHxBD+4ocBCAaH5p5+WBWo1RzmMDxg/zGe9aNGicrU2dNPpOPvVVyOle1SNGtW0Ek29M6gPAi7GmjRp0gbaL5QLipTFBmVgnYc7JhSOFSqU1wJ+9epvCivqOPnuYdxv0aKZrhIWK4wHeO87d35Pu6LhfcVY6ImA6+eff6qzwAN07tzNMm7qTC8DTsZZT1XC6wDKGFy3er+gVMsgGHY15jhpIyy+eWDY4fGhCALb7Nlz5HPbtKlLyMU1vPJKHq8svqoe8+j0O4xzIWQrwpg8dOhXUnGn7jnwheJMWaGdvBf4TpteElC6rRbu51CKYaEKky9RfYhsxxdK2ICrEBgpc0UY3DAw/vhBEIE/68cff6bNqxiMFdWsWd1rYWPKlGnCleof+v77yfL0LVu2CfNlX6k5gUtJYASXELwIILiOoE0QNLnQ/kEYcUq4ZkVgHCZNcrknHD9+XGgXXS4zYHLAQOzadV0VlUfTzGzJMCKm/y0+bK1atZMfDBSZMWOqHCQQflW4o4QlOb1uU2uBj43yq4ewsGbNCq0Nwgfo7NlztH37DvnDNdWtW0evRrVmzTrNyNuvF+fhB4IbUHDCRkix7dmzj9Rgor3ly3/UjK75cYebDp4rPF+gYsWKSia3uGHZgP+8SU7eCwhV0AwqwgceTDKoYMGCWluYJ08emYZnVD33LmEjwLIBrSSEL1UfGFxf3gkIU7dv39GCNbSquG5MlIbPrDm4w20ohRCMTFqyZKEUesw0FYaWFoR9U/BemQQ3KmgXVf9xH2A6r1LF9Z7D4mpaUTCOgMx6YsaMZVbpk6CBCsaP/078jyb85zFB/LJmHi2Ve4hAGJs+fYp2ecIYMWjQF26acfNUuF8ounDholTsqDjuaZs2rVRU+sjDZQ9uVYpixbLi6AtOqi51DKpPqox5xHNhKoAmTPguSEbSF5zM9kIjfPUq5hQNpQ8//EAzzKgXAjuURPh17txJWBW6WObeqba7dHlfzFf4RUYXL56vF1Qwn1Gn4+y1a9fFPLjrkjFT7eAI5vzDDwfIsQdxMJ3efH9Q1iQIVmD6FGFlwIEDP5XRFStW0Q8/zFJZkmEF0501axbZnsr4+uvxBPcnEMaghsLaCDItqjLhv3+wRGI+knpPIYi2afOedFkzyzkNOxln7XVDqQOLJAj3EFYtRRh3cN0gJ22ExTcP97xJk3e0NRPCEoReKP6wAaYam/FdUYy9vBAH//ANxg/kzXcY5czvDOau5M2bV37/q1SpIe67y6JhWhKdvBfgFTEOKpo0aYp22Tt+/IRl6VtVJrIdrSN4ZOu9w/5Cm9m4cXOhxWwntPp1PAoOcPXYv/+gxcTvsBlZ/M6dO0KTcl+fCskVLxG0LIEJG/BfXr9+oz4Hk9QV04UBNGnSpGJC6mWd720Ag6UimOT27t2popaj3UUDmUojZiloi5gfnv37D2hBA8XgdgWND0gxYTISBv+cXneGDAGT4ncIbYoiPDevvebuO6ry/XkMCbZgpjF5WtGvv+7QwoY5sN2//0Ba9t54o6wsWqJEMTk5V+EH7QoWLvCVVD3q/ClTJqqg5aiePwgCitKmTSsVASqOo5oAj3BQEz2RHxjhmoYMGSY0559pxt+TfzDOB4Z2YQPMmiJoTfEBrFChnEy6c+dfeTQ/NhDCwfBAE47rHD16pNYUQ9EBaxksKO3atZbn4h9cu1avXqPjoR3AeIQ5GE4IDPSsWdO1lQXnfvHFl2LS7Z5Aq4EPfN68r+l8O5NetWplyyIXWIEKeAVGGJNCilNwfbK3jTZN4QRjArS8gZEvOAVWV0jTsUkq7k+vXt2lQK2UCqpePNtjxowQAm8NlSSPsHJjzFCE90AtE226i5jvt9Pvi6ob97tHj96W+Rl4Pn0hWObNTW9NZhrWHAg6aqxR7zWYR5N27gz4Rn788SChgBxkZnsMw1tCEawivnyr1fmhcTSXUoeQYJJSdphpESkMBhuWgXLlygrB8WXp3ukNL+LPa4ASTHmkwGo9eLDrmcB8DfBqWGDDHLecvBf2Zx0KS0VYmKZPn14qGmmPL5SwgbuEm4rJYfhBui9TpjQ1atTA8jGsUKFciIUNtOWUsDLL3bt39WkwJ4cHPX78WDerVrZQCXjh4b6gPjbmQI4y0OiYBE1xZCG12Rr6q1ydIlLfnWILZsGcgHtHCMCBETTJStgoXLiQsDaU0kX37dvv1X4H+oQQBqCtwqCNZ61Agfxaw4V0mM6V8IpmTMHEabOLFv0olnu9JSaR9pIfEU8fsy1btklBzNPKJXA5+uSTQVJBoCyY6IN65k1LGVzZlMsNmJ2+ffsLi1OA1RRWP1jMcubMoS8DC1WAQQRh3oiiNm1ailVZzohJ6NN90vyqepwe8YGFoGF+RIcNGyGseHMDrQpCreluBQEKuJvUpEljMypXKsLHFc+hIliju3TpKDSJO6UGMCQ4edMn1a46wkplWhlhFTLfLVUOR19wMs/3RxjWOSysAEUXBL/atWvKn2LKwWyb1gD04cqVq5bn6+ZN7+cDOb2Gy5evWAQNp+cHVd4cN6FkgBCghA11nsl8Y7EO8xxVxskRwjDmfkK5GF5kCjtBjf3h1b/A2o0ZM6YYU2ZIi0NgZcIjHZuLQtgwFSfoB+ZrNG3aWKw6WEUoh9+SwmxI+wcBRtGNGzdVMFIfXxhhA4IFJGUQPhJjx34jBxQwAPj9/PNaMbHTpd3AxJ7wIGhkoMmGmwHI1Iwi/uyZb5oeU3gAUzl9+gxU50ZqCdvz58/rtnPnzi3N76oOMF19+/bW58K0aH50CxR4XTKJSsIvUCDAIqDq0Cf7OWC25811w6dXUaFCAf1GGpZDxiAIgpYI1oCwoLDCFn7ZapEAMCBYQUwR8kJC5n1APZjM/OBBgNVP1Q0mHAQrICaJZ8mSRQoXSMPHHytRQdgw3wtfLRuoEwRLIn6YqwIryoQJ4/Q4AKZj2LCvZDm4GZkEl49mzd6Ve1Oo5UFVvhI2TLO7aeVEOVOpgDieLVMzijSsHOfJzU65dMwTE6wD2xsD5wdH0HA3Fa5KmEcGIQAKmMBW/sG9mDXre71iH+rG/Jrp02cG2QyYWlMw8MSk269bjdNmxRmEj3m3bl2kdRf+0iY5xcmbPpn1Q7HSvXsXnXT27DnhYmMVmFSmrzip80P7iLlYalEFzDWAyyTcUfDDeD906GDdpK/fPfP99mac1Q0aAfXOGEk+Bx8/DljhDJVAYaGe64QJE1qeR9V3cwlmCB4QbjGHCYRnL1culxIA4xAEt+AIzzye1xEjRgVXlPNtCJQvX84iaGDcX7dug2Tix4//2lY67KLgi+AZgzkUcD+EFS979gAXXwiwFSpUkK746JV6thAO7r2A9cYkPH8bNrhcl19/3bXqopkfGcMvlLBh+gXfvn1HL62IyUam5hAm8vAgaFYxSRYSNDbtq1u3ju4GNCSKGdOJXgawhjk0pyC8HLt27ZF+3ljXHhpE5dZ15sxZwURfFD7Tp8QSsK7K8QKhDCZDwdXDvmKI6aOIM7B8GzTkmIwPP1a4SCiyl1Xp/jo6vW5csTe7XAAAQABJREFUv1pOFR+olClTyAmzpUuXFPscfKe72apVO/nR1gkiYJpBMQipyddmGV/CSvDEuf7EFsw0PqKKkYdwriikwob9fUqaNImYlLpZVg9GF4IcCJYLxRQcOHCIwLgpOnjwoJiofEhF5RGCGPx5Q4PAtH/55eda0ECdWNJW9efixYtyjXe4x4ASJkwkhGyX8N+pU8DiAMhTLnhYeEK5nVQXk1Gh1Ni9e48U3gcM6Iuimk6ePGWxGOgMPwYwvmCjUxCee3zgypev4tZi1qxZxYTeaeJ9cClhoB2GW4my1Lid8F8CBKhu/y2tiiS8X/CfD0/ypU/AyXwWv/12guV9V9fjK07qfH8c8dxhIjwIE1Br1KgjrXn41tgZHDBTWbNmESWdkdNx1lPtSjnlKc9pGpRGeJ+hQABBuFy2bLlUEGEhglixYukq1TcJz6ZJVapU0sIGVj5Sc3X27t0nGM5mZlEZvi/mFFSuXF28J9PFs5JZpoHf2LBho5yI73ZCFEjw1zdP4acg6tatp5zcjwUjwougUOrVq4f26Jg4cZJQiJ2R38slSxbpbuXMmV2HnbwX5nceFTRr1lQqA6Dwat7c/XnTjUSiwAsjbPz++x9yqVb1wezduye1bPmOZOBz5rROYIVfJwiM9vDhQ4XZPpqMm2Z9CAVFirjM/NASffPNBFkmpP+gUW7cuJGYrBtbCwGo86iYCIuPvL1Ppp85tFiKuTH7BNcD+CiDYOLfuHGtWMJyl2QwTMkceweA5s6dLya3tdSa/HfffUesmPMOsiwEU99+MUcDzCT6BvcEECa8gnlKJ1YOUis0IX3XroB5ENiPBDsyg6BRNmnq1EniY+7STg0cOEhqXcPiumGxUHNkoPVdsmSxdFdRmKKPePlxzXaCxitHDtdA89ZbtaTWA4MRGOLPP/9S7/5sXrd6FlEXtGnTpk3W1arr3rJlm2NsdSUOA9C+KGFDnQoGBM+eSfZ7Edx7gWcBLoEQ6kFDhnwhGJ+aYvLkbeEnXlk/Z2AEFcFiYa7OcVBsqnjokFXYgCAQWm4KeL7VO4I+gKkYMyZAi4bne8aMWWLeRX/ZRVggf/llk3z2c+bMobot55BAoAD9+ONP+nkCgzNr1jQ5BiEPgqMiMDxYUQsMj6fdx8EYjhkzUhWXe/QcPuya4I5nc/LkicKa6Mo2lSZZs2YRgs9Wfd7QoSOEkBfA7ENDZxIsu3CRMq040OqDgYLgrQjveZ8+H8ifSsMRq+VhfoAiWGCgFVYUGJP+2WeDPQpa9erV1YIonqGxY8dJgRh7GDnFSfXB2z6p8lDEYBVCRRAglyxZpqL6GBKcdCV+CGDOnBI28P7hecD7jLEnRYrkukXMM8JzaLpP6sxgAk6/L1B8YaKvUuygekz2VQL4FeG+Ze6xYh9vvPnmbRYrP0LIAGG54q1bN8lloc3nEdesrBRnz56V3xmVj71AIHynSpXSooDYt8/FG8iKjX8YhzDGwT1yzpxZ8luIMX3YsMGiH/Use9cYpwUZtF93cONskJUFkhmSNvz1zcM7ZtLSpYslH6G+H2YewvZr8Ob5cPodxviNBYSUYvaNN8rIeYyZM7sES9WnY8dOqKB0+VTflOD4rosXT0teFNcCgoLzl182y7An916ZEcn+BXzdI1nHnXYXmhO4CWCtZOWfiQHXZPhQJwaf/4ldS0H4cJcpU0qG7f/w8VUfYMVk28v4EgdTkyhRwEQzVYcSBILqE/LUh8Xs04IFi6TFJPt/Jj8wSvZNlfABVatTgMGE8GT6Wqt+mEe4Udy5c0f+MCEO+3WodpXpXpVH3ZMnf6+iwrRdQPdVJ/4XMJdYxOofcPEIi+vG6iMtWjTXvsv4GJsfZHTv+++neVxhBHNXzGcFgwt+ILiaAFNQUNet7h3KqesGbk6xxfm+kH03cdQBAcROQd0LT+/F48eP5e7EcNnAwAnGzMQK9cOtCJYERfa5GLBsQPuDeShoHxRSFyrVFpieDz/8QEVlG92793TTXmNCMN4bJXxiUrgpaEC7OXz4CF3P1q2/iPhIubEYrhvvhilkoCBcrbAcNLSEcB/DREM72YUNaEsPHz4iiyVOnNjN/9w8X2GFtGTJXjKzpE++mXD16j9uS9+ibTXOmWXh8mkn+C4rihs3rlwyVMXxHC9dulxFLUel3LEkigiUQMrqderU3xZsnOKEup30SfUF+6iYVj77RnCqnK84qfP9dQRO8CdX8zHw7tkVCmgbixeYmmon/XH6fSlUqKCb8gqum0qhhRW0TGEjqPEGeWrcVN8e9H3MmHHS5VIpgPC82p9ZLBCB7xcI1z5ixGgx1o6QYxTSYN02Ccu+Q+EQFEFJgQUOlBtqlixZ5LyrwWJFMKcU1HV7Gmed1o/yIWnDX9+8HTt2SksGxleQsibLiId/QV1DYM+H0+/wbeEJs2LFKs03QSiFwtkkKF3NOaxO3wtYS5TAjXoxpkQlcqmio9IVBXEtc+bMFcxkK6l1h/BhEhgi7K7aqlU7rS3FWsdg/oMj5Y99/36Azz/SwHwoUvMBVJo6R+Wr45Ahw8mcHIQJrAMGfKwfYqd9Qr1gaGD6XbJkmdCwPFRNySMGUGgM+/YdYEnHRxXr2kOjaCdo7Nu27WDR8GFZ4Xffba21ogpf4AomrVGj5hbtjsLDXrc9rvAKi+vGBwdL7sHVw94/aMHwAYOLmyeC/zw+KNC2288VuxXoU9zzdJYloK4biU6wNZ8re1tmnlm/ahjMOxhOkzwJG77cC2CKXbqPHw/Q/Kh24IOPHYmVlhHphwUzrZ4hxGHZMI8I2wUSWcD4Bw3X559/Kn+fffaJm+Coinbt2kkKAnjXYYnq0aO3fo5VGRyBWbNmLeSa/XaLCrTCTZu20C5U6jwIULhuCMwmoS34z9eq9bYWHMx8e1jdL2Bizhey32P7eWbcXhYfN2gnYa3DODNq1Bg3hhPt4X57Q+b4V7hwQYsi55tvPLseBVWv2V8zHNQ5geGEc3zpU3XhhqQIAs+yZStU1HL0FSdUgiV11XOq5k1ZKg9BBOM7lj+FtdoThkePHhOrM3aWk5nRjMIPYXt5M26GnX5fzDbQjp3McQp5vow3eN/q1XMtZa/GEXXE96tTp65uq4lh9aYOHTp7/Obt3LmbWrZsa5k4bs7zMPs8duw32v0S/QdTqibiI+4t+XLd5jto3iO0aeKu+utLG6r//vrmQQDEd1hZODA+QRED12QIIopCcg12bFSd9qOJWf/+A6XCGsKwSXiu1qxZJ56PNoT3TZHT9wJW4eFCOQVeQxHGHLRrzt30tu+qjohyjJY9V54ATsjo1YmjR4RmyeXnbyRHmSCWroTWA/MW4FuH1YfMGxpWF1q/fl3pK67ay5XrVWmqg98itL12f3dVztcjrhuaAswJwQogYDaCE6igoYeLBQSHkydPBjt3BOZOuE9hdSeYp33VmPl6jZ7Oc3rd0ADCtA9fzcuXr8oVhpxcB84HOTnHU7/taRERW3sfg4tjQm+KFCmkUH/27Dn5IQnuHG/zP/qon14Iwn5Oo0bNQs1/GmZ1rE6UMGFCKSSZHxl7uyqeNGlSuacFhAUweeaHTJUJ6yO0Z7BI4APmrVAR1n2M6u2F1TOLe51OuLZiPMe3BW57pmIrNHB2Os6GRpvB1QGXWHzz8Hzfvn3bq0UVYDnIKOYo4l0N7TEquP5G1nx/fPPgVvTs2XOpDAmOTwlL3DAfFe8RhCDwaBAsgiKn7wW8Tx4/fqLdboOqO7LkvTBuVPYbgg/9gQMH7ckRIg6tKZgRfxCu2+mOy9AE4ectwXc1opHT64aQYGranV5PaAsZqv2IiK3qm7dHDM6hLUSrtqEFC4xC855A8HY6fkAgUZPHA+tjWKdDKwfXNKbwQyCsnlnca7hzKpdOf1yx03HWH32w1wlGUC30YM8LLO7JpTCwspzuQiA0x1eFqa+L4qjz/XWEJXj/fve5m4G15/S9sE8YD6zeyJT+wgobkekmcV8ZAUbAOwQwSfmHHzzv+6DM8t7VxKUYgbBBgJ/ZsMGZW2EEGIHwQ4CFjfDDXra8f/9BvUxqZPXFC2cIuXlGQCMA9xD8mBiByIIAP7OR5U5xPxkBRsBXBF7YORu+AsbnMQKMACPACDACjAAjwAgwAoyAdwi8UKtReQcJl2IEGAFGgBFgBBgBRoARYAQYgdBAgIWN0ECR62AEGAFGgBFgBBgBRoARYAQYATcEeM6GGyScwAj4FwEspztv3hy9G6nZGtZ6x4TRqEjYNfi999q7XRpWyenYsYteV92tACcwAowAI8AIMAKMQKRFIEIJG82bN/W4+Q02vzp48JAbyNgJtWzZMm7pWE8bG6SAiWFiBCIaArFjx5Z7NHjqV9asmT0lR4k07K9h31leXRj2euDVohQafGQEGAFGgBFgBKIOAhFK2Bg4sL/HLdoTJkzgUdioWLE8devWxePdwG7hWAvfpJQpU9KgQQNFG0F7j40cOdrjTsdmXaEZxu7G6FtQhJ0lT506ZSlSrVpVSpMmjUxbu3ad3/YusDQaTKRYsSJiJ813danDh4/QuHHf6rg9kCZNaqpWzbVL75UrV2nFipX2IlE+jl3dsTkQCBsteqIUKZJT584dKX/+1yl58uRSkN637w+xC+4i2rr1F0+n+D3NaZ/++eca4QeKESO63EzO753kBhgBRoARYAQYAUYgXBGIUMKGv5FInToVVapUMdhmwMAdP34i2HKhVeDNN6sQdhcOin74YZ6bsNG9ezfKmjWLPA0bhv344xIZDs9/b71VmyAEKipRohh9991kuVu0SjOPhQoVon79+sgkbDb1IgobjRo1DXIDwZw5c9CkSRPELu7pTOgobdo0VLVqZRo8eCjNmjXbkufviC99mjdvgXAfWyC7hl19DxzY6+9ucv2MACPACDACjAAjEM4IBK3iD+PO1a/fmFq0aCV/3uxYPWfOPF1+zJhxYdxbbs6OQLRo0ahcuTcsyfHjxydYOyIDde3aiT7//FNKlSpVhOru0KGD3QQN1cHo0aMTLIJg/sOSImKfwvL6uS1GgBFgBBgBRoAR8A4Bx5YNaOArVaogfa9TpEhB165dEy5OhwluPHa3JXQBk2HBgObIkUO4fySjixcvUWBzMA4cOKh7ffnyZcqcOZOOewpcv36dduzYJbN8mZ8xYsQoOnbM3YKxc6erTrPNkiVLSD/7jBkz0O3bt4WV4W9avXotYX6IohgxYlCNGtWEi0gMlSSPGzZspOjRY1CjRvWFJSKrCEenv/46SlOnTpP5HTp0psSJE0sXskmTxutz586dTxs2/Czju3btlsf06dNTpkwZZThZsmS6bL58eenSpcs6DiyVa45K9OZeQGCAW1OcOLGFy8s/wq3nKtWqVUPUdUe47CyWk5rffrsOxYoVS2ip51vaRB/gWmOnChXKW1x90EbRooUlJvnz59PF4bdfokRxHYe15siRP3Xc34Hs2bNR9erVCNYZzPmZPHkK3bp129/NBll/4cKFKG/e13QZWH5gyShfvpw4fqbTW7ZsQQMGfKzj/gxExD7583q5bkaAEWAEGAFGgBHwHQFHwgZckAYPHuTR1xrMd9u2Hejs2XO6N8WLF6UhQ9y1snD/wYo7cK959uyZLh/Wgc2bt0qmP6h206VLS8OHDxHMsbt2vl27NtS9ey8hsByXVWD+xIgRw9yq++ijT+j997uKeRkpdB4mwyph4/ff98l0MOEm7d27jzZv3mImUc+e70vm35IoIs2aNZE/ld6//0ApHKi4t/ciQYIENGbMCHna/fv35dwAWCdApUqVlHNLwJSD2rRpJXApqQWuChXKiVR3grA5aNAXOgNC5KxZ03VcBdDOjBlTVVQKpm+8Ebzbmz4hlAJx48ah9u3bUOPGDaXAMWPG//Q1hlITXlcD4VURdhru12+g7MuCBYsIz1+WLJllds2a1cNM2IiIfVIY8ZERYAQYAUaAEWAEIhYCXrtRwbVkxIihHgUNXFLWrFnoq68CGG1MeB43boxH9w9MDu3Ro5tgQMNGE4v++UJg/r/6aqhHQQP1wXVl0aL59Oqrr/xX/XOPzXTs2N4iaHgs5MdEX+9FvHjxSAka6F7x4sVICRqIgykvXLgggpJgwVD03XdTVFA+Ay+/nEvHI2rAbsVInDgR9erVg9avXyUFD7vFKiyuw5ynsWXLNilowLo1ffoULWigH7hXwc37Ca3+RsQ+hda1cT2MACPACDACjAAjELoIeG3ZaNGiuYXxnD9/If32215q0KCeYDgLyV4VLJif4GYE6wbKJ0mSRKY/ffpUaIinivTz9PbbtXX5evXeptGjvya4Q4UHvfvuOxZLDPoAK8X69Rtkd+DSU6RIYd015G3b9qucmFulSiXpDgWGu3XrloIp7SNXg6pduy7FjBlTaO6n6WV8wRyC4HKF1Ybg/mR3cdKNBBOAK9PRo8dkKaxOhPZBO3bsFO5p22UY/5TbFcJO7sWjR49wiiZo0N9++y15TUjcvn2HEB4CXLkyZ84sMYEFyBQo4IbUoEFdea04D24/cB0Dwd3rq69GSfzwzCBP0ciRY1SQrl69qsNgpuPGjavjgQVgKbt165bMhluWN3Tv3j16+PAhffLJZ7Rx4yZhMWhtETAhaGPFMNxnzA1auXKVN9WGShm12hgqO336tLRe9e7d0/IuqoYwYRyuZ/6miNgnf18z188IMAKMACPACDACviHgtbCRI0d23QLmU8A1CASmds2aFZoZBSMCYQN7YCjC/IFJk1zuMcePHxe+/q6Vc8CUo95du8JH2Khfv67qoj7u3LlbCxu5c7+s0zEnpFWrdnTlyhWZBncfCCOgAMsG0Z9//iXToCWHS5KisWPH0ZQp0yRTizRfteRg9vED1a1bR69GtWbNOpo9+weZbv/n5F5gqVpFuI+YB4B7VKBAfpn82WeDxQpIVYT7WFdVTB7Ll39DxyGUQVAAllieF1ShQjmaOHESglLogvAJqlGjuhY2bty4IV3rZIbt37RpUwiCiTdUsWJVMa8lE02bNtmb4vTTT0upT59+sizc1vB7/fV80k0J85MwxwYElyW4mP388890//4Dmebvf1jmVpGnDfFUHo6e5suY+aEVjoh9Cq1r43oYAUaAEWAEGAFGIHQR8FrYyJAhYNlNNSkbXTl//gK99loBt15h/wRF2Btg796dKmo5YtJ4RCVo6xXt339ACxpIW7t2vRY2TOZLlTePq1atoW+/nWgmEaw9YUW+3os7d+7ILmLuhqI7d/4VjPY9FdXH8uUDXKhwHph1c/I8Jo/jXl+75ptgGTt2LN1WcAFMXsfPW/JU9x9/7KcuXd6XVqGPPnIJIt7WF5rl7t7916MLHvarwAT2fv0+1M3h3oQFRcQ+hcV1cxuMACPACDACjAAj4BwBr4UNrKak6Ny58yoYqY/Tp89027UYE909EVbRMunSJWvczLOHt237xZ4UpeKY14EJ6IoKFixACxZYrSywDmCi+KJFP6pijo6wlHjDTMONCsIRVgzzpjw6YReAYHWqXv1NadkwrVuOOhxKhfHcZcmSxVLb0qXLxRK9X7rtxu3kmbRU6DASEfvk8BK4OCPACDACjAAjwAiEEQJeCxvwa1dUqJDVklG2bGntRgUXH7iYmMvgwg9++vQZ6nTLERrk8CIwvmoegac+PHnyRCcXKPC6XJpWLbFboEAABua16hOMQFgxgUaTlqDZv+DuRYwYXj8Sug2sUhU7dmwdDyxQoUI5n4UNLA/shMAQFypUzMkpcpnm+vXribkZ78p5KfaTf/11u1gkYXSYuVChfXM5Y8S7dOkul5lGuEyZ0jhIevr0mXBd+0dF5RFLHY8a5VpZDAlbt26jOXPmWsr4EglJn3xpj89hBBgBRoARYAQYgciLgNec5ZkzZwmuMCD472MZVzA3pUuXFHMRvtMIYF4D9tG4cOGCnsuAFYx27dojl7lNlCiR8I/vpZlT1Hv//kV9fkQKXLgQ0K/UqVPTG2+UpU2bNsuJ79i5WdGJEydV0ONRCSgeM0OQaLpiwVUtsDkbTu7F7dsu1ykn3apQoZwuDrc67LmiqFixovTKK3lkVAkl5iT0Z88C3MmwoADmRWBZ4PCgL774zOOywphzBCFDzZUJy75t375TTtBXbWISOAgufk2aNFLJtHv3HjfXvOzZs1t2cw8toTckfdId5gAjwAgwAowAI8AIvBAIeC1sgNHCWv6gOHHi0JIli+nMmTNivsarGihoVzG3AQSGpHLlSjKMfRU2blwrJgzvkgKLuXzqhAmuScPw5x8+fKiYjBtNngNXHEVY8Uq1gxWwvvlmgsxq1aoFlS1bRobTpg2YX4GEqVMnCebLZZkYOHAQnTt3TpZz8m/Llm1SQFIThLHh3smTpwSjl06vAoX6du3apavt2LGDWIHpJblilUrEfhQQVEBYTcpuTdmwYY1kHolc167OGz78S7FPyecy+s47rWjPnt9UljxCe4/J26C33qpFEDiw8zosMnCzOX/e5e7m7F44EzawPLC6NvQDKzVhpSlFmIT/5Zeua4C7FXYT37o1wK0M16AIOC9d+qN4hvaLifSP5ApbaiK5KuPPI5ZkNgn3evTosWIBhADhycwPizA28evdu4fc3wTtDRjQV6xI1VguQa1We0P6tGnulkNzdTCU8bRZJdKdUkj65LQtLs8IMAKMACPACDACkRsBr4WNxYt/kpNlFQOTIkVyt9Vvvv9+mvCTdzGrWDIVG80pwQKaWCyhatKSJcuEFvtvmYTlYMuUKWVm6zDyoBUHKcYfYbgyqXTETTLnEKROnconYQN9w9K82BNEtZstW1azGdn/yZO/12mtW7cUlo/EOo4A+qj6efz4CTdhI1GihIGuTqVWrTL3u1CVr1u33oIZhDr8QJiPooQNJ/ciYcKEqnqvjriveBYU2bX/5mICKIO9OExhA6t3YdUrLJkMwlK+agNFuAGFpbAhOyD+QQD65pvxhGfetB6p/LA8wgVu2LAR4jdEPCNqVawsli5g9SxY3Oyk3lWkw7qG1cFCg0LSp9Bon+tgBBgBRoARYAQYgciDgNfCBpiuJk3eoYED+4ulTytb1vnHRFzsho0dwRVh34LGjZuJJXJRvorFEoC9AGbMmCWWQg0oj5WLMLlXMfWqHvvx3r37OsmcR6ITPQTUako4gumCNh5H9DE4wjXt27dPbliIVZ3U+WC4ICxBi2+uuoQ27MKG2Ybqi5mGawpuQzZP582bt0BamRo2rC83zrMKJAEbDDq5F7AGwc0JczBUmwpnPAO4bvMemNeKPFieTIJFCa5VaiM4u7AG7Nq37yh3WMdcoGTJkmumGliHJcEC9McfB+S8Bm+ejdDqW69e3aWAg/r27z8gJtcvslSNCeF4Zz777NP/LGCubNwf7HczdOhX8rm0nCQiprCB5Yhv3LhhL+Jz3Jc+YYGAihXLyzZjxYrlc9t8IiPACDACjAAjwAhEHgSiZc+VxyNHd+LoEbFDttoZ23pB0LbnypVTTqi9fPmqmMR6KUgNMDZky5Qpo9h3Ir7c1A6aYwgWkY2wuRs071iZ6+zZs0Fec3hcm7KCBKWNj+j3AoIgBE48H2EtbITVPYOAtnv3do/NYdPI1q3becxDIp7BXLlyyPlSx4WVLKh7vX37VrncMM6bNWu2dK1DOLTJ2z5hCWFsMOmJGjVqRr//vs9TFqcxAowAI8AIMAKMQCRGwGvLhnmNYHCOHPnTTAoyDA2sfZ5CkCdE0Ey1oV8E7V6QjKfqc0S/FxAwgmKg1XVE5uOzZx7le3lJ5oR5T9eIZ9Cb5xBzoMw9bELLhSokfcKcrsAoqt/zwK6b0xkBRoARYAQYgaiOgE/CRlQHha+PEfAnAnfu3BG7plf2uPHgjRs3Q6VpNXcHlUGA27UrdOZrhKRzX3/9Df3wg+eld8NrBbKQXA+fywgwAowAI8AIMALBI8DCRvAYcQlGINQRwDwWfxLmnmAZahDm0mDOR3jT3bt3CT8mRoARYAQYAUaAEXhxEGBh48W513ylLxACcEvCfjdMjAAjwAgwAowAI8AIhCcC1o0FwrMn3DYjwAgwAowAI8AIMAKMACPACEQpBFjYiFK3ky+GEWAEGAFGgBFgBBgBRoARiDgIhIkbFXb/7t//Q7FkZy6xD8NvYkfkvnT7trOdqiMCZL1795Q7dWMfijFjxondrpdHhG5xH0IRAWwkOG/eHLnPiL3alStXEyY5R1VauHAuedrUcevWbTR48NCoetl8XYwAI8AIMAKMACPgRwTCRNh47732VLhwIXkZ5cuXo2rV3hQM3QK3y2revKnYiyOBWzp8zw8ePOSWnidPbipbtoxbOjaKmznzf6G6TwMEpXbt2ui2Pvzwg3ATNpzipDvNgWARwGaGuXO/7LFc1qyZPaZHlUQoBTxtqnnhwsWocol8HYwAI8AIMAKMACMQxgiEibCBzfxMCmxNfexOjk3d7JQwYQKPwgZ2I+7WrYu9uIzPmTNXrsKjMiHEDB06mGLGtF7y9evX6OjR43Ln5qA2FUuY0HoNT548VVWH+dEpTmHewSjU4IMHD+nff/+VV3T58hWPV5YiRXLq3Lkj5c//utjbIrkUcvft+4MWLlxEW7f+4vEcfyf60qczZ85qywbOZ2IEGAFGgBFgBBgBRiCkCFg575DWFsj5U6dOI1ghQNgMEO4oYU3Ytblq1cpBNrt48U9yl2VPy3Pu33+Q1q/fQIUKFaSHDx/R6NFfB1kXZ0YNBBo1ahrkBpY5c+agSZMmUPr06SwXnDZtGvm8wf0Iu3eHJfnapypVqutufvBBT2rfPsCSpzM4wAgwAowAI8AIMAKMgAMEwkTY2LbtVype3N3dyd7P+vUbCzcqlwXh888Hkbkxmb0s4nPmzKM9e36TWQULFqTu3bt6KuZ1Wt26deSuy+3adXQ758mTJ9SpUze39PBIcIpTePQxtNtMlSoVjR07kmbMmEVr1qwLVRe5kPQV1jK7oKHqg0sSrFA7duykY8eOq2S/HyNin/x+0dwAI8AIMAKMACPACERIBLwSNqpVq0px48aVF7B8+UpKlCgRFStWRMbPnj0nXZxKlChOadKklmnbtv1C8eLFk1YA+1XfvXuP1q5dZ0+W8QMHDur0y5cvBytsXL9+XTByu+Q52CXZCU2cOInQ9wIF8lO9em9r96033igr+/3bb3tldbCGxI/vEoDM+iHk4PzAKH369FSlSkXKmDGjnGx8+vQZOnToMP3663bLKSlTpqTSpUvKtDtiZ+nNm7fKPkE7DQyPHj1KENaePXumz3OKkzoxSZIkVLky+pRBXtOlS5fFhP29BJcfkzAPJnnyZDIJ/d6793edjQnEqEMRGP979+6pqN+OcKWDVQk/zN8ZMWK0G5Z+azyQijEPKW/e13TuihUr5URqzEsaPPgznd6yZQsaMOBjHfdnICL2yZ/Xy3UzAowAI8AIMAKMQMRGwCthY8yYkZoZB3OaL19eGjXqK3llW7ZspbZt36NevbrLdCR+9NEnlCpVSo/zKZ4+fSZcqvKGOypg+iGoLFiwSDKt6nrQsaZNG0smHOGvvx6trx1xRWPEalTjx09UUcsRzGWfPr3c5oeg0KpVa8TKXAP1TspvvFGGvvzyc3n+w4cPZbslS5aw1Ie+du78vj7HkullBFabTz75SAow5ikQ0n74YR4NGzaC7t+/L7M+/ngAZcqUUYb/+uso1ar1tj6lXLmyouyXOn7q1N9uworO9FMAE5mnT59C27fvoK++GuVxPo+fmrZUW6NGNR2H612/fgMJixPgmcJiAlmyuCaU16xZPcyEjYjYJw0SBxgBRoARYAQYAUbghUPAq302Tp8+rYFJkyYNZcuWTcezZcsqw6lTp9Jpf/75lw5HhgCsNZhLoig49y1VztMRFom+fXt7FDRQHlaiOnVqezqV4sSJQ3ZBAwWR1qZNK4/neJOI1ZUg0MBSYidMyIdwVatWDZ21Zs1aHX755VyUOrXLYoVEc/UvWJ/++GO/LuvPAObJQBgzCda0xYvnS4Ewa1bXc2jm+ztsuk9t2bJNChqwaEEQUoIG+gDckyZN6u/uyPojYp/C5MK5EUaAEWAEGAFGgBGIkAh4JWwcPHhYdx6uUtmyZdHxdOnSSWYqRYqUMg0rTUEbvmTJMqHd7yd/U6Z8r8tH1ICa+4H+gWFU1KVLd30dWK0nOHr99XyW5UPfe68z1a3b0KL9L126VKDVgKFGX/bu3WcpU79+XUvcSQSuYWpJU9yfL74YIq6pP5lLmsL1R9GyZStUUB6VgIE6ypYtrfNgpYFlBMz0Sy+9FOwPblyKvCmPMhDAQOfPn6fy5SsT3N9u3bqtqpHHN9+sIhYdWCpclwZZBCNLIT9EIHgrgkDerFkTWrHiJ48CIyaMhwVFxD6FxXVzG4wAI8AIMAKMACMQMRHwyo0KcwTgCgJyCRsBlg0woEWKFKYYMVxyy9Gjx6QGGvMZ8APB7apt29YyHFH/Yf6HIsxXgMYfjPS6detVssRAuRfpRFvArn0How/LSbduPfSyojdv3rSdFRCFCxoENRBcuxTusByB8bbXH3Bm4KH58xfqifS3b9+Wk5VRF/aN6NixgzwxV66cuoI/hWXqxImTlD276z6XK1dGuAYtpFdffYWSJXPN5UBhtarYtGlTqGDB/Pr8oAIVK1YVLlqZaNq0yUEV03k//bRUCntI+OefawKTsULgmEyNGjWgVq3e1fOE8Pw1aFBfCiLDh4/U5/szgGVuFWEvmaAoRYqAskGVC2leROxTSK+Jz2cEGAFGgBFgBBiByIuAS0IIpv+Y2Kwobdq0FhcRpJcsWVxlh5v/vO6AjwFz52Rozp1OOFfNmpO3kdakSSOaPXsGbdq0Xs51yJAhg2SaVXnziBWv1q/fqJNgOVAE4cdXV5wbN25IIQUM+sSJ34p79DsdOLBXCxqqDfNoWjfgxhUzZkzC/BJF589f0Naa2LFjqeRgj7FixSL8vCVPdWNC+rRpM4Rw0YQuXrzkbVWhXu7uXdf+G/aKIRQNGTLMknznjueylkKhEImIfQqFy+IqGAFGgBFgBBgBRiCSIuCVsHH48BHNfBcokF+vTIV0EHznFZmCiUqLDEelxUdf4bLjK/3992nJaEJwMAkWIKxcNGnSeOratbOZpcNYqcvc4+PKlSs6LySBypUriQ3m5sq5IliJCrtkB0dYWUkRNkQsVKiAEDbKqiQx0X21Dl+9epXATAf3gxCHSeiwrgRXVuVfuxZgcVIN4ho+/XSgsDqtIrt7kq9CoqrbydGToLN06XIxL6eWEMSsc1kuXQoboSgi9skJplyWEWAEGAFGgBFgBKIWAl65UWEHZfikZ8mShV55JY9EAEwNVqJCXG3YhwwsSxrZCK5Ral4C+n7hwoUQXcK0aTMFNtuoevU3xTK2BcTvdbF/SAJdZ4MG9WjcuG91XAUSJ05E6dKl1XMpTFxR5tkz33Yt79ats56zAeZ90aIf5Y7pDRrUtQgQqh84YslbWGnU0q516rylw8hXLlQId+jgWXhCnifCs1OoUDFPWUGmwY2rXbvWYrO8qtptT50AQWby5Ck0c+ZsleT3I5YONgnze9SyzmXKBMxtwQpsV6/+YxaV4fr161LFihVk+PnzZ3I1q1u3brmVc5IQ0j45aYvLMgKMACPACDACjAAjEBwCXlk2UMmBA1Yh4uDBg25p0ObD3z+yENySMDF61qzpmhlH31evDliNyem1wIqAJWabN28q5w+0bt1OWH7K0oYNAe5RmPeCvUrsBFcpTDKOESMGQfCoW7eOLvLo0SPypOXXBYIIZM7sWoIVRVauXCX2qBgl3Lo2i31MAtI9nW66UmEvElhnQBBEwlqoxOpOP/64QAhw1SyCBpaa/e67KYJpryKsRlPlilCersUfadu377RUq6wsEBjhPqdo9+49hIn5dqpSpZLod/n/fhXkfbeXcRoPaZ+ctsflGQFGgBFgBBgBRoARCAoBrywbqADMpbk8KlaoOnTIKoAcO3acwBSDWrVqoa0F2LhOESbympODBw4cROfOnZObyA0fPlQwtNFk0YIFC6hThG9+PcLeCiDs8/HNNxNk2GwDc0lMmjp1kmDwXK5MaMNuFZg5c5pZXIdPnjwlJ3QjARPFzT5hwzRFEAqKFHHFzT5hNSrkKcI5mBCeP3/ABGosGXvnzh1VxHLE/gyNGzcSk8FjW9ydMPEeG/vZ++QNTrBKYQlbECZRw4qDid6JEiW0tG2PwHqBZXyVkKHyTRcqlebvo70PEGyxnwWeBbhxhQfB1ax37x6knu8BA/qKe99YrsplrryF+SWeKFcu1z1B3vHjJ8hcpMBTeW/SQtonb9rgMowAI8AIMAKMACPACHiLgNfChn0uBiwbWDoVDJJaocjUdsN9qFQp187Y9s6Y6VhlCcIG6ihTxvOSsMhT55hMZ1BtFC/+f/a+Azyqont//NO7FOliAhIEP4RQJCItYKiiVCnyUwHpiCAiXSkCoUgXkMAXAUGRjgLSVEjoRZoCAQwovUrv+J939pvJ3Lt3N3eT3U0I5zzPcqeX997wzJnTXlbTYo4zZ86ovKsEXNv27PmJitbtbk3PPJOLHzJziaH0NS1ZspS9+24r5bIVblnNBDUrVwSGwooJmDp1uujibk2ucIJURTIb6dOnizcyu1wbbEa2b9/JdCxR9+OPq2QTvz9hkwHpzPjxk4SExe8L0Ca8f/++CIY4cuQIJW2BqqFOGzZsFFIkvQxpSLYgAZG0bdt2mUzUMzFrStTE1JkQIAQIAUKAECAECAELBGwzGzAGx0EPqj4gGXsDTxl7QWdI4DHIDsFgGAR1GBy09YO7Vf9btxztUefJHJC4QJUFKko6gVmC1GDv3v0ihsNNHglaUkLWBJexjRs3Z0OGfMalMSUM0glINBAnYu7c7+QUTs8RI0axzp07iNtxVEKHH65cpQvehKxp4sQvWcaMGUXwvlSpUgvpEdY5f/4CHtm6j1jD7dvW72vduvUGZgP9YmJinNbt64LLl69wI/fFXOVtriEAo6/n7dmzu/J4tW/ffiFN0eeEQTgkV0OGDDIwD/iu4XI4PHy0cq6g99NdDaPcW8wGxkrImuBtrG/fT9T3GhJSAUMREQKEACFACBAChAAhkCgEnioSVPxfqxGOxRxkRYuWsKqiMpsIgLFBNHIYh0OyApeoZoKRMKJ7SwoKelEc+GCjAMYHLma9RThQZs2aVTBddgyRYTcyYcJYJVXCOkaPHssNsWd6a0nJbpxs2bKyHTu2WK4rOnozgw2OK8qdOzcLCnpeGINDLcrKTkP2bdmyOYNHLRCY+JCQygwuir1NdteUmH17e800HiFACBAChAAhQAikHARsSzZSzpb9txMcNmED4ilBCgNpi7cJdg527QImT57AwsJqKEkW1gJJ0vz533t7WclqvEePLHlvsUaz3Y954VA7s+uuWJdsHDlyxCeMBtZnd02J2bcZB8oTAoQAIUAIEAKEACEgESBmQyJBTwMCkKxIlTlU4Pa9T5/+PEaGtWG7ofNjnIHhfmhomGXgwStXXEd+93TLkHhJ2rrVO/YacryEPP2174SsjfoQAoQAIUAIEAKEwOOLADEbSfzu9u07wG04vhWrsGuD4o8lw8MTJCywoYmNjWWzZn2jIob7Y/6knMObqmuu9jFkyHBl43Hs2DFXzfxa7o99+3VDNBkhQAgQAoQAIUAIJDkCZLOR5K+AFkAIEAKEACFACBAChAAhQAikTARsB/VLmdunXREChAAhQAgQAoQAIUAIEAKEgK8QIGbDV8jSuIQAIUAIEAKEACFACBAChMATjgDZbDzhHwBt3/8IZMiQnnv1mqdiWugrQNT2iRMn60UpJt2gwRusY8f2TvuB84FOnbqy48dPONVRASFACBAChAAhQAg83ggkK2ajVauWIiaFGdJNmzbzIIK/m4tZ8eIv8ICClZ3KEfhu9uxvLIOpOTWmAkLAzwikTZuWvfBCMctZAwOfsyxPCYUFCuRnhQsHWm4le/bsxGxYIkOFhAAhQAgQAoTA441AsmI2Bg7sZ3C3KqHNnDmTJbNRo0Yo69atq2xmeM6b9x27f/++oeyZZ55hgwcP5HO41x774otxDEHZ/EWINo61uSNEEYdXKJ3q1KnF8ubNK4rWrFnr1QCA+jyepCtUKM/ee+9d1QWR5ydN+lLlzYm8efOwOnVqi+Lz5y+wFStWmpuk+PydO3fZjRs3xD7PnTtvud9cuXKyLl06sdKlS7GcOXMKRnrPnr08qvoiFhW1ybKPPwpz5MjBunf/QH2/+EbxrVoRglrKwJapUv0/BgaDiBAgBAgBQoAQIARSNgLJitnwNdR58uRmr71WI95pcIDzJ7NRu3ZN9vTTT7td17ffzndiNrp378YCAwNEv3/++YctWbJMpJPynzfffIOBCZT0yisV2FdfRQg3urJMf5YtW5b17fuJKDp16tQTyWw0a9aSHTx4SIfFkC5a9Hk2ffpUBsmATvny5WW1aoWxYcPC2Zw5c/Uqv6TB7H722QAGhkNSbGygS2Zj/vwFXH1sgWiaLl06tn//btmNnoQAIUAIEAKEACGQQhFIVsxGkybNuRpVRgH10KGDmR74zAr/efPms507d4mqMmXKiBtWq3ZU5h8EEASwWrWqhskyZszIIO1Iytt3w4LcZD74oDPLnTs3l8RMsR0J3M1wXqsKDx/mxGjIwREHBRLBrVu3sSNHjspinz6zZs3ChgwZxOrWdUikfDoZDU4IEAKEACFACBACjzUCHjMbuIF/7bXqQvc6V65c7NKlS1zF6Q8GNR6z2hKQgTEsDqDPP/88V//Iwc6cOctc2WDs339AgXnu3Ll4mY3Lly/zQ5Yj+jKMTD2lMWPG8gOas7rUtm3OEZ0rVnxF6Nk/+2xBHkX7GpcyHGc//bSGwT5EUqpUqVi9enUYnjqtX/8zD46XijVr1oRLIgJFoLzDh2PYzJmRolmHDl1Y1qxZhQrZ9OlTVNfvvvuerV//i8hv375DPAsUKMAKFXpWpPUb5ZdeKsnOnj2n+gJLqZojC+28CzAMUGtKly4tV3m5yM6du8Dq16/Hx7rOVXYWC6Pmhg0biAjb8+d/b5gTa4C6j5mqVw81MBuY4+WXywlMSpd+STWHWs0rr4SoPKQ17m78VUMvJYoUKcwP0HUYpDOw+YmImMGuXr3mpdETNky5cmVZyZL/UZ2hZgZJRmhoNf4cosrfe+8d1r//pyrvywTeMzEavkSYxiYECAFCgBAgBFIOAh4xG1BBGjZssKWuNQ7f77/fgf3990mFTkjIy2zECOdbWaj/wOMO1GsePXqk2vs7sWFDFMOh3x3lz5+Pq4WM4Ifj8k7N2rVry6UpPdWNMuwnxowZ6dRuwIDP2IcfQq89l6qD5x3JbPz22x5RjkO4Trt372EbNmzUi9hHH30oDv+GQp55++0W4ifL+/UbKJgDmbf7LjJlysTGjx8jut2+fVvYBkA6AXr11YpCNx+HclDbtq05LhUVw1W9ejVe6kxgNgcP/lxVQGI1Z87XKi8TmGfWrJkyKxjTqlXjV3tTHbyUSJ8+HWvfvi1r3vwtwXAgerrOVHppGlvDgHmVdPPmTa5yNlCsZcGCRQzfX0DAc6L69dfr+o3ZkOvBc+nSZVwKdFHgpZdTmhAgBAgBQoAQIAQIASDg3lJawwjqJWPGhFsyGmgWGBjARo+OO2jD4HnSpPGW6h8wDu3Roxs/gPrnJhbrSwjh8D96dLglo4HxoEu/aNH37MUXS/xveGvpSqdO7Q2MRkLWkpg+CX0XGTJkYJLRwPwhIRWYZDSQx6G8XLkySAqCBEPSV1/NkEnxDRQrFqTyyTVhlmJAXahnzx5s3bpVgvEwS6z8sQ/dTmPjxmjBaEC69fXXMxSjgXXgXcVn9+Ot9d66dVswgu3bd2affNKPS/quemtoGocQIAQIAUKAECAEUhgCtiUb77zTynDw/P77hWzXrt2sadPG/MBZVsBSpkxpBjUjSDfQPlu2bKL84cOH/IZ4Ji8/xRo2fEO1b9y4IRs3biKDOlRS0Lvv/p9BEoM1QO993br1YjlQ6SlfvpxaGuqiozczGObWrPmaUIfCgbtNm/f4ofQT4Q3qjTcasdSpU/Ob+0jlxheHQxBux+FtCOpPZhUnNUk8CagyxcQcEa3gnQjzg6Czv2nTFpHGP1LtCmlP3sW9e/fQRRFu0Bs2fFPsCYVbtmzlzEOcKtdzzz0nMIEESGcooIbUtGkjZTwMtR8pRYK61+jRYwV++GZQJ+mLL8bLJLtw4YJK4zCdPn16lXeVgKTs6lXH4deut6Nbt26xu3fvcmPnIeznn3/lEoM2BgYTjDY8huE9jx8/ia1cucrV9F4vl97GMPCJEyeE9KpXr48Mf4tyUnyXUD3zNe3e/Rt/Z2FJKpX09R5pfEKAECAECAFCgBDwDgK2mY3nny+iZoQ9BVSDQDjUrl69Qh1GcTgCs1Gcx8CQBPuB6dMd6jFHjx7lHmkcnnNwKMe427cnDbPRpEkjuUT13LZth2I29FgIsAlp3bqdMhyGug+YEVCcZIOxQ4cOizLckkMlSdKECZPYjBmR4lCLsoTekuOwjx+oUaMGyhvV6tVr2dy534py8z+evAu4qpWE9wg7ALyj4ODSonjIkGHcA1JNJ2P80NCqsptg2MAoAEt4LAJVr16NTZs2HUnBdIH5BNWrV1cxG1euXBGqdaLC9E9k5AwGxsQO1ahRi9u1FGKRkRF2mnNVoOX8hr6vaAu1NfxKlXpJqCnBPglG2CCoLEHF7JdffmG3b98RZb7+B25uJVkFxJN1eFrZy+j13kwnpfqjN/dBYxEChAAhQAgQAoSAbxGwzWwULBjndlMaZWNpp06dZv/5T7DTKhE/QRJiA+zevU1mDU8YjSdXwm29pH379itGA2Vr1qxTzIZ+IJTt9eeqVavZl19O04sYpD3+ooS+i+vXr4slwnZD0vXrN/hB+5bMqmdoaJwKFfrhsK7bOcCoGO/60qWEMZZp06ZRc8WXSJMmjTBgj6+drLcae+/efaxr1w+FVGjAAAcjItv783nz5g1LFTzEq4ABe9++vdVy8G6ICAFCgBAgBAgBQoAQSE4I2GY24E1J0smTp2TysX5+/fVsp6jFMHS3InjR0unsWWNerzOno6M3mYtSVB52HTBAl1SmTDBbsMAoZYF0AIbiixYtkc08ekJSYucwjRt3MEfwGGanPRZhZoAgdarL3brCAFuXbnm0YC81xncXEBBgGG358h/Z0KHDnaJxe/JNGgakDCFACBAChAAhQAgQAj5CwDazAb12SWXLGiUZVapUUmpUUPGBionuBhd68F9/PUt2Nzxxg5xUhIOvtCOwWsODBw9UcXBwKeGaVrrYDQ6Ow0Dfq+qgJZL6EKivL753kSqV7U9C7RBeqtKmTavyrhLVq1dLMLMB98CeEA7pZctW8KSLcNPcpEljbpvxrrBLMXfevHkLd5Iwzm8qVJhfd2eMfNeu3YWbaaQrV66Eh6CHDx9xG5eLMiuecHU8dqzDsxgKoqKi2bx53xnaUIYQIAQIAUKAECAECAFfImD7ZPnXX38zqMKAoL8PN6443FSqVJHbInyl1gi7BsTROH36tLJlgAej7dt3CoPSLFmycP34nupwinFv3z6j+ienxOnTcevKkycPq1q1Cvv11w3C8B2RmyUdO/anTFo+JYNiWZmIQl0VC6pqrmw2PHkX1645VKc8WVb16tVUc6jVIeaKpAoVXmYlShQXWcmU6Ebojx7FqZPBoQDsIuAWOCno88+HWLoVhs0RmAxpK+PPtW3Zsk0Y6Ms5YQQOgopfixbNZDHbsWOnk2pekSJFDNHck5rpVYulBCFACBAChAAhQAg8MQjYZjZw0IIvf1C6dOnYsmWL2V9//cXtNV5UYOF2FbYNIBySwsJeE2nEVfj55zXcYHi7YFh096lTpzqMhqHPP2pUODfGfUr0gSqOJHi8kvPAA9bkyVNFVevW77AqVSqLdL58cfYVKJg5czo/fDkkEwMHDmYnT54U7Tz5Z+PGaMEgSQNhBNz7889YftDLr7xAYbzt2+OCAHbq1IF7YMouPFbJuRCPAowKCN6kzNKU9etXi8MjY469y36jRg3ncUqGiuz//V9rFS1d1uP2HsbboDffrM/AcJw48ReDRAZqNqdOOdTdPHsXnjEbcA8s94Z1wFMTPE1JghH+8OGOPUDdyhxNXFdPA87Lly/h39A+bkh/T3jYkobkcjxfPuGSWSe863HjJnAHCHHMk17vjzSC+PXq1UPEN8F8/fv34R6pmgsX1NLbG8ojI50lh7p3MLSxClaJck8Jf4sREdO4pM/RUw8uGRgYwN9blBoyPHyMiMWhCihBCBAChAAhQAgQAk8UAraZjcWLlwpjWXmAyZUrp5P3m//+N5LryTsOq3CZikBzkrHATSxcqOq0bNkP/Bb7uCjCgaVy5Vf1apVGHW7FQfLgjzRUmWQ58jrpNgR58uROELOBtcE1L2KCyHkLFw7UpxHrj4j4rypr0+Y9LvnIqvJIYI1ynUePHnNiNrJkyezSO5X0WqXHu5CDr127zoAZmDr8QLBHkcyGJ+8ic+bMcnhbT7xXfAuSzLf/ujMBtEEsjqioOBsWeO+C1yu4TAbBla8MoAg1IH8yG2IB/B8wQJMnT2H45nXpkaz35xMqcCNHjuG/EfwbkV6xAgxLgPcsSNzMJP9WUQ7pGryDeYMQ7d6dYwed+QDjTUQIEAKEACFACBACTy4CtpkNHLpatPg/NnBgP+76NMzg5x+GuIiGjYjgkhC3oHnzt7mLXLSvaZAEIBbArFlzuCvUuPbwXATjXnmol+OYnwgoJkm3I5FlVk/pTQlPHLpwG48n1hgfYU979uwRAQvh1Un2xyEQzBJu8XWvS5jDzGzoc8i16GXYU3wB2az6zZ+/QEiZ3nqriQicZ2RI4gIMevIuIA2CmhNsMOScEmd8A9i3/g70vaIOkiedIFGCapUMTmdm1oBd+/adRIR12ALlyJFTHaqBtT8JEqC9e/cLuwY734a31tazZ3fB4GC8ffv2c+P6RYahYRCOv5khQwb9TwLmqMb7Qbyb8PDR4rs0dOIZndlAjJgrV66YmyQoL78HO531tnAQUKNGqOgGj2FEhAAhQAgQAoQAIZDyEXiqSFBxyxPdsZiDPEK2jIxtBAK37UFBRYVB7blzF7gR61m3N8AIyFao0LM87kRGEdQON8ePo59+BHfDzTs8c/39999u92xEzD85KQVxdxuf3N8FGEEwnPg+/M1s+OctMcGM7tixxXI6BI1s06adZR0K8Q0GBT0v7KWOcimZu3e9ZUuUkkDMmTNXqNa5HNgPFXAhjACTVtSs2dvst9/2WFVRGSFACBAChAAhQAg8xgjYlmzoe8QB5+DBQ3qR2zRuYM12Cm47JNPK8+fPJ9OVOZbl7uApF57c3wUYDDv7kPt5HJ+PHlny92IrusG81d7wDdr5DqHmpKs6eUuFympNdstg0+WKUvo7d7VvKicECAFCgBAgBFI6AgliNlI6KLQ/QsCXCFy/fp1HTQ+zDDx45co/Xpla2u5gMDBw27d7x14jMYubOHEy+/Zba9e7SeWBLDH7ob6EACFACBAChAAhED8CxGzEjxG1IAS8jgDsWHxJsD2BG2oQbGlg85HUdPPmTYYfESFACBAChAAhQAg8OQgQs/HkvGva6ROEANSSEO+GiBAgBAgBQoAQIAQIgaREwBhYIClXQnMTAoQAIUAIEAKEACFACBAChECKQoCYjRT1OmkzhAAhQAgQAoQAIUAIEAKEQPJBwC9qVIg43K9fb+6yM4jHYdjFIyL3YdeueRapOjlA1qvXRyJSN+JQjB8/iUe7/jE5LIvW4EUEEDjyjmgAAEAASURBVEhw/vx5Is6IediVK39iMHJOqbRw4XfMKqhjVFQ0GzYsPKVum/ZFCBAChAAhQAgQAj5EwC/MRseO7Vm5cmXFNkJDq7E6dWrzA90Cp221atWSx+LI5FQO3fMDB353Ki9e/AVWpUplp3IEips9+xuvxmkAo9SuXVs1V+/eHycZs+EpTmrRlIgXAQQzfOGFYpbtAgOfsyxPKYW4FLAKqnn69JmUskXaByFACBAChAAhQAj4GQG/MBsI5qeTK5/6iE6OoG5mypw5kyWzgWjE3bp1NTcX+XnzvhNeeGQlmJjw8GEsdWrjli9fvsRiYo6KyM3ugoplzmzcw4MHD+XQfn96ipPfF5iCJrxz5y67ceOG2NG5c9ZxVnLlysm6dOnESpcuxWNb5BRM7p49e9nChYtYVNSmJEMjR44crHv3D9gzzzwj1hAbG8tGjfrC5Xr++utvJdnAnogIAUKAECAECAFCgBBILALGk3diR3PRf+bMSAYpBAjBAKGO4m/Kli0rq1UrzO20ixcvFVGWrdxz7tt3gK1bt56VLVuG3b17j40bN9HtWFSZMhBo1qyl2wCWRYs+z6ZPn8oKFMhv2HC+fHnF9wb1I0Tv9jfVqVOLffbZAAaGQ1JsbKBbZqNmzbqyKfv4449Y+/ZxkjxVQQlCgBAgBAgBQoAQIAQ8QMAvzEZ09GYWEuKs7mReZ5MmzbkalUOCMHToYKYHJjO3RX7evPls585doqpMmTLiFteqnd2yRo0aiKjL7dp1cury4MED1rlzN6fypCjwFKekWKO358ydOzebMOELNmvWHLZ69VqvqsglZq2QlpkZDTkeVJIghdq6dRs7cuSoLPbpM2vWLGzIkEGsbt3aPp2HBicECAFCgBAgBAgBQsAOAraYDdySpk+fXoz3448rWZYsWViFCuVF/u+/TwoVp1deCWF58+YRZdHRm1iGDBmEFMC8iJs3b7E1a9aai0V+//4DqvzcuXPxMhuXL1/mB7ntog+iJHtC06ZNZ1h7cHBp1rhxQ6W+VbVqFbHuXbt2i+EgDcmY0cEA6eODyUF/V1SgQAFWs2YN9uyzzwpj4xMn/mK///4H27x5i6ELVFwqVaooyhBZesOGKLEm3JgDw5iYGAZm7dGjR6qfpzjJjtmyZWNhYVhTQbGns2fPcYP93QwqPzrBDiZnTseNONa9e/dvqhoGxBhDEg7+t27dklmfPaFKB6kSfrDfGTNmnBOWPpvcxcCwQypZ8j+qdsWKlcKQGnZJw4YNUeXvvfcO69//U5X3ZeKll0oSo+FLgGlsQoAQIAQIAUKAEPAIAVvMxvjxX6jDOA6nONCMHTtaTLRxYxR7//2OrGfP7qIchQMGfMZy537G0p7i4cNHXKWqpEeL9EVjHPrBqCxYsEgcWuV+MFfLls3FIRzpiRPHqb0jLwneqKZMmSazhicOl5980tPJPgSNVq1azT1zDVSRlKtWrcyGDx8q+t+9e1fMW7HiK4bxsNYuXT5UfQyVNjOQ2kCtBgyMTmDSvv12Phs5cgy7ffu2qPr00/6sUKFnRfrw4RhWv35D1aVatSq87XCVj4097sSsqEofJWDI/PXXM9iWLVvZ6NFjLe15fDS1Ydh69eqoPFTv+vYdyOCcAN8UnAkEBDgMyl9/va7fmA21IJ5YunQZO3/+IqlD6aBQmhAgBAgBQoAQIAT8ioCtOBsnTpxQi8qbNy8rXLiwyhcuHCjSefLkVmWHDh1W6cchAWkNbEkkxae+JdtZPSGR6NOnlyWjgfaQEjVo8IZVV5YuXTpmZjTQEGVt27a27GOnEN6VwNCYGQ30hUE+mKv69eupoVavXqPSxYoFsTx5HBIrFOrevyB92rt3n2rrywTsZMCM6QRp2uLF3wuGMDDQ8R3q9b5O6+pTGzdGC0YDEi0wQpLRwBqA+9NPP+3r5Yjxb926zc6cOcsZjM6c4e3HXUxf9cu8NAkhQAgQAoQAIUAIEAJWCNhiNg4c+EP1hapU4cIBKp8/f35xmMqVy+HxBp6mcBu+bNkP/LDTV/xmzPivap9cE9L2A+vDgVFS167d1T7grSc+KlXqJYP70I4du7BGjd4y3P5XqvSqy2FwoMZadu/eY2jTpEkjQ96TDFTDpEtTvJ/PPx8hDqK6S1Oo/kj64YcVMimeksHAGFWqVFJ1kNJAMoLDdPbs2eP9QY1Lkp32aAMGDHTq1CkWGhrGoP529eo1OYx41q5dkzsdWM5VlwYbGCNDIx9kwHhLAkP+9tst2IoVSy0ZRhiM+4Og8gacfv11gz+mozkIAUKAECAECAFCgBBwi4AtNSrYCEAVBORgNuIkGziAli9fjqVK5eBbYmKOiBto2DPgB4La1fvvtxHp5PoP7D8kwV4BN/44SK9du04WCwykepEqNCXMt+846ENy0q1bD+VW9J9//jH1istCBQ2MGgiqXRJ3SI5w8DaPH9fTder77xcqQ/pr164JY2WMhbgRnTp1EB2DgoqqAQ5xydSxY3+yIkUc77latcpcNWghe/HFEgbvRtKrWGTkDFamTGnV312iRo1aXEWrEIuMjHDXTNUtXbpcMHsouHjxEsdkAmc4IlizZk1Z69bvKjshfH9NmzYRjIg7965qYC8k4OZWEmLJuKNcueLaumvnjTrdvscb49EYhAAhQAgQAoQAIUAIJBQBB4cQT28YNkvKly+fQUUE5RUrhsjqJNOfVwtIYEKPnIybc08NzuW0uvE2ylq0aMbmzp3Fb5rXCVuHggULikOzbK8/4fFq3bqfVREkB5LA/CRUFefKlSuCScEBfdq0L/k7+o3t379bMRpyDv2pSzegxpU6dWoG+xJJp06dVtKatGnTyOJ4n2nSpGH42SWrsWGQHhk5izMXLYTKkN2xvN3u5k1H/A3zuGCKRowYaSi+ft26raERZQgBQoAQIAQIAUKAEEhhCNhiNv7446A6fAcHl1aeqVAOgu68JJ0xkWWPw1Pe4mOtUNlJKB0/fkIcNME46AQJEDwXTZ8+hX3wQRe9SqXhqUuP8XH+/HlVl5hEWNhrPMDcd8JWBJ6oECU7PoJnJUkIiFi2bDBnNqrIIm7o/pNKX7hwgeEwHd8PTByM0CFdia+trL90KU7iJCfEHgYNGsilTquYWT0poUyiHNuTJ2wjzLR8+Y/cLqc+Z8SMtixnzzq3NfelPCFACBAChAAhQAgQAikNAVtqVIigDJ30gIAAVqJEcYEBDlrwRIW8DNiHCrglfdwIqlHSLgFrP336dKK2EBk5m2MTLVyQBgcHc1e2pXj8kExqzKZNG7NJk75UeZlAjIT8+fPx+c+IIh1XFDx6lLCo5d26dVE2Gzi8L1q0RERMb9q0kYGBkOvAEy5vIaWRrl0bNHhTpVEvVaiQ7tDBmnlCnRXh2ylbtoJVldsyqHG1a9eGB8urpdT2ZAcwMhERM9js2XNlkc+fcB2sE+x7pFvnypXjbFvgge3ChYt6U5Fu0qQRq1Gjukj/++8j4c3q6lUy6HYCigoIAUKAECAECAFC4LFFwJZkA7vbv9/IRBw4cMCpDLf50Pd/XAhqSTCMnjPna3UYx9p/+inOG5One4EUAS5mW7VqKewH2rRpxyU/Vdj69XHqUbB7QawSM0FVCkbGqVKlYmA8GjVqoJrcu3ePWd3yqwZuEs8953DBiiYrV67iMSrGCgNivdyqu65KhVgkkM6AwIj4m6mEd6clSxZwBq6OgdGAq9mvvprBD+01udRopvAIZbUXX5Rt2bLNMKyUsoBhhPqcpB07djIY5pupZs3X+LpD//erLt67uQ3lCQFCgBAgBAgBQoAQeJwRsCXZwAZxuNTdo8JD1e+/GxmQI0eOMhyKQa1bv6OkBQhcJwmGvLpx8MCBg9nJkydFELlRo8L5gfYp0bRMmWDZhevmN2aIrQBCnI/Jk6eKtD4HbEl0mjlzOj/gOVSZMIdZKjB7dqTeXKX//DNWGHSjAIbi+poQxE0SmILy5R15fU3wRoU6SegDg/DSpeMMqOEy9vr167KJ4Yn4DM2bN+PG4GkN6k4wvIfhr3lNdnCCVAoubEEwooYUJ0eOHJzhyWyY25yB9AJufCWTIet1FSpZ5uuneQ1gbBHPAt8C1LiSgqBq1qtXDya/7/79+/B331x45dI9b8G+xIqCghzvBHVHjx5jupMCq/Z2yvB3EhExjTs4cLTGe5YUGBjAY8tEySwLDx8jYnGoAkoQAoQAIUAIEAKEACHgZQRsMxtmWwxINqDugwOSPNDot91QH3r1VUdkbPOa9XJ4WQKzgTEqV7Z2CYs62Uc/dLqbIyTkZTUt5jhzxqGapAotEnBt27PnJypat7s1PfNMLn7IzCVG0de0ZMlS9u67rZTLVrhlNRPUrFwRGAorJmDq1Omii7s1ucIJUhXJbKRPny7eyOxybbAZ2b59J9OxRN2PP66STfz+hE0GpDPjx08SEha/L0Cb8P79+yIY4siRI5S0BaqGOm3YsFFIkfQypCHZggRE0rZt22UyUc+sWbOq6O9WA+EbkZQjR3aZpCchQAgQAoQAIUAIEAI+QcA2swFjcBz0oOoDkrE38JSxF3SGBB6D7BAMhkFQh8FBWz+4W/VH0DJJnswBiQtUWaCipBOYJUgN9u7dL2I43OSRoCUlZE1wGdu4cXM2ZMhnXBpTwiCdgEQDcSLmzv1OTuH0HDFiFOvcuYO4HUcldPjhylW64E3ImiZO/JJlzJhRBO9LlSq1kB5hnfPnL+CRrfuINdy+bf2+1q1bb2A20C8mJsZp3b4uuHz5CjdyX8xV3uYaAjD6et6ePbsrj1f79u0X0hR9ThiEQ3I1ZMggA/OA7xouh8PDRyvnCno/3dUwyr3FbNj9m8Ccelt4G+vb9xP1vYaEVEATIkKAECAECAFCgBAgBBKFwFNFgor/azXCsZiDrGjRElZVVGYTATA2iEYO43BIVuAS1UwwEkZ0b0lBQS+KAx9sFMD4wMWstwgHStx8g+myY4gMu5EJE8YqqRLWMXr0WK6mM9NbS0p242TLlpXt2LHFcl3R0ZsZbHBcUe7cuVlQ0PPCGBxqUcDZFbVs2ZzBoxYITHxISGUGF8VJRYnZd1KtmeYlBAgBQoAQIAQIgeSPgG3JRvLfSvJbIQ6bsAHxlCCFgbTF2wQ7B7t2AZMnT2BhYTWUJAtrwU34/Pnfe3tZyWq8R48seW+xRrPdj3nhUDuz665Yl2wcOXIkSRkN7CMx+zbjQHlCgBAgBAgBQoAQIAQkAsRsSCToaUAAkhWpMocK3L736dOfx8iwNmw3dH6MMzDcDw0Nsww8eOWK68jvnm4ZEi9JW7d6x15DjpeQp7/2nZC1UR9CgBAgBAgBQoAQeHwRIGYjid/dvn0HuA3Ht2IVug59Ei9LeHiChAU2NLGxsWzWrG9UxPCkXpuv5/em6pqrtQ4ZMlzZeBw7dsxVM7+W+2Pfft0QTUYIEAKEACFACBACSY4A2Wwk+SugBRAChAAhQAgQAoQAIUAIEAIpEwHbQf1S5vZpV4QAIUAIEAKEACFACBAChAAh4CsEiNnwFbI0LiFACBAChAAhQAgQAoQAIfCEI+AXmw1ENe7Xrzd3CxrEI4Dv4lGX+6R4Q+OEfle9en3E3nyzvojEjsB1iONA5IwA4eSMSWJKMmRIzz2NzVNxNvSxEEl+4sTJelGKSi9c+B3LnDmz056ioqLZsGHhTuVUQAgQAoQAIUAIEAL2EUg0s5E2bVr2zjutVLA8BDIzxwvo2LE9K1eurFhVaGg1VqdObRFQzu4yK1Qoz0qXLi2aw5WsDHBnt78v2vliTWDG2rVrq5bbu/fHScZstGrVUsQHUYv5X2LTps08oOPv5mK/5pMTTn7duA8nw9/xCy8Us5whMPA5y/KUUojLEKtgoqdPn0kpW6R9EAKEACFACBACSYZAopmNZ555hn3ySU+1gf37D7DNm41B0TJlyqjqkXAX7MzQ8H+ZRo0asoYN3xS53bt/U8xGyZL/4dG2O1p1UWWYq3fvfiJAnir0QsJqTQjeFx4+jCF4nk6XL1/icTOOMkSg/u23PXqVIZ05sxGnBw9cB4UzdPRBZuDAfgbXt3KKzJkzJTmzkZxwkriktOedO3fZjRs3xLbOnTtvub1cuXKyLl068YuAUixnzpzCPfKePXt5pPdFLCpqk2UffxTmyJGDde/+AcP/TSB4Uxs16guXU//1199KsoE9EREChAAhQAgQAoSA9xAwnoq9N65hpJkzI1nx4i+IsoMHDzGoZXiDihQpzGrUCI13qOHDw73ObFhNiijMtWqFWVWpssWLl7KhQ4dbrgducNetW8/Kli3D7t69x8aNm6j6USIOAcIpDgtfpZo1a8nwt+qKihZ9nk2fPpUVKJDf0CRfvrzibwDqR3PmzDXU+SNTp04t9tlnAxgYDkmxsYFumY2aNevKpuzjjz9i7dvHSRdVBSUIAUKAECAECAFCIEEI+IXZiI7ezEJCKidogSmtU6NGDfgtcA6uLtXJaWuI8N25czen8qQoaNKkOVejckhahg4dzPQgdEmxHn3O5ISTvi5fpHPnzs0mTPiCxzmZw1avXiukB76Yx9MxIcEzMxpyDKgkQTK2des2duTIUVns02fWrFnYkCGDWN26tX06Dw1OCBAChAAhQAgQAp4h4BGzAb3uatWqsmLFgoQh6aZNm9jJk6ctZyxU6FlxQ2+uvHnzFluzZq25WOWff74Igz1EgQIFGNQ3PDGQ7tLlQ4aDqE4PHz5gZ86cFUVYe/bsT4v02rXreVC1/OzVV0P4Qfo5vo9T7NdfN7CjR50DrCV0TdOmTWd//32SBQeXZo0bN1RqSVWrVhHY7Nq1W6wF0pCMGY0qVKjYuXOX6C8amf5JlSoVl+pUFxKjPHlys3/++YfBnmXDho08IN9FQ+sqVSoJNRcUbt++kz169JBVrPiKUB25efMm27JlKzMHdIM6nKRz587ZZjbKly/HXnqpJMubNw+7ffs2g4rKihWrRFqOB/WWSpUqyiz76ac1hnqMUbBgAVF/4sRfDKpzIE9xSsj7hqF0lSqVuTODolyPPxU7fPgwV9tbz6OKV2VZsmQR60BeqhiJAh/+A7U1SLrwg63MmDHjnNQUfTi95dCwv4IKo6QVK1YKQ2rYYw0bNkQWs/fee4f17/+pyvsygW+OGA1fIkxjEwKEACFACBACCUPANrORJ08erjYxRalDYboOHd53GVX6jTdeZ926dXVa1cOHj/gYJZ3KUYDDSW9uFI2DtCR4HTp27E+Zdfv8+edf3NqDjBjxuZAqYJBq1VZzQ/VahvF69OjG1Sh6s1WrVqvyxKwJtitbt25nCxYsEgfEsWNHq3FbtmzOPXM5mI2JE8cpRkQ14Al4o5oyZZpeJNKQjMyZ8zUDE2SmK1eusD59BrBffvlVVUEyAfUWEJiRypUrGQxiwRTArgWH/oQSVMi++moKK1Mm2GmIzp07cG9kAwUWqKxYMYSNHDlctbtx46ayw0HhsGGDWUBAgKiH7n/btu1F2lOcPH3fgYGBbNq0ySwwMEDMJ/+BHULJkiX5d+nwFH3u3PtJcuCHIfPXX88QzOHo0WOTzHamXr06EhqhDti370B2584d8Z3DwUFAgMOg/PXX6/qN2VAL4omlS5ex8+cvkjqUDgqlCQFCgBAgBAiBJELAdpyNjz/uYWA05HphHOoNwkGvd+9eBkYD40KaIu09vDGPHMPMaKA8TZo0/HDURxl4e3NNP/640qADnxi1pIED+1syGthD9uzZ2eefD3bCEXUgSFXMnncyZMjAD/hDGRiGhNLnnw+xZDQwXsGCBfmN/Eg1NBihe/fuqXy1anEqds8+W1AxGmjgTgqmBrCRsPO+Bw/+1InRwND4xiWjYWMqrzaB7c7du3cNY77ySghbvPh77o52HF9voKHOHxldfWrjxmjBaEASCUZIMhpYB76rp592SBJ9va5bt24LCWb79p25w4p+3LX2VV9PSeMTAoQAIUAIEAKEgA0EbEk2cOCvX7+eGg63mLgFf/ToEatdu6alCtCyZT8I1SR0gkrK+++3Uf2tEg0a1Dcc6A4fjmFws1qhwsvsxRdLWHVxKluxYplYk16xffsONmjQUL1Ipffu3ccOHTrMqlcP5Z5rcoly6MjjcHz8+HHmjTWpyXgCalGSccLhTFLXrt2VfUTXrp0ZVNDcEdSyJEF6Eh4+mpUq9RI3PB8kirEXqLr98cdB2czwhKrYhQsXxFrkYTBLlsysZs0wcTttaGwjA0lU1apxDAOkOXPnzmM4FEOCAwKuJUoUF2u6du0627gxir32Wg1RB7UlSWCGJMGTGOwUJHmKk+wnn+7eN1TLQkJelk2FmhS+8dSpU4tvPH369KpOJnCYtiqX9fKJv5OrVx2HXzCDdujWrVuCyTh16hRX4QoT7qVbtGhuYAjxtxcW9hpnPBZzxmMKVzs8Z2foRLfJm9chJcNAJ06cYG+/3YLHzvnI8v8BSNSg4udrgqodcALWRIQAIUAIEAKEACGQfBCwxWxAf16/DZ8+fQabPHmq2AUOrrrrW7k12CrgB4I+dXzMhn7TD7Wet95qwfX47whpw5YtUQwGoPFR4cLOt7yuDjrQf2/atIUYEqo6kyePV8PjgARmwxtrUoPyxOXLl1UWqlBPPfWUMPjV44ZA9SQ+ZkO/6QbTAhUf2F3UrFmPH44dKmiuVM9gQ1G37htiHQFcVWnNmhVqTYUKFVJpTxJgClq0+D918AYDh3cINbEGDd5Qh1AwnZIBgqRHMhtQ0QNzBAZTZ1o2b95qOKh6ipO+h/jet8RN9hkxYjRnvBaK7LFjx1jPnj1klXpGRs7g0pw4xk9VWCRq1KjF32shFhkZYVHrXLR06XL+d9VXVFy8eImNHTuBq3hFsGbNmrLWrd8VNjGohMSladMmnJm55tbjkvMMCS+Bm1tJiKHjjvzpSpYYDXdvguoIAUKAECAECIGkQcCWGpX5Nla/bfaWmos+x4YNUYLRACT379832B+4gwmHDRx89d/169ctu+jud3FQ10mqzHhjTfq4mTNnVlkcDv/991+V9yShG2+DIYKNw7p1P/FAid+wVq1aCqmFq7F1uwwwVDjgS8qR42mZ9PgJphP2Gh999CG3C1nPVcb2cbuGjYrRMA/488+/MtzeSwKTkS5dOi7JqiCLuIvkVSqd2ER871t3lYrvaPXq1WrKFSt+Umk9kTZtGj3rNg0VPfzsktXYwCsycpZgkqXTA7vjebPdzZuO+BvmMcEUjRgRpy6H+uvXrdua+1KeECAECAFCgBAgBFImArYkG+atwwhZ0pUr3leR0MfHPOa8nNv8fPHF0m4NxPX2usqJK4ZEb29egzmvt3WVRlwQSVCPSSjhlhu68bpHIIwF5ghqS7Vq1WSvv/4mu3QpTpIi5zp//rxMiue5c+eFVMFQ6GEGqkZz584SEiy7XaGKt5Z7dXrzzfqiC1SpIBFJnz6dyIPJ1CUZdsd11c6T9w0pHrymSXL1fUAVzc5hGswLJD3Xrl2z1R7zWr072LO0bduaIaCkxEmu0RVzKeu9+QSjA6mYTvAah/gxZuni2bMOT3B6W0oTAoQAIUAIEAKEwJODgC1mA5ICnWAfsH79L6KoVClrz1J6eztpPVo2xtfJnNfrfJn25pqgGqXbJpw+fTrBSwej0rx5K2FLABe2MGDWGRmoaFWvXl2pAekTvfBCMZXFobpYsaIqD09hCaHQ0GoGRgP2GGAkcGCeMsV1YEKoUklmA65d69Wrq6aPjt7ED+fWUinVyIsJXTUNw8JjFtTrQJC6WFGHDl2sil2W4ZBetmyc5MZlQ1MFbJbatWvDmchaBrsmNIOELCJiBps9e66pl++yZ88abUNgSyMlnPB0Jgnf04ULF2VWPOFaeOzYMaosKiqazZv3ncpTghAgBAgBQoAQIARSFgK2mI3Tp88Ydv322y0ZjG1xmGjV6m1DXUIzZ87EzQFD4tdeq86gavPqq47DdELHTUw/b6wJBtgw6B40aKDB7kVXZ/JkjTiswX5AugdGLA/EooDh+bJli9RQRYsWUWk9AYPiyZOnMLzT2rVrMdhLSDK/Z1ke31P3QIS23bp9JFSkGvPYIu4IDAUkRJDIYD8NG76pmutqT6rQhwnEWdGpe/du/H2lEqpPHTq006v8mga2S5YscJoTkqFZs74RjIY/mTIsZMuWbYZ3Jd0q58+fj9vuNFNr3bFjp5OksUiRIjw+TKhqQ5IPBQUlCAFCgBAgBAiBFImALWYD6iK4pcaNOahSpYrcU9QGkYaRsxW1bv2OuslHEDdJsIfQjWQHDhzMvVadNLiFRdspUyYJzzK4fbdLsBMwq5NAKlOlSnUGfXJP6eDBQ4Yunq5p9uxIQ3+Z+ZMH38OtPgiYjhoVzg+2DhzL8YBpkuDlp3x5Rx7G1pO5UT70/ps3f0u4BEY73LrDxgWBCXU6cuSYnlVpuLf9+ec1wvBat1NAA2m/YV6THjujadPGDPEeQHJNx4+fEHn5z/Lli4WaDzxQuSO8GzBd+gEV7SFlWLfuZ0NX85riw8nQ2UYGNif6Nw4VtYiIqTZ6+raJ+ftH0ErEbcG3gL/LpCAE8evVqwf34Ob4u+7fvw/3SNVcMI3ZsmVTS4J9iZngCECnbdu269kEp/FNRkRM404XHEPo33ZgYACP8RKlxg4PHyNicagCShAChAAhQAgQAoSAzxCwxWzgAI8bdBwqJLliMmR9cHAwl0rERYmW5Xjq5Yh+DWZj0aIlrFOn9sJFqmxrPmjJcndP87pgTwDXvQkhb61JnxveoHr2/ES56MShqHLlV/UmKg0XttIlr8QCt9grVqxSN8tw0wumRCdEA3dn74Cx9MMY+sJeAhHUQe7WhDr5/uSatm7dJiQZMgo6VMbsEpguM7MB5gmRzXVytyYrnPS+dtKQFIwfP1G5D9b7QP1J3t7r5f5M428QBvPjeaBHSLKSkmBPM3LkGP4bodS6zDYcCB4pvyd9rTqzgT1t27ZDr05wOmvWrOoyxGoQ/XvPkcOe+2GrcaiMECAECAFCgBAgBDxDwLbYYPbsb4RrTd0gNjb2uIgMjdtWSfCYA5JPWe7qCcNZEA57rVq9x3Zzf/kwqAWhbs2adTxadpw+um64i0Be8RFuz+/dcwSQu307zujXvD65Downx/V0TZgH85kJLm9xIP/qqxncRqEx+/33P1QTzCH3qwotEnJNqEI07i+/nOZ0s43D2+rVa9l777U1uIzVh8OtOOJgSMLc0dGbuWvijkoq5OmaYEAN17dSwgH1uhs3bnCj8W/FvuVc+h5kGWKPmN0TW3mh8nRNGN/T9z1//gLWpcuHIjo43hkO9d9+O19ElZfr9ffz8uUrbOHCxdyFcBPWo0cvvzEaPXt2F4zX0KGDuPerxk7bhkF4hw6dhDqeXom/o1mz5rCOHbuq70mv15mNI0eO2nb+oI9hlTb/PVu1kWV6W1xGDBzYT+21Vq0w2YyehAAhQAgQAoQAIeAFBJ4qElT8X6txjsUcZEWLlrCqYtDNvn//gdNh17JxAgoRLA03yZAC6IxMAobyWpfkuCZsDmorcH+Lwz0kGmZDZ7SBK1p5Mz9p0pds0qQpIk5D1qzZeCyUv5SbYbRNLEHd6dGjf0UQu/iYKEihEMRv2rTJyp4FjEeVKjUE85nYtXjSPzN3S/zpp/3VOiIiZiq1snfeacUGDHDEvMCYderUZ67imHgyZ3JqC/W6HTu2WC4JzGibNq7tVqAuFxT0vDAGhzqaFcMtB0bMHHwjIFwiwINVUlJi9p2U66a5CQFCgBAgBAiBxwUBW2pU5s0k1JDYPI6rPG5H//wz1lV1kpQnxzUBCESm3rdvv8eYwKOQ2auQx4NYdLBy2WrRTATDi4j4iiFyuU6QJECK4W+CVAgRuWVEcNjCbN++g+XKlUtEZ5frgcQjuX2bcm2JeYJBdEWIru6O4E7Z7FLZqj2YDMlooN5bKlRWc9ktS8y+7c5B7QgBQoAQIAQIgScZgQQxG08yYLR37yAA42IzowGmaerU6d6ZwMNRYCMyffoM7kmrq+gJiRE8d+kESU2vXn0s1YP0do9jGqpwoaFhloEHvRVLBxI4SWDuwMwlNflj30m9R5qfECAECAFCgBBISgSI2UhK9P0097x533K1qbxituRwm4yF3L59R6giwdgYwe5gFA4bj6SQasjXMHnyVBYTc5S7XQ7lHrf+I5wVZMyYgSHw4Z49ewQjFBNzRDZPcU+o4fmS9u7dz1q3dqhj4b2bbXV8Obe7sX29b3dzUx0hQAgQAoQAIZDSEUiQzUZKB4X2RwgAAXjbgl2JOxsEQooQIAQIAUKAECAECAFCwDUCJNlwjQ3VPOEIxGfg/oTDQ9snBAgBQoAQIAQIAUIgXgRsu76NdyRqQAgQAoQAIUAIEAKEACFACBAChICGgF8kG4ju269fb+4eM4hHnd4ljGwRnO5xo169PuJxMuqLuB3jx09iiDVAlLIQyJAhPZs/f55lIMiVK39iEydOTlkb1nazcOF3DC6AzRQVFc2GDQs3F1OeECAECAFCgBAgBAiBeBHwC7PRsWN7Vq5cWbGY0NBqPE5BbX6gW+C0uFatWrJMmTI5lW/atJkdOPC7U3nx4i/wmAyVncphZIwghPB44y0Co9SuXVs1XO/eHycZs+EpTmrRlIgXAUSbf+GFYpbtAgOfsyxPKYW4FJBR4fU9+drVtT4XpQkBQoAQIAQIAUIgZSHgF2YjU6aMBtRcGdwiki8Mcs2UOXMmS2ajRo1Q5arU3GfevO944MH7qhhMTHj4MIaIwTpdvnxJeCCC29XfftujVxnSmTMb9/DggfvYA4bOXs54ipOXp3+ihrtz564ImIhNwyuVFeXKlZNHHu/ESpcuxeNI5BRM7p49e3nk70UsKmqTVRe/lOXIkYN17/4Bg5thUGxsLBs16guXcyOIppRsYE9EhAAhQAgQAoQAIUAIJBYB48k7saO56D9zZiSDFAJ08OAhBnUUfxMiBdeqFeZ22sWLl4qIxoi5YKZ9+w6wdevWs7Jly/Ao3ffYuHETzU0onwIRaNaspfhmXW2taNHneXyOqaxAgfyGJojYju8N6keIlO1vqlOnFvvsswEMDIek2NhAt8xGzZp1ZVP28ccfsfbt4yR5qoIShAAhQAgQAoQAIUAIeICAX5iN6OjNLCTEWd3JvM4mTZpzNSqHBGHo0MFMDwJmbov8vHnz2c6du0RVmTJlxC2uVTu7ZY0aNRARjtu16+TU5cGDB6xz525O5UlR4ClOSbFGb8+ZO3duNmHCF2zWrDls9eq1XlWRS8xaIS0zMxpyPKgkQQq1des2duTIUVns02fWrFnYkCGDWN26tX06Dw1OCBAChAAhQAgQAoSAHQRsMRu4JU2fPr0Y78cfV/LIz1lYhQrlRf7vv08KFadXXgnhgePyiLLo6E0sQ4YMQgpgXsTNm7fYmjVrzcUiv3//AVV+7ty5eJmNy5cv84PcdtHHU/uMadOmM6w9OLg0a9y4oVLfqlq1ilj3rl27xbi4nc6Y0cEAqcXxBJgc9HdFBQoUYDVr1mDPPvusMDY+ceIv9vvvf7DNm7cYukDFpVKliqLs+vXrIrgd1oQbc2AYExPDwKzpblg9xUlO6IiKjTUVFHs6e/YcN9jfzQPW7ZVNxBN2MDlzOm7Ese7du39T9VCzCQurofI4+N+6dUvlfZWAKh2kSvjBfmfMmHFOWPpqblfjwg6pZMn/qOoVK1YKSQbskoYNG6LK33vvHda//6cq78vESy+VJEbDlwDT2IQAIUAIEAKEACHgEQK2mI3x479Qh3EcTnGgGTt2tJho48Yo9v77HVnPnt1FOQoHDPiMR19+xtKe4uHDR1ylqqRHi/RFYxz6wagsWLBIHFrlfjBXy5bNxSEc6YkTx6m9Iy9p/PhJbMqUaTJreOJw+cknPZ3sQ9Bo1arV3DPXQCZVtapWrcyGDx8q+t+9e1fMW7HiK4bxsNYuXT5UfQyVNjOQ2kCtBgyMTmDSvv12Phs5cgyP6n1bVH36aX9WqNCzIn34cAyrX7+h6lKtWhXedrjKx8Yed2JWVKWPEjBk/vrrGWzLlq1s9OixlvY8PpraMGy9enVUHu+zb9+BIgI6vik4EwgIcBiUv/56Xb8xG2pBPLF06TJ2/vxFUofSQaE0IUAIEAKEACFACPgVAVtxNk6cOKEWlTdvXla4cGGVL1w4UKTz5Mmtyg4dOqzSj0MC0hrYkkiKT31LtrN6QiLRp08vS0YD7SElatDgDauuLF26dMzMaKAhytq2bW3Zx04hvCuBoTEzGugLg3wwV/Xr11NDrV69RqWLFQtiefI4JFYo1L1/Qfq0d+8+1daXCdjJgBnTCdK0xYu/FwxhYKDjO9TrfZ3W1ac2bowWjAYkWmCEJKOBNQD3p59+2tfLEePfunWbnTlzljMYnTnD249du3bVL/PSJIQAIUAIEAKEACFACFghYIvZOHDgD9UXqlKFCweofP78+cVhKlcuh8cbeJrCbfiyZT/ww05f8Zsx47+qfXJNSNsPrA8HRkldu3ZX+4C3nvioVKmXDO5DO3bswho1estw+1+p0qsuh8GBGmvZvdvoGatJk0Yu+8RXAdUw6dIU7+fzz0eIg6ju0hSqP5J++GGFTIqnZDAwRpUqlVQdpDSQjOAwnT179nh/UOOSZKc92oABA506dYqFhoYxqL9dvXpNDiOetWvX5E4HlnPVpcEGxsjQyAcZMN6SwJC//XYLtmLFUkuGEQbj/iCovAGnX3/d4I/paA5CgBAgBAgBQoAQIATcImBLjQo2AlAFATmYjTjJBg6g5cuXY6lSOfiWmJgj4gYa9gz4gaB29f77bUQ6uf4D+w9JsFfAjT8O0mvXrpPFAgOpXqQKTQnz7TsO+pCcdOvWQ7kV/eeff0y94rJQQQOjBoJql8QdkiMcvM3jx/V0nfr++4XKkP7atWvCWBljIW5Ep04dRMegoKJqgENcMnXs2J+sSBHHe65WrTJXN1vIXnyxhMG7kfQqFhk5g5UpU1r1d5eoUaMWV9EqxCIjI9w1U3VLly4XzB4KLl68xDGZwBmOCNasWVPWuvW7yk4I31/Tpk0EI+LOvasa2AsJuLmVhFgy7ihXrri27tp5o0637/HGeDQGIUAIEAKEACFACBACCUXAwSHE0xuGzZLy5ctnUBFBecWKIbI6yfTn1QISmJDxBdAdN+eeGpzLaXXjbZS1aNGMzZ07i980rxO2DgULFhSHZtlef8Lj1bp1P6siSA4kgflJqCrOlStXBJOCA/q0aV/yd/Qb279/t2I05Bz6U5duQI0rderUDPYlkk6dOq2kNWnTppHF8T7TpEnD8LNLVmPDID0ychZnLloIlSG7Y3m73c2bNyyHBFM0YsRIQ93169ZtDY0oQwgQAoQAIUAIEAKEQApDwBaz8ccfB9XhOzi4tPJMhXIQdOcl6YyJLHscnvIWH2uFyk5C6fjxE+KgCcZBJ0iA4Llo+vQp7IMPuuhVKg1PXdJwHIXnz59XdYlJhIW9xgPMfSdsReCJClGy4yN4VpKEgIhlywZzZqOKLOKG7j+p9IULFxgO0/H9wMTBCB3SlfjayvpLl+IkTnJC7GHQoIFc6rSKmdWTEsokyrE9ecI2wkzLl//I7XLqc0bMaMty9qxzW3NfyhMChAAhQAgQAoQAIZDSELClRnXjxg0GnfSAgABWokRxgQEOWvBEhbwM2IcKuCV93AiqUdIuAWs/ffp0orYQGTmbYxMtXJAGBwdz97qlePyQTGrMpk0bs0mTvlR5mUCMhPz58/H5z4giHVcUPHqUsKjl3bp1UTYbOLwvWrSE7du3n0sGGhkYCLkOPOHyFlIa6dq1QYM3VRr1UoUK6Q4drJkn1FkRvp2yZStYVbktgxpXu3ZteLC8WkptT3YAIxMRMYPNnj1XFvn8CdfBOsG+R7p1rlw5zrYFHtguXLioNxXpJk0asRo1qov0v/8+Et6srl4lg24noKiAECAECAFCgBAgBB5bBGxJNrC7/fuNTMSBAwecynCbD33/x4WglgTD6DlzvlaHcaz9p5/ivDF5uhdIEeBitlWrlkIdq02bdlzyU4WtXx+nHgW7F8QqMRNUpWBknCpVKgbGo1GjBqrJvXv3mNUtv2rgJvHccw4XrGiycuUqHqNirDAg1sutuuuqVIhFAukMCIyIv5lKeHdasmQBZ+DqGBiNO3fusK++msEP7TW51Gim8AhltRdflG3Zss0wrJSygGGE+pykHTt2Mhjmm6lmzdf4ukP/96su3ru5DeUJAUKAECAECAFCgBB4nBGwJdnABnG41N2jwkPV778bGZAjR44yHIpBrVu/o6QFCFwnCYa8unHwwIGD2cmTJ0UQuVGjwvmB9inRtEyZYNmF38A3ZoitAEKcj8mTp4q0PgdsSXSaOXM6P+A5VJkwh1kqMHt2pN5cpf/8M1YYdKMAhuL6mhDETRKYgvLlHXl9TfBGhTpJ6AOD8NKl4wyo4TL2+vXrsonhifgMzZs348bgaQ3qTjC8h+GveU12cIJUCi5sQTCihhQnR44cnOHJbJjbnIH0Am58JZMh63UVKlnm66d5DWBsEc8C3wLUuJKCoGrWq1cPJr/v/v378HffXHjl0j1vwb7EioKCHO8EdUePHmO6kwKr9nbK8HcSETGNOzhwtMZ7lhQYGMBjy0TJLAsPHyNicagCShAChAAhQAgQAoQAIeBlBGwzG2ZbDEg2oO6DA5I80Oi33VAfevVVR2Rs85r1cnhZArOBMSpXtnYJizrZRz90upsjJORlNS3mOHPGoZqkCi0ScG3bs+cnKlq3uzU980wufsjMJUbR17RkyVL27rutlMtWuGU1E9SsXBEYCismYOrU6aKLuzW5wglSFclspE+fLt7I7HJtsBnZvn0n07FE3Y8/rpJN/P6ETQakM+PHTxISFr8vQJvw/v37IhjiyJEjlLQFqoY6bdiwUUiR9DKkIdmCBETStm3bZTJRz6xZs6ro71YD4RuRlCNHdpmkJyFACBAChAAhQAgQAj5BwDazAWNwHPSg6gOSsTfwlLEXdIYEHoPsEAyGQVCHwUFbP7hb9UfQMkmezAGJC1RZoKKkE5glSA327t0vYjjc5JGgJSVkTXAZ27hxczZkyGdcGlPCIJ2ARANxIubO/U5O4fQcMWIU69y5g7gdRyV0+OHKVbrgTciaJk78kmXMmFEE70uVKrWQHmGd8+cv4JGt+4g13L5t/b7WrVtvYDbQLyYmxmndvi64fPkKN3JfzFXe5hoCMPp63p49uyuPV7BzgTRFJxiEQ3I1ZMggA/OA7xouh8PDRyvnCno/3dUwyr3FbNj9m8Ccelt4G+vb9xP1vYaEVEATIkKAECAECAFCgBAgBBKFwFNFgor/azXCsZiDrGjRElZVVGYTATA2iEYO43BIVuAS1UwwEkZ0b0lBQS+KAx9sFMD4wMWstwgHStx8g+myY4gMu5EJE8YqqRLWMXr0WK6mM9NbS0p242TLlpXt2LHFcl3R0ZsZbHBcUe7cuVlQ0PPCGBxqUcDZFbVs2ZzBoxYITHxISGUGF8VJRYnZd1KtmeYlBAgBQoAQIAQIgeSPgG3JRvLfSvJbIQ6bsAHxlCCFgbTF2wQ7B7t2AZMnT2BhYTWUJAtrwU34/Pnfe3tZyWq8R48seW+xRrPdj3nhUDuz665Yl2wcOXIkSRkN7CMx+zbjQHlCgBAgBAgBQoAQIAQkAsRsSCToaUAAkhWpMocK3L736dOfx8iwNmw3dH6MMzDcDw0Nsww8eOWK68jvnm4ZEi9JW7d6x15DjpeQp7/2nZC1UR9CgBAgBAgBQoAQeHwRIGYjid/dvn0HuA3Ht2IVug59Ei9LeHiChAU2NLGxsWzWrG9UxPCkXpuv5/em6pqrtQ4ZMlzZeBw7dsxVM7+W+2Pfft0QTUYIEAKEACFACBACSY4A2Wwk+SugBRAChAAhQAgQAoQAIUAIEAIpEwHbQf1S5vZpV4QAIUAIEAKEACFACBAChAAh4CsEiNnwFbI0LiFACBAChAAhQAgQAoQAIfCEI+AXmw1ENe7Xrzd3CxrEI4Dv4lGX+6R4Q+OEfle9en3E3nyzvojEjsB1iONA5IwA4eSMSWJKMmRIzz2NzVNxNvSxEEl+4sTJelGKSi9c+B3LnDmz056ioqLZsGHhTuVUQAgQAoQAIUAIEAL2EUg0s5E2bVr2zjutVLA8BDIzxwvo2LE9K1eurFhVaGg1VqdObRFQzu4yK1Qoz0qXLi2aw5WsDHBnt78v2vliTWDG2rVrq5bbu/fHScZstGrVUsQHUYv5X2LTps08oOPv5mK/5pMTTn7duA8nw9/xCy8Us5whMPA5y/KUUojLEKtgoqdPn0kpW6R9EAKEACFACBACSYZAopmNZ555hn3ySU+1gf37D7DNm41B0TJlyqjqkXAX7MzQ8H+ZRo0asoYN3xS53bt/U8xGyZL/4dG2O1p1UWWYq3fvfiJAnir0QsJqTQjeFx4+jCF4nk6XL1/icTOOMkSg/u23PXqVIZ05sxGnBw9cB4UzdPRBZuDAfgbXt3KKzJkzJTmzkZxwkriktOedO3fZjRs3xLbOnTtvub1cuXKyLl068YuAUixnzpzCPfKePXt5pPdFLCpqk2UffxTmyJGDde/+AcP/TSB4Uxs16guXU//1199KsoE9EREChAAhQAgQAoSA9xAwnoq9N65hpJkzI1nx4i+IsoMHDzGoZXiDihQpzGrUCI13qOHDw73ObFhNiijMtWqFWVWpssWLl7KhQ4dbrgducNetW8/Kli3D7t69x8aNm6j6USIOAcIpDgtfpZo1a8nwt+qKihZ9nk2fPpUVKJDf0CRfvrzibwDqR3PmzDXU+SNTp04t9tlnAxgYDkmxsYFumY2aNevKpuzjjz9i7dvHSRdVBSUIAUKAECAECAFCIEEI+IXZiI7ezEJCKidogSmtU6NGDfgtcA6uLtXJaWuI8N25czen8qQoaNKkOVejckhahg4dzPQgdEmxHn3O5ISTvi5fpHPnzs0mTPiCxzmZw1avXiukB76Yx9MxIcEzMxpyDKgkQTK2des2duTIUVns02fWrFnYkCGDWN26tX06Dw1OCBAChAAhQAgQAp4h4BGzAb3uatWqsmLFgoQh6aZNm9jJk6ctZyxU6FlxQ2+uvHnzFluzZq25WOWff74Igz1EgQIFGNQ3PDGQ7tLlQ4aDqE4PHz5gZ86cFUVYe/bsT4v02rXreVC1/OzVV0P4Qfo5vo9T7NdfN7CjR50DrCV0TdOmTWd//32SBQeXZo0bN1RqSVWrVhHY7Nq1W6wF0pCMGY0qVKjYuXOX6C8amf5JlSoVl+pUFxKjPHlys3/++YfBnmXDho08IN9FQ+sqVSoJNRcUbt++kz169JBVrPiKUB25efMm27JlKzMHdIM6nKRz587ZZjbKly/HXnqpJMubNw+7ffs2g4rKihWrRFqOB/WWSpUqyiz76ac1hnqMUbBgAVF/4sRfDKpzIE9xSsj7hqF0lSqVuTODolyPPxU7fPgwV9tbz6OKV2VZsmQR60BeqhiJAh/+A7U1SLrwg63MmDHjnNQUfTi95dCwv4IKo6QVK1YKQ2rYYw0bNkQWs/fee4f17/+pyvsygW+OGA1fIkxjEwKEACFACBACCUPANrORJ08erjYxRalDYboOHd53GVX6jTdeZ926dXVa1cOHj/gYJZ3KUYDDSW9uFI2DtCR4HTp27E+Zdfv8+edf3NqDjBjxuZAqYJBq1VZzQ/VahvF69OjG1Sh6s1WrVqvyxKwJtitbt25nCxYsEgfEsWNHq3FbtmzOPXM5mI2JE8cpRkQ14Al4o5oyZZpeJNKQjMyZ8zUDE2SmK1eusD59BrBffvlVVUEyAfUWEJiRypUrGQxiwRTArgWH/oQSVMi++moKK1Mm2GmIzp07cG9kAwUWqKxYMYSNHDlctbtx46ayw0HhsGGDWUBAgKiH7n/btu1F2lOcPH3fgYGBbNq0ySwwMEDMJ/+BHULJkiX5d+nwFH3u3PtJcuCHIfPXX88QzOHo0WOTzHamXr06EhqhDti370B2584d8Z3DwUFAgMOg/PXX6/qN2VAL4omlS5ex8+cvkjqUDgqlCQFCgBAgBAiBJELAdpyNjz/uYWA05HphHOoNwkGvd+9eBkYD40KaIu09vDGPHMPMaKA8TZo0/HDURxl4e3NNP/640qADnxi1pIED+1syGthD9uzZ2eefD3bCEXUgSFXMnncyZMjAD/hDGRiGhNLnnw+xZDQwXsGCBfmN/Eg1NBihe/fuqXy1anEqds8+W1AxGmjgTgqmBrCRsPO+Bw/+1InRwND4xiWjYWMqrzaB7c7du3cNY77ySghbvPh77o52HF9voKHOHxldfWrjxmjBaEASCUZIMhpYB76rp592SBJ9va5bt24LCWb79p25w4p+3LX2VV9PSeMTAoQAIUAIEAKEgA0EbEk2cOCvX7+eGg63mLgFf/ToEatdu6alCtCyZT8I1SR0gkrK+++3Uf2tEg0a1Dcc6A4fjmFws1qhwsvsxRdLWHVxKluxYplYk16xffsONmjQUL1Ipffu3ccOHTrMqlcP5Z5rcoly6MjjcHz8+HHmjTWpyXgCalGSccLhTFLXrt2VfUTXrp0ZVNDcEdSyJEF6Eh4+mpUq9RI3PB8kirEXqLr98cdB2czwhKrYhQsXxFrkYTBLlsysZs0wcTttaGwjA0lU1apxDAOkOXPnzmM4FEOCAwKuJUoUF2u6du0627gxir32Wg1RB7UlSWCGJMGTGOwUJHmKk+wnn+7eN1TLQkJelk2FmhS+8dSpU4tvPH369KpOJnCYtiqX9fKJv5OrVx2HXzCDdujWrVuCyTh16hRX4QoT7qVbtGhuYAjxtxcW9hpnPBZzxmMKVzs8Z2foRLfJm9chJcNAJ06cYG+/3YLHzvnI8v8BSNSg4udrgqodcALWRIQAIUAIEAKEACGQfBCwxWxAf16/DZ8+fQabPHmq2AUOrrrrW7k12CrgB4I+dXzMhn7TD7Wet95qwfX47whpw5YtUQwGoPFR4cLOt7yuDjrQf2/atIUYEqo6kyePV8PjgARmwxtrUoPyxOXLl1UWqlBPPfWUMPjV44ZA9SQ+ZkO/6QbTAhUf2F3UrFmPH44dKmiuVM9gQ1G37htiHQFcVWnNmhVqTYUKFVJpTxJgClq0+D918AYDh3cINbEGDd5Qh1AwnZIBgqRHMhtQ0QNzBAZTZ1o2b95qOKh6ipO+h/jet8RN9hkxYjRnvBaK7LFjx1jPnj1klXpGRs7g0pw4xk9VWCRq1KjF32shFhkZYVHrXLR06XL+d9VXVFy8eImNHTuBq3hFsGbNmrLWrd8VNjGohMSladMmnJm55tbjkvMMCS+Bm1tJiKHjjvzpSpYYDXdvguoIAUKAECAECIGkQcCWGpX5Nla/bfaWmos+x4YNUYLRACT379832B+4gwmHDRx89d/169ctu+jud3FQ10mqzHhjTfq4mTNnVlkcDv/991+V9yShG2+DIYKNw7p1P/FAid+wVq1aCqmFq7F1uwwwVDjgS8qR42mZ9PgJphP2Gh999CG3C1nPVcb2cbuGjYrRMA/488+/MtzeSwKTkS5dOi7JqiCLuIvkVSqd2ER871t3lYrvaPXq1WrKFSt+Umk9kTZtGj3rNg0VPfzsktXYwCsycpZgkqXTA7vjebPdzZuO+BvmMcEUjRgRpy6H+uvXrdua+1KeECAECAFCgBAgBFImArYkG+atwwhZ0pUr3leR0MfHPOa8nNv8fPHF0m4NxPX2usqJK4ZEb29egzmvt3WVRlwQSVCPSSjhlhu68bpHIIwF5ghqS7Vq1WSvv/4mu3QpTpIi5zp//rxMiufWlaZMAABAAElEQVS5c+eFVMFQ6GEGqkZz584SEiy7XaGKt5Z7dXrzzfqiC1SpIBFJnz6dyIPJ1CUZdsd11c6T9w0pHrymSXL1fUAVzc5hGswLJD3Xrl2z1R7zWr072LO0bduaIaCkxEmu0RVzKeu9+QSjA6mYTvAah/gxZuni2bMOT3B6W0oTAoQAIUAIEAKEwJODgC1mA5ICnWAfsH79L6KoVClrz1J6eztpPVo2xtfJnNfrfJn25pqgGqXbJpw+fTrBSwej0rx5K2FLABe2MGDWGRmoaFWvXl2pAekTvfBCMZXFobpYsaIqD09hCaHQ0GoGRgP2GGAkcGCeMsV1YEKoUklmA65d69Wrq6aPjt7ED+fWUinVyIsJXTUNw8JjFtTrQJC6WFGHDl2sil2W4ZBetmyc5MZlQ1MFbJbatWvDmchaBrsmNIOELCJiBps9e66pl++yZ88abUNgSyMlnPB0Jgnf04ULF2VWPOFaeOzYMaosKiqazZv3ncpTghAgBAgBQoAQIARSFgK2mI3Tp88Ydv322y0ZjG1xmGjV6m1DXUIzZ87EzQFD4tdeq86gavPqq47DdELHTUw/b6wJBtgw6B40aKDB7kVXZ/JkjTiswX5AugdGLA/EooDh+bJli9RQRYsWUWk9AYPiyZOnMLzT2rVrMdhLSDK/Z1ke31P3QIS23bp9JFSkGvPYIu4IDAUkRJDIYD8NG76pmutqT6rQhwnEWdGpe/du/H2lEqpPHTq006v8mga2S5YscJoTkqFZs74RjIY/mTIsZMuWbYZ3Jd0q58+fj9vuNFNr3bFjp5OksUiRIjw+TKhqQ5IPBQUlCAFCgBAgBAiBFImALWYD6iK4pcaNOahSpYrcU9QGkYaRsxW1bv2OuslHEDdJsIfQjWQHDhzMvVadNLiFRdspUyYJzzK4fbdLsBMwq5NAKlOlSnUGfXJP6eDBQ4Yunq5p9uxIQ3+Z+ZMH38OtPgiYjhoVzg+2DhzL8YBpkuDlp3x5Rx7G1pO5UT70/ps3f0u4BEY73LrDxgWBCXU6cuSYnlVpuLf9+ec1wvBat1NAA2m/YV6THjujadPGDPEeQHJNx4+fEHn5z/Lli4WaDzxQuSO8GzBd+gEV7SFlWLfuZ0NX85riw8nQ2UYGNif6Nw4VtYiIqTZ6+raJ+ftH0ErEbcG3gL/LpCAE8evVqwf34Ob4u+7fvw/3SNVcMI3ZsmVTS4J9iZngCECnbdu269kEp/FNRkRM404XHEPo33ZgYACP8RKlxg4PHyNicagCShAChAAhQAgQAoSAzxCwxWzgAI8bdBwqJLliMmR9cHAwl0rERYmW5Xjq5Yh+DWZj0aIlrFOn9sJFqmxrPmjJcndP87pgTwDXvQkhb61JnxveoHr2/ES56MShqHLlV/UmKg0XttIlr8QCt9grVqxSN8tw0wumRCdEA3dn74Cx9MMY+sJeAhHUQe7WhDr5/uSatm7dJiQZMgo6VMbsEpguM7MB5gmRzXVytyYrnPS+dtKQFIwfP1G5D9b7QP1J3t7r5f5M428QBvPjeaBHSLKSkmBPM3LkGP4bodS6zDYcCB4pvyd9rTqzgT1t27ZDr05wOmvWrOoyxGoQ/XvPkcOe+2GrcaiMECAECAFCgBAgBDxDwLbYYPbsb4RrTd0gNjb2uIgMjdtWSfCYA5JPWe7qCcNZEA57rVq9x3Zzf/kwqAWhbs2adTxadpw+um64i0Be8RFuz+/dcwSQu307zujXvD65Downx/V0TZgH85kJLm9xIP/qqxncRqEx+/33P1QTzCH3qwotEnJNqEI07i+/nOZ0s43D2+rVa9l777U1uIzVh8OtOOJgSMLc0dGbuWvijkoq5OmaYEAN17dSwgH1uhs3bnCj8W/FvuVc+h5kGWKPmN0TW3mh8nRNGN/T9z1//gLWpcuHIjo43hkO9d9+O19ElZfr9ffz8uUrbOHCxdyFcBPWo0cvvzEaPXt2F4zX0KGDuPerxk7bhkF4hw6dhDqeXom/o1mz5rCOHbuq70mv15mNI0eO2nb+oI9hlTb/PVu1kWV6W1xGDBzYT+21Vq0w2YyehAAhQAgQAoQAIeAFBJ4qElT8X6txjsUcZEWLlrCqYtDNvn//gdNh17JxAgoRLA03yZAC6IxMAobyWpfkuCZsDmorcH+Lwz0kGmZDZ7SBK1p5Mz9p0pds0qQpIk5D1qzZeCyUv5SbYbRNLEHd6dGjf0UQu/iYKEihEMRv2rTJyp4FjEeVKjUE85nYtXjSPzN3S/zpp/3VOiIiZiq1snfeacUGDHDEvMCYderUZ67imHgyZ3JqC/W6HTu2WC4JzGibNq7tVqAuFxT0vDAGhzqaFcMtB0bMHHwjIFwiwINVUlJi9p2U66a5CQFCgBAgBAiBxwUBW2pU5s0k1JDYPI6rPG5H//wz1lV1kpQnxzUBCESm3rdvv8eYwKOQ2auQx4NYdLBy2WrRTATDi4j4iiFyuU6QJECK4W+CVAgRuWVEcNjCbN++g+XKlUtEZ5frgcQjuX2bcm2JeYJBdEWIru6O4E7Z7FLZqj2YDMlooN5bKlRWc9ktS8y+7c5B7QgBQoAQIAQIgScZgQQxG08yYLR37yAA42IzowGmaerU6d6ZwMNRYCMyffoM7kmrq+gJiRE8d+kESU2vXn0s1YP0do9jGqpwoaFhloEHvRVLBxI4SWDuwMwlNflj30m9R5qfECAECAFCgBBISgSI2UhK9P0097x533K1qbxituRwm4yF3L59R6giwdgYwe5gFA4bj6SQasjXMHnyVBYTc5S7XQ7lHrf+I5wVZMyYgSHw4Z49ewQjFBNzRDZPcU+o4fmS9u7dz1q3dqhj4b2bbXV8Obe7sX29b3dzUx0hQAgQAoQAIZDSEUiQzUZKB4X2RwgAAXjbgl2JOxsEQooQIAQIAUKAECAECAFCwDUCJNlwjQ3VPOEIxGfg/oTDQ9snBAgBQoAQIAQIAUIgXgRsu76NdyRqQAgQAoQAIUAIEAKEACFACBAChICGgF8kG4ju269fb+4eM4hHnd4ljGwRnO5xo169PuJxMuqLuB3jx09iiDVAlLIQyJAhPZs/f55lIMiVK39iEydOTlkb1nazcOF3DC6AzRQVFc2GDQs3F1OeECAECAFCgBAgBAiBeBHwC7PRsWN7Vq5cWbGY0NBqPE5BbX6gW+C0uFatWrJMmTI5lW/atJkdOPC7U3nx4i/wmAyVncphZIwghPB44y0Co9SuXVs1XO/eHycZs+EpTmrRlIgXAUSbf+GFYpbtAgOfsyxPKYW4FJBR4fU9+drVtT4XpQkBQoAQIAQIAUIgZSHgF2YjU6aMBtRcGdwiki8Mcs2UOXMmS2ajRo1Q5arU3GfevO944MH7qhhMTHj4MIaIwTpdvnxJeCCC29XfftujVxnSmTMb9/DggfvYA4bOXs54ipOXp3+ihrtz564ImIhNwyuVFeXKlZNHHu/ESpcuxeNI5BRM7p49e3nk70UsKmqTVRe/lOXIkYN17/4Bg5thUGxsLBs16guXcyOIppRsYE9EhAAhQAgQAoQAIUAIJBYB48k7saO56D9zZiSDFAJ08OAhBnUUfxMiBdeqFeZ22sWLl4qIxoi5YKZ9+w6wdevWs7Jly/Ao3ffYuHETzU0onwIRaNaspfhmXW2taNHneXyOqaxAgfyGJojYju8N6keIlO1vqlOnFvvsswEMDIek2NhAt8xGzZp1ZVP28ccfsfbt4yR5qoIShAAhQAgQAoQAIUAIeICAX5iN6OjNLCTEWd3JvM4mTZpzNSqHBGHo0MFMDwJmbov8vHnz2c6du0RVmTJlxC2uVTu7ZY0aNRARjtu16+TU5cGDB6xz525O5UlR4ClOSbFGb8+ZO3duNmHCF2zWrDls9eq1XlWRS8xaIS0zMxpyPKgkQQq1des2duTIUVns02fWrFnYkCGDWN26tX06Dw1OCBAChAAhQAgQAoSAHQRsMRu4JU2fPr0Y78cfV/LIz1lYhQrlRf7vv08KFadXXgnhgePyiLLo6E0sQ4YMQgpgXsTNm7fYmjVrzcUiv3//AVV+7ty5eJmNy5cv84PcdtHHU/uMadOmM6w9OLg0a9y4oVLfqlq1ilj3rl27xbi4nc6Y0cEAqcXxBJgc9HdFBQoUYDVr1mDPPvusMDY+ceIv9vvvf7DNm7cYukDFpVKliqLs+vXrIrgd1oQbc2AYExPDwKzpblg9xUlO6IiKjTUVFHs6e/YcN9jfzQPW7ZVNxBN2MDlzOm7Ese7du39T9VCzCQurofI4+N+6dUvlfZWAKh2kSvjBfmfMmHFOWPpqblfjwg6pZMn/qOoVK1YKSQbskoYNG6LK33vvHda//6cq78vESy+VJEbDlwDT2IQAIUAIEAKEACHgEQK2mI3x479Qh3EcTnGgGTt2tJho48Yo9v77HVnPnt1FOQoHDPiMR19+xtKe4uHDR1ylqqRHi/RFYxz6wagsWLBIHFrlfjBXy5bNxSEc6YkTx6m9Iy9p/PhJbMqUaTJreOJw+cknPZ3sQ9Bo1arV3DPXQCZVtapWrcyGDx8q+t+9e1fMW7HiK4bxsNYuXT5UfQyVNjOQ2kCtBgyMTmDSvv12Phs5cgyP6n1bVH36aX9WqNCzIn34cAyrX7+h6lKtWhXedrjKx8Yed2JWVKWPEjBk/vrrGWzLlq1s9OixlvY8PpraMGy9enVUHu+zb9+BIgI6vik4EwgIcBiUv/56Xb8xG2pBPLF06TJ2/vxFUofSQaE0IUAIEAKEACFACPgVAVtxNk6cOKEWlTdvXla4cGGVL1w4UKTz5Mmtyg4dOqzSj0MC0hrYkkiKT31LtrN6QiLRp08vS0YD7SElatDgDauuLF26dMzMaKAhytq2bW3Zx04hvCuBoTEzGugLg3wwV/Xr11NDrV69RqWLFQtiefI4JFYo1L1/Qfq0d+8+1daXCdjJgBnTCdK0xYu/FwxhYKDjO9TrfZ3W1ac2bowWjAYkWmCEJKOBNQD3p59+2tfLEePfunWbnTlzljMYnTnD249du3bVL/PSJIQAIUAIEAKEACFACFghYIvZOHDgD9UXqlKFCweofP78+cVhKlcuh8cbeJrCbfiyZT/ww05f8Zsx47+qfXJNSNsPrA8HRkldu3ZX+4C3nvioVKmXDO5DO3bswho1estw+1+p0qsuh8GBGmvZvdvoGatJk0Yu+8RXAdUw6dIU7+fzz0eIg6ju0hSqP5J++GGFTIqnZDAwRpUqlVQdpDSQjOAwnT179nh/UOOSZKc92oABA506dYqFhoYxqL9dvXpNDiOetWvX5E4HlnPVpcEGxsjQyAcZMN6SwJC//XYLtmLFUkuGEQbj/iCovAGnX3/d4I/paA5CgBAgBAgBQoAQIATcImBLjQo2AlAFATmYjTjJBg6g5cuXY6lSOfiWmJgj4gYa9gz4gaB29f77bUQ6uf4D+w9JsFfAjT8O0mvXrpPFAgOpXqQKTQnz7TsO+pCcdOvWQ7kV/eeff0y94rJQQQOjBoJql8QdkiMcvM3jx/V0nfr++4XKkP7atWvCWBljIW5Ep04dRMegoKJqgENcMnXs2J+sSBHHe65WrTJXN1vIXnyxhMG7kfQqFhk5g5UpU1r1d5eoUaMWV9EqxCIjI9w1U3VLly4XzB4KLl68xDGZwBmOCNasWVPWuvW7yk4I31/Tpk0EI+LOvasa2AsJuLmVhFgy7ihXrri27tp5o0637/HGeDQGIUAIEAKEACFACBACCUXAwSHE0xuGzZLy5ctnUBFBecWKIbI6yfTn1QISmJDxBdAdN+eeGpzLaXXjbZS1aNGMzZ07i980rxO2DgULFhSHZtlef8Lj1bp1P6siSA4kgflJqCrOlStXBJOCA/q0aV/yd/Qb279/t2I05Bz6U5duQI0rderUDPYlkk6dOq2kNWnTppHF8T7TpEnD8LNLVmPDID0ychZnLloIlSG7Y3m73c2bNyyHBFM0YsRIQ93169ZtDY0oQwgQAoQAIUAIEAKEQApDwBaz8ccfB9XhOzi4tPJMhXIQdOcl6YyJLHscnvIWH2uFyk5C6fjxE+KgCcZBJ0iA4Llo+vQp7IMPuuhVKg1PXdJwHIXnz59XdYlJhIW9xgPMfSdsReCJClGy4yN4VpKEgIhlywZzZqOKLOKG7j+p9IULFxgO0/H9wMTBCB3SlfjayvpLl+IkTnJC7GHQoIFc6rSKmdWTEsokyrE9ecI2wkzLl//I7XLqc0bMaMty9qxzW3NfyhMChAAhQAgQAoQAIZDSELClRnXjxg0GnfSAgABWokRxgQEOWvBEhbwM2IcKuCV93AiqUdIuAWs/ffp0orYQGTmbYxMtXJAGBwdz97qlePyQTGrMpk0bs0mTvlR5mUCMhPz58/H5z4giHVcUPHqUsKjl3bp1UTYbOLwvWrSE7du3n0sGGhkYCLkOPOHyFlIa6dq1QYM3VRr1UoUK6Q4drJkn1FkRvp2yZStYVbktgxpXu3ZteLC8WkptT3YAIxMRMYPNnj1XFvn8CdfBOsG+5/+zdx3gURVd+/ij0lE6AiIIBEGRJhLpIdJFqVI/lF5FOghGKSJVuoCUL4KCItJUQJoKhF6kKdIElI6AdJDiP+/sN5O5d+8mu8nuJoRznme508t7b3jmzGnKrXO5ctG2LfDAdu7cX2ZTma5fvy6Fh1eS6X//vSe9WV26xAbdbkBxASPACDACjAAjwAjctwh4JdnA7vbssTIRe/fudSvDbT70/e8XgloSDKM/++xTfRjH2r//Ptobk697gRQBLmabNWsi1bFatmwjJD/lafXqaPUo2L0gVomdoCoFI+NkyZIRGI+6dWvrJv/88w853fLrBjEknnrK5YIVTZYuXSZiVIyWBsRmuVN3U5UKsUggnQGBEQk2UwnvTgsXzhMMXHULo3Hz5k365JPp4tBeRUiNZkiPUE57CUTZxo2bLcMqKQsYRqjPKdq6dRvBMN9OVaq8LNYd9r9fJfne7W04zwgwAowAI8AIMAKMwP2MgFeSDWwQh0vTPSo8VP3yi5UBOXjwEOFQDGrRormWFiBwnSIY8prGwRERA+n48eMyiNyIEcPEgfYh2bR48WKqi7iBr0eIrQBCnI+JEyfLtDkHbElMmjFjqjjguVSZMIddKjBrVqTZXKd///2INOhGAQzFzTUhiJsiMAUlS7ry5prgjQp1itAHBuFFi0YbUMNl7JUrV1QTyxPxGRo1aiiMwR+1qDvB8B6Gv/Y1eYMTpFJwYQuCETWkOBkyZBAMTxrL3PYMpBdw46uYDFVvqlCpskA/7WsAY4t4FvgWoMaVEARVs169upH6vvv37yvefSPplcv0vAX7EicKCXG9E9QdOnSYTCcFTu29KcPfybRpU4SDA1drvGdFefLkFrFl1qksDRs2Ssbi0AWcYAQYAUaAEWAEGAFGwM8IeM1s2G0xINmAug8OSOpAY952Q32oTBlXZGz7ms1yeFkCs4ExypVzdgmLOtXHPHTGNEdo6It6Wsxx6pRLNUkXOiTg2rZHj946WndMa8qcOZM4ZGaSo5hrWrhwEb3xRjPtshVuWe0ENStPBIbCiQmYPHmq7BLTmjzhBKmKYjZSpEgea2R2tTbYjGzZso1MLFH33XfLVJOgP2GTAenM2LETpIQl6AswJrx9+7YMhjh8+FAtbYGqoUlr1qyVUiSzDGlItiABUbR58xaVjNczXbp0Ovq700D4RhRlyJBeJfnJCDACjAAjwAgwAoxAQBDwmtmAMTgOelD1AanYG3iq2AsmQwKPQd4QDIZBUIfBQds8uDv1R9AyRb7MAYkLVFmgomQSmCVIDXbt2iNjOFwTkaAVxWVNcBlbr14jGjTofSGNKWSRTkCigTgRs2d/qaZwew4dOoI6dmwnb8dRCR1+uHJVLnjjsqbx4z+mVKlSyeB9yZI9LKVHWOfcufNEZOu+cg03bji/r1WrVluYDfQ7cOCA27oDXXDhwkVh5L5AqLzNtgRgDPS8PXp01R6vYOcCaYpJMAiH5GrQoAEW5gHfNVwODxs2UjtXMPuZroZR7i9mw9u/CcxptoW3sXfe6a2/19DQUmjCxAgwAowAI8AIMAKMQLwQeChvSMF/nUY4fGAf5c9fyKmKy7xEAIwNopHDOBySFbhEtROMhBHdW1FIyLPywAcbBTA+cDHrL8KBEjffYLq8MUSG3ci4caO1VAnrGDlytFDTmeGvJSW6cR57LB1t3brRcV1RURsINjieKEuWLBQSkk8ag0MtCjh7oiZNGhE8aoHAxIeGliO4KE4ois++E2rNPC8jwAgwAowAI8AIJH4EvJZsJP6tJL4V4rAJGxBfCVIYSFv8TbBz8NYuYOLEcVS5criWZGEtuAmfO/crfy8rUY13754j7y3XaLf7sS8camfeuis2JRsHDx5MUEYD+4jPvu04cJ4RYAQYAUaAEWAEGAGFADMbCgl+WhCAZEWpzKECt+99+/YXMTKcDdstne/jDAz3w8IqOwYevHjRc+R3X7cMiZeiTZv8Y6+hxovLM1j7jsvauA8jwAgwAowAI8AI3L8IMLORwO9u9+69wobjC7kKU4c+gZclPTxBwgIbmiNHjtDMmZ/riOEJvbZAz+9P1TVPax006ENt43H48GFPzYJaHox9B3VDPBkjwAgwAowAI8AIJDgCbLOR4K+AF8AIMAKMACPACDACjAAjwAgkTQS8DuqXNLfPu2IEGAFGgBFgBBgBRoARYAQYgUAhwMxGoJDlcRkBRoARYAQYAUaAEWAEGIEHHIGg2GwgqnG/fn2EW9AQEQF8u4i63DfJGxrH9bvq1as7vfZaLRmJHYHrEMeByR0Bxskdk/iUpEyZQngam6PjbJhjIZL8+PETzaIklf766y8pTZo0bntaty6KhgwZ5lbOBYwAI8AIMAKMACPgPQLxZjYeffRRat68mQ6Wh0Bm9ngB7du3pRdeKCFXFRZWkapXryYDynm7zFKlSlLRokVlc7iSVQHuvO0fiHaBWBOYsTZtWunl9unTM8GYjWbNmsj4IHox/0usX79BBHT8xV4c1HxiwimoGw/gZPg7fuaZAo4z5MnzlGN5UinEZYhTMNGTJ08llS3yPhgBRoARYAQYgQRDIN7MRubMmal37x56A3v27KUNG6xB0VKnTqXrkYgp2Jml4f8ydevWoTp1XpO5HTt+1sxG4cLPiWjb7Z266DLM1adPPxkgTxf6IeG0JgTvGzZsCCF4nkkXLpwXcTMOESJQ//zzTrPKkk6TxorTnTueg8JZOgYgExHRz+L6Vk2RJk3qBGc2EhNOCpek9rx58xZdvXpVbuvMmbOO28uUKSN16tRBXAQUoYwZM0r3yDt37hKR3ufTunXrHfsEozBDhgzUtetbhP+bQPCmNmLERx6n/uOPP7VkA3tiYgQYAUaAEWAEGAH/IWA9FftvXMtIM2ZEUsGCz8iyfft+I6hl+IPy5n2awsPDYh3qww+H+Z3ZcJoUUZirVq3sVKXLFixYRIMHf+i4HrjBXbVqNZUoUZxu3fqHxowZr/txIhoBxikai0ClGjZsQvhb9UT58+ejqVMnU44c2S1Nnngim/wbgPrRZ5/NttQFI1O9elV6//13CQyHoiNH8sTIbFSpUkM1pZ49u1PbttHSRV3BCUaAEWAEGAFGgBGIEwJBYTaiojZQaGi5OC0wqXWqW7e2uAXOINSlOrhtDRG+O3bs4laeEAX16zcSalQuScvgwQPJDEKXEOsx50xMOJnrCkQ6S5YsNG7cRyLOyWe0fPlKKT0IxDy+jgkJnp3RUGNAJQmSsU2bNtPBg4dUcUCf6dKlpUGDBlCNGtUCOg8PzggwAowAI8AIMAK+IeATswG97ooVK1CBAiHSkHT9+vV0/PhJxxlz5XpS3tDbK69du04rVqy0F+t8vnx5CfYQOXLkIKhv+GIg3anT24SDqEl3796hU6dOyyKsPX36x2V65crVIqhadipTJlQcpJ8S+zhBP/20hg4dcg+wFtc1TZkylf788zgVK1aU6tWro9WSKlQoL7HZvn2HXAukIalSWVWoULFt23bZXzay/ZMsWTIh1akkJUZZs2ahv//+m2DPsmbNWhGQ7y9L6/Lly0o1FxRu2bKN7t27S6VLvyRVR65du0YbN24ie0A3qMMpOnPmjNfMRsmSL9DzzxembNmy0o0bNwgqKkuWLJNpNR7UW8qWLa2y9P33Kyz1GCNnzhyy/tixPwiqcyBfcYrL+4ahdPny5YQzg/xCjz8Z7d+/X6jtrRZRxStQ2rRp5TqQVypGsiCA/0BtDZIu/GArM2rUGDc1xQBO7zg07K+gwqhoyZKl0pAa9lhDhgxSxfTmm82pf//3dD6QCXxzzGgEEmEemxFgBBgBRoARiBsCXjMbWbNmFWoTk7Q6FKZr1661x6jSr776CnXp0tltVXfv3hNjFHYrRwEOJ32EUTQO0orgdejw4d9VNsbnDz/8GKM9yNChH0ipAgapWHG5MFSvahmvW7cuQo2iDy1btlyXx2dNsF3ZtGkLzZs3Xx4QR48eqcdt0qSR8MzlYjbGjx+jGRHdQCTgjWrSpClmkUxDMvLZZ58SmCA7Xbx4kfr2fZd+/PEnXQXJBNRbQGBGypUrazGIBVMAuxYc+uNKUCH75JNJVLx4MbchOnZsJ7yRRUgsUFm6dCgNH/6hbnf16jVth4PCIUMGUu7cuWU9dP9btWor077i5Ov7zpMnD02ZMpHy5Mkt51P/wA6hcOHC4rt0eYo+c6Z1ghz4Ycj86afTJXM4cuToBLOdqVmzuoJGqgO+804E3bx5U37ncHCQO7fLoPyVV2oEjdnQCxKJRYsW09mzf7E6lAkKpxkBRoARYAQYgQRCwOs4Gz17drMwGmq9MA71B+Gg16dPLwujgXEhTVH2Hv6YR41hZzRQ/sgjj4jDUV9t4O3PNX333VKLDnx81JIiIvo7MhrYQ/r06emDDwa64Yg6EKQqds87KVOmFAf8wQSGIa70wQeDHBkNjJczZ05xIz9cDw1G6J9//tH5ihWjVeyefDKnZjTQICYpmB7Ai4Q373vgwPfcGA0MjW9cMRpeTOXXJrDduXXrlmXMl14KpQULvhLuaMeI9eax1AUjY6pPrV0bJRkNSCLBCClGA+vAd/X44y5JYqDXdf36DSnBbNu2o3BY0U+41r4U6Cl5fEaAEWAEGAFGgBHwAgGvJBs48NeqVVMPh1tM3ILfu3ePqlWr4qgCtHjxt1I1CZ2gktK6dUvd3ylRu3Yty4Fu//4DBDerpUq9SM8+W8ipi1vZkiWL5ZrMii1bttKAAYPNIp3etWs3/fbbfqpUKUx4rskky6Ejj8Px0aNHyR9r0pOJBNSiFOOEw5mizp27avuIzp07ElTQYiKoZSmC9GTYsJFUpMjzwvB8gCzGXqDq9uuv+1QzyxOqYufOnZNrUYfBtGnTUJUqleXttKWxFxlIoipUiGYYIM2ZPXsO4VAMCQ4IuBYqVFCu6fLlK7R27Tp6+eVwWQe1JUVghhTBkxjsFBT5ipPqp54xvW+oloWGvqiaSjUpfOMPP/yw/MZTpEih61QCh2mnclWvnvg7uXTJdfgFM+gNXb9+XTIZJ06cECpclaV76caNG1kYQvztVa78smA8FgjGY5JQOzzjzdDxbpMtm0tKhoGOHTtGTZs2FrFzujv+PwCJGlT8Ak1QtQNOwJqJEWAEGAFGgBFgBBIPAl4xG9CfN2/Dp06dThMnTpa7wMHVdH2rtgZbBfxA0KeOjdkwb/qh1vP6642FHv9NKW3YuHEdwQA0Nnr6afdbXk8HHei/N2jQWA4JVZ2JE8fq4XFAArPhjzXpQUXiwoULOgtVqIceekga/JpxQ6B6EhuzYd50g2mBig/sLqpUqSkOxy4VNE+qZ7ChqFHjVbmO3EJVacWKJXpNuXLl0mlfEmAKGjf+jz54g4HDO4SaWO3ar+pDKJhOxQBB0qOYDajogTkCg2kyLRs2bLIcVH3FydxDbO9b4ab6DB06UjBeX8vs4cOHqUePbqpKPyMjpwtpTjTjpyscEuHhVcV7zUWRkdMcat2LFi36RvxdvSMr/vrrPI0ePU6oeE2jhg0bUIsWb0ibGFRC4tKgQX3BzFyO0eOS+wxxL4GbW0WIoRMTBdOVLDMaMb0JrmMEGAFGgBFgBBIGAa/UqOy3seZts7/UXMw51qxZJxkNQHL79m2L/UFMMOGwgYOv+bty5YpjF9P9Lg7qJimVGX+syRw3TZo0OovD4b///qvzviRM420wRLBxWLXqexEo8XNq1qyJlFp4Gtu0ywBDhQO+ogwZHldJn59gOmGv0b3728IuZLVQGdst7BrWakbDPuAPP/xEuL1XBCYjefLkQpJVShUJF8nLdDq+idjet+kqFd/R8uXL9ZRLlnyv02bi0UcfMbMxpqGih5+35DQ28IqMnCmZZOX0wNvx/Nnu2jVX/A37mGCKhg6NVpdD/ZUrzm3tfTnPCDACjAAjwAgwAkkTAa8kG/atwwhZ0cWL/leRMMfHPPa8mtv+fPbZojEaiJvtTZUTTwyJ2d6+BnvebOspjbggiqAeE1fCLTd0402PQBgLzBHUlqpWrUKvvPIanT8fLUlRc509e1Yl5fPMmbNSqmAp9DEDVaPZs2dKCZa3XaGKt1J4dXrttVqyC1SpIBFJkSK5zIPJNCUZ3o7rqZ0v7xtSPHhNU+Tp+4AqmjeHaTAvkPRcvnzZq/aY1+ndwZ6lVasWhICSCie1Rk/Mpar35xOMDqRiJsFrHOLH2KWLp0+7PMGZbTnNCDACjAAjwAgwAg8OAl4xG5AUmAT7gNWrf5RFRYo4e5Yy23uTNqNlY3yT7HmzLpBpf64JqlGmbcLJkyfjvHQwKo0aNZO2BHBhCwNmk5GBilalSpW0GpA50TPPFNBZHKoLFMiv8/AUFhcKC6toYTRgjwFGAgfmSZM8ByaEKpViNuDatWbNGnr6qKj14nDuLJXSjfyYMFXTMCw8ZkG9DgSpixO1a9fJqdhjGQ7pJUpES248NrRVwGapTZuWgomsarFrQjNIyKZNm06zZs229Qpc9vRpq20IbGmUhBOezhThezp37i+VlU+4Fh49epQuW7cuiubM+VLnOcEIMAKMACPACDACSQsBr5iNkydPWXbdtGkTgrEtDhPNmjW11MU1c+pU9BwwJH755UoEVZsyZVyH6biOG59+/lgTDLBh0D1gQITF7sVUZ/JljTiswX5AuQdGLA/EooDh+eLF8/VQ+fPn1WkzAYPiiRMnEd5ptWpVCfYSiuzvWZXH9jQ9EKFtly7dpYpUPRFbJCYCQwEJESQy2E+dOq/p5qbaky4MYAJxVkzq2rWLeF/JpOpTu3ZtzKqgpoHtwoXz3OaEZGjmzM8loxFMpgwL2bhxs+VdKbfK2bM/IWx3Guq1bt26zU3SmDdvXhEfJky3YcmHhoITjAAjwAgwAoxAkkTAK2YD6iK4pcaNOahs2dLCU9QamYaRsxO1aNFc3+QjiJsi2EOYRrIREQOF16rjFrewaDtp0gTpWQa3794S7ATs6iSQypQvX4mgT+4r7dv3m6WLr2uaNSvS0l9lfhfB93CrDwKmI0YMEwdbF44viIBpiuDlp2RJVx7G1hOFUT70/hs1el26BEY73LrDxgWBCU06ePCwmdVpuLf94YcV0vDatFNAA2W/YV+TGTujQYN6hHgPILWmo0ePybz655tvFkg1H3igionwbsB0mQdUtIeUYdWqHyxd7WuKDSdLZy8ysDkxv3GoqE2bNtmLnoFtYv/+EbQScVvwLeDvMiEIQfx69eomPLi5/q779+8rPFI1kkzjY489ppcE+xI7wRGASZs3bzGzcU7jm5w2bYpwuuAawvy28+TJLWK8rNNjDxs2Ssbi0AWcYAQYAUaAEWAEGIGAIeAVs4EDPG7QcahQ5InJUPXFihUTUonoKNGqHE+zHNGvwWzMn7+QOnRoK12kqrb2g5Yqj+lpXxfsCeC6Ny7krzWZc8MbVI8evbWLThyKypUrYzbRabiwVS55FRa4xV6yZJm+WYabXjAlJiEaeEz2DhjLPIyhL+wlEEEdFNOaUKfen1rTpk2bpSRDRUGHypi3BKbLzmyAeUJkc5NiWpMTTmZfb9KQFIwdO167Dzb7QP1J3d6b5cFM428QBvNjRaBHSLISkmBPM3z4KPEbqtW67DYcCB6pvidzrSazgT1t3rzVrI5zOl26dPoyxGkQ83vPkME798NO43AZI8AIMAKMACPACPiGgNdig1mzPpeuNU2D2CNHjsrI0LhtVQSPOSD1VOWenjCcBeGw16zZm7RD+MuHQS0IdStWrBLRsqP10U3DXQTyio1we/7PP64AcjduRBv92ten1oHx1Li+rgnzYD47weUtDuSffDJd2CjUo19++VU3wRxqv7rQIaHWhCpE4/744yluN9s4vC1fvpLefLOVxWWsORxuxREHQxHmjoraIFwTt9dSIV/XBANquL5VEg6o1129elUYjX8h963mMvegyhB7xO6e2MkLla9rwvi+vu+5c+dRp05vy+jgeGc41H/xxVwZVV6tN9jPCxcu0tdfLxAuhOtTt269gsZo9OjRVTJegwcPEN6v6rltGwbh7dp1kOp4ZiX+jmbO/Izat++svyez3mQ2Dh485LXzB3MMp7T979mpjSoz2+IyIiKin95r1aqVVTN+MgKMACPACDACjIAfEHgob0jBf53GOXxgH+XPX8ipiqCbffv2HbfDrmPjOBQiWBpukiEFMBmZOAzlty6JcU3YHNRW4P4Wh3tINOyGzmgDV7TqZn7ChI9pwoRJMk5DunSPiVgof2g3w2gbX4K60717/8ogdrExUZBCIYjflCkTtT0LGI/y5cMl8xnftfjSP41wS/zee/31OqZNm6HVypo3b0bvvuuKeYExq1evRZ7imPgyZ2JqC/W6rVs3Oi4JzGjLlp7tVqAuFxKSTxqDQx3NieFWAyNmDr4REC4R4MEqISk++07IdfPcjAAjwAgwAozA/YKAV2pU9s3E1ZDYPo6nPG5Hf//9iKfqBClPjGsCEIhMvXv3Hp8xgUchu1chnwdx6ODkstWhmQyGN23aJ4TI5SZBkgApRrAJUiFE5FYRwWELs2XLVsqUKZOMzq7WA4lHYvs21dri8wSD6IkQXT0mgjtlu0tlp/ZgMhSjgXp/qVA5zeVtWXz27e0c3I4RYAQYAUaAEXiQEYgTs/EgA8Z79w8CMC62MxpgmiZPnuqfCXwcBTYiU6dOF560OsuekBjBc5dJkNT06tXXUT3IbHc/pqEKFxZW2THwoL9i6UACpwjMHZi5hKZg7Duh98jzMwKMACPACDACCYkAMxsJiX6Q5p4z5wuhNpVNzpYYbpOxkBs3bkpVJBgbI9gdjMJh45EQUg31GiZOnEwHDhwSbpfDhMet56SzglSpUhICH+7cuVMyQgcOHFTNk9wTaniBpF279lCLFi51LLx3u61OIOeOaexA7zumubmOEWAEGAFGgBFI6gjEyWYjqYPC+2MEgAC8bcGuJCYbBEaKEWAEGAFGgBFgBBgBRsAzAizZ8IwN1zzgCMRm4P6Aw8PbZwQYAUaAEWAEGAFGIFYEvHZ9G+tI3IARYAQYAUaAEWAEGAFGgBFgBBgBA4GgSDYQ3bdfvz7CPWaIiDq9XRrZIjjd/Ua9enUXcTJqybgdY8dOIMQaYEpaCKRMmYLmzp3jGAhy6dLvafz4iUlrw8Zuvv76S4ILYDutWxdFQ4YMsxdznhFgBBgBRoARYAQYgVgRCAqz0b59W3rhhRJyMWFhFUWcgmriQDfPbXHNmjWh1KlTu5WvX7+B9u79xa28YMFnREyGcm7lMDJGEEJ4vPEXgVFq06aVHq5Pn54Jxmz4ipNeNCdiRQDR5p95poBjuzx5nnIsTyqFuBRQUeHNPQXa1bU5F6cZAUaAEWAEGAFGIGkhEBRmI3XqVBbUPBncIpIvDHLtlCZNakdmIzw8TLsqtfeZM+dLEXjwti4GEzNs2BBCxGCTLlw4Lz0Qwe3qzz/vNKss6TRprHu4cyfm2AOWzn7O+IqTn6d/oIa7efOWDJiITcMrlRNlypRRRB7vQEWLFhFxJDJKJnfnzl0i8vd8WrduvVOXoJRlyJCBunZ9i+BmGHTkyBEaMeIjj3MjiKaSbGBPTIwAI8AIMAKMACPACMQXAevJO76jeeg/Y0YkQQoB2rfvN4I6SrAJkYKrVq0c47QLFiySEY0Rc8FOu3fvpVWrVlOJEsVFlO5/aMyY8fYmnE+CCDRs2ER+s562lj9/PhGfYzLlyJHd0gQR2/G9Qf0IkbKDTdWrV6X333+XwHAoOnIkT4zMRpUqNVRT6tmzO7VtGy3J0xWcYAQYAUaAEWAEGAFGwAcEgsJsREVtoNBQd3Un+zrr128k1KhcEoTBgweSGQTM3hb5OXPm0rZt22VV8eLF5S2uUztvy+rWrS0jHLdp08Gty507d6hjxy5u5QlR4CtOCbFGf8+ZJUsWGjfuI5o58zNavnylX1Xk4rNWSMvsjIYaDypJkEJt2rSZDh48pIoD+kyXLi0NGjSAatSoFtB5eHBGgBFgBBgBRoARYAS8QcArZgO3pClSpJDjfffdUhH5OS2VKlVS5v/887hUcXrppVAROC6rLIuKWk8pU6aUUgD7Iq5du04rVqy0F8v8nj17dfmZM2diZTYuXLggDnJbZB9f7TOmTJlKWHuxYkWpXr06Wn2rQoXyct3bt++Q4+J2OlUqFwOkFycSYHLQ3xPlyJGDqlQJpyeffFIaGx879gf98suvtGHDRksXqLiULVtall25ckUGt8OacGMODA8cOEBg1kw3rL7ipCZ0RcXGmnLKPZ0+fUYY7O8QAet2qSbyCTuYjBldN+JY944dP+t6qNlUrhyu8zj4X79+XecDlYAqHaRK+MF+Z9SoMW5YBmpuT+PCDqlw4ed09ZIlS6UkA3ZJQ4YM0uVvvtmc+vd/T+cDmXj++cLMaAQSYB6bEWAEGAFGgBFgBHxCwCtmY+zYj/RhHIdTHGhGjx4pJ1q7dh21bt2eevToKstR+O6774voy5kd7Snu3r0nVKoK+7TIQDTGoR+Myrx58+WhVe0HczVp0kgewpEeP36M3jvyisaOnUCTJk1RWcsTh8vevXu42Yeg0bJly4VnrghSqloVKpSjDz8cLPvfunVLzlu69EuW8bDWTp3e1n0slV5mILWBWg0YGJPApH3xxVwaPnyUiOp9Q1a9915/ypXrSZnev/8A1apVR3epWLG8aPuhzh85ctSNWdGVAUrAkPnTT6fTxo2baOTI0Y72PAGa2jJszZrVdR7v8513ImQEdHxTcCaQO7fLoPyVV2oEjdnQCxKJRYsW09mzf7E6lAkKpxkBRoARYAQYAUYgqAh4FWfj2LFjelHZsmWjp59+WueffjqPTGfNmkWX/fbbfp2+HxKQ1sCWRFFs6luqndMTEom+fXs5MhpoDylR7dqvOnWl5MmTk53RQEOUtWrVwrGPN4XwrgSGxs5ooC8M8sFc1apVUw+1fPkKnS5QIISyZnVJrFBoev+C9GnXrt26bSATsJMBM2YSpGkLFnwlGcI8eVzfoVkf6LSpPrV2bZRkNCDRAiOkGA2sAbg//vjjgV6OHP/69Rt06tRpwWB0FAxvP7p8+VJQ5uVJGAFGgBFgBBgBRoARcELAK2Zj795fdV+oSj39dG6dz549uzxMZcrk8ngDT1O4DV+8+Ftx2HlH/qZP/69un1gTyvYD68OBUVHnzl31PuCtJzYqUuR5i/vQ9u07Ud26r1tu/8uWLeNxGByosZYdO6yeserXr+uxT2wVUA1TLk3xfj74YKg8iJouTaH6o+jbb5eopHwqBgNjlC9fVtdBSgPJCA7T6dOnj/UHNS5F3rRHGzBgoBMnTlBYWGWC+tulS5fVMPJZrVoV4XTgG6G6NNDCGFkaBSADxlsRGPKmTRvTkiWLHBlGGIwHg6DyBpx++mlNMKbjORgBRoARYAQYAUaAEYgRAa/UqGAjAFUQkIvZiJZs4ABasuQLlCyZi285cOCgvIGGPQN+IKhdtW7dUqYT6z+w/1AEewXc+OMgvXLlKlUsMVDqRbrQlrDfvuOgD8lJly7dtFvRv//+29YrOgsVNDBqIKh2KdwhOcLB2z5+dE/Pqa+++lob0l++fFkaK2MsxI3o0KGd7BgSkl8P8JuQTB0+/Dvlzet6zxUrlhPqZl/Ts88Wsng3Ul7FIiOnU/HiRXX/mBLh4VWFilYuioycFlMzXbdo0TeS2UPBX3+dF5iMEwzHNGrYsAG1aPGGthPC99egQX3JiMTk3lUP7IcE3NwqQiyZmChTpui2MbXzR51p3+OP8XgMRoARYAQYAUaAEWAE4oqAi0OIpTcMmxU98cQTFhURlJcuHaqqE0x/Xi8gjgkVXwDdcXPuq8G5mtY03kZZ48YNafbsmeKmeZW0dciZM6c8NKv25hMer1at+kEXQXKgCMxPXFVxLl68KJkUHNCnTPlYvKOfac+eHZrRUHOYT1O6ATWuhx9+mGBfoujEiZNaWvPoo4+o4lifjzzyCOHnLTmNDYP0yMiZgrloLFWGvB3L3+2uXbvqOCSYoqFDh1vqrlxxbmtpxBlGgBFgBBgBRoARYASSGAJeMRu//rpPH76LFSuqPVOhHATdeUUmY6LK7oenusXHWqGyE1c6evSYPGiCcTAJEiB4Lpo6dRK99VYns0qn4alLGY6j8OzZs7ouPonKlV8WAea+lLYi8ESFKNmxETwrKUJAxBIliglmo7wqEobu3+v0uXPnCIfp2H5g4mCEDulKbG1V/fnz0RInNSH2MGBAhJA6LSO7elJcmUQ1ti9P2EbY6ZtvvhN2ObUEI2a1ZTl92r2tvS/nGQFGgBFgBBgBRoARSGoIeKVGdfXqVYJOeu7cualQoYISAxy04IkKeRWwDxVwS3q/EVSjlF0C1n7y5Ml4bSEycpbAJkq6IC1WrJhwr1tExA9Jrcds0KAeTZjwsc6rBGIkZM/+hJj/lCwycUXBvXtxi1repUsnbbOBw/v8+Qtp9+49QjJQ18JAqHXgCZe3kNIo1661a7+m06hXKlRIt2vnzDyhzonw7ZQoUcqpKsYyqHG1adNSBMurqtX2VAcwMtOmTadZs2arooA/4TrYJNj3KLfO5cpF27bAA9u5c3+ZTWW6fv26FB5eSab//fee9GZ16RIbdLsBxQWMACPACDACjAAjcN8i4JVkA7vbs8fKROzdu9etDLf50Pe/XwhqSTCM/uyzT/VhHGv//vtob0y+7gVSBLiYbdasiVTHatmyjZD8lKfVq6PVo2D3glgldoKqFIyMkyVLRmA86tatrZv8888/5HTLrxvEkHjqKZcLVjRZunSZiFExWhoQm+VO3U1VKsQigXQGBEYk2EwlvDstXDhPMHDVLYzGzZs36ZNPpotDexUhNZohPUI57SUQZRs3brYMq6QsYBihPqdo69ZtBMN8O1Wp8rJYd9j/fpXke7e34TwjwAgwAowAI8AIMAL3MwJeSTawQRwuTfeo8FD1yy9WBuTgwUOEQzGoRYvmWlqAwHWKYMhrGgdHRAyk48ePyyByI0YMEwfah2TT4sWLqS7iBr4eIbYCCHE+Jk6cLNPmHLAlMWnGjKnigOdSZcIcdqnArFmRZnOd/v33I9KgGwUwFDfXhCBuisAUlCzpyptrgjcq1ClCHxiEFy0abUANl7FXrlxRTSxPxGdo1KihMAZ/1KLuBMN7GP7a1+QNTpBKwYUtCEbUkOJkyJBBMDxpLHPbM5BewI2vYjJUvalCpcoC/bSvAYwt4lngW4AaV0IQVM169epG6vvu37+vePeNpFcu0/MW7EucKCTE9U5Qd+jQYTKdFDi196YMfyfTpk0RDg5crfGeFeXJk1vEllmnsjRs2CgZi0MXcIIRYAQYAUaAEWAEGAE/I+A1s2G3xYBkA+o+OCCpA4152w31oTJlXJGx7Ws2y+FlCcwGxihXztklLOpUH/PQGdMcoaEv6mkxx6lTLtUkXeiQgGvbHj1662jdMa0pc+ZM4pCZSY5irmnhwkX0xhvNtMtWuGW1E9SsPBEYCicmYPLkqbJLTGvyhBOkKorZSJEieayR2dXaYDOyZcs2MrFE3XffLVNNgv6ETQakM2PHTpASlqAvwJjw9u3bMhji8OFDtbQFqoYmrVmzVkqRzDKkIdmCBETR5s1bVDJez3Tp0uno704D4RtRlCFDepXkJyPACDACjAAjwAgwAgFBwGtmA8bgOOhB1QekYm/gqWIvmAwJPAZ5QzAYBkEdBgdt8+Du1B9ByxT5MgckLlBlgYqSSWCWIDXYtWuPjOFwTUSCVhSXNcFlbL16jWjQoPeFNKaQRToBiQbiRMye/aWawu05dOgI6tixnbwdRyV0+OHKVbngjcuaxo//mFKlSiWD9yVL9rCUHmGdc+fOE5Gt+8o13Ljh/L5WrVptYTbQ78CBA27rDnTBhQsXhZH7AqHyNtsSgDHQ8/bo0VV7vIKdC6QpJsEgHJKrQYMGWJgHfNdwOTxs2EjtXMHsZ7oaRrm/mA1v/yYwp9kW3sbeeae3/l5DQ0uhCRMjwAgwAowAI8AIMALxQuChvCEF/3Ua4fCBfZQ/fyGnKi7zEgEwNohGDuNwSFbgEtVOMBJGdG9FISHPygMfbBTA+MDFrL8IB0rcfIPp8sYQGXYj48aN1lIlrGPkyNFCTWeGv5aU6MZ57LF0tHXrRsd1RUVtINjgeKIsWbJQSEg+aQwOtSjg7ImaNGlE8KgFAhMfGlqO4KI4oSg++06oNfO8jAAjwAgwAowAI5D4EfBaspH4t5L4VojDJmxAfCVIYSBt8TfBzsFbu4CJE8dR5crhWpKFteAmfO7cr/y9rEQ13r17jry3XKPd7se+cKideeuu2JRsHDx4MEEZDewjPvu248B5RoARYAQYAUaAEWAEFALMbCgk+GlBAJIVpTKHCty+9+3bX8TIcDZst3S+jzMw3A8Lq+wYePDiRc+R333dMiReijZt8o+9hhovLs9g7Tsua+M+jAAjwAgwAowAI3D/IsDMRgK/u9279wobji/kKkwd+gRelvTwBAkLbGiOHDlCM2d+riOGJ/TaAj2/P1XXPK110KAPtY3H4cOHPTULankw9h3UDfFkjAAjwAgwAowAI5DgCLDNRoK/Al4AI8AIMAKMACPACDACjAAjkDQR8DqoX9LcPu+KEWAEGAFGgBFgBBgBRoARYAQChQAzG4FClsdlBBgBRoARYAQYAUaAEWAEHnAE2GbjAf8AePvBRyBlyhTCq9ccHdPCXAGito8fP9EsSjLp2rVfpfbt27rtB84HOnToTEePHnOr4wJGgBFgBBgBRoARuL8RSFTMRrNmTWRMCjuk69dvEEEEf7EXU8GCz4iAguXcyhH4btaszx2Dqbk15gJGIMgIPProo/TMMwUcZ82T5ynH8qRQmCNHdnr66TyOW0mfPj0zG47IcCEjwAgwAowAI3B/I5ComI2IiH4Wd6sK2jRpUjsyG+HhYdSlS2fVzPKcM+dLun37tqUsc+bMNHBghJgjZu2xjz4aQwjKFixCtHGsLSZCFHF4hTKpevWqlC1bNlm0YsVKvwYANOfxJV2qVEl68803dBdEnp8w4WOdtyeyZctK1atXk8Vnz56jJUuW2psk+fzNm7fo6tWrcp9nzpx13G+mTBmpU6cOVLRoEcqYMaNkpHfu3CWiqs+ndevWO/YJdGGhQgWpbdvWknECIwFvVtu3bxfR0LfSt98ucWP2EdRSBbZMluz/CAwGEyPACDACjAAjwAgkbQQSFbMRaKizZs1CL78cHus0OMAFk9moVq0KPf744zGu64sv5roxG127dqE8eXLLfn///TctXLhYphPyn9dee5XABCp66aVSjYkdQwAAQABJREFU9Mkn0whudJ2oRIkS9M47vWXViRMnHkhmo2HDJrRv329O8Miy/Pnz0dSpkwkHepOeeCIbVa1amYYMGUaffTbbrAp4umnTRhQR0V+6RlaTQWqBX4MG9UVE9FL07rvvi2CB91S1UB2bJ38oSJ48Oe3Zs0PXcYIRYAQYAUaAEWAEkiYCMV/xB3nP9es3oubNW8jfsWN/xDr7nDlzdfuxYyfE2p4bBBYBBAGsWLGCZZJUqVIRpB33A731VkcaPHgAZcmSJVEtd9iwIW6Mhlog4qBAIgiGJFiUL19e6tevr4XRsM9dv35dqlWrpr2Y84wAI8AIMAKMACPwgCHgs2QDN/Avv1xJ3mBmypSJzp8/L1ScfiWo8djVloAljGFxAM2XL59Q/8hAp06dJk82GHv27NXwnzlzhswoy7rCSFy4cIFU9GUYmfpKo0aNpoMH3dWlNm92j+hcuvRLUl3kySdziijal4WU4Sh9//0Kgn2IomTJklHNmtUJT5NWr/5BHMySUcOG9YUkIo88pO3ff4BmzIiUzdq160Tp0qWTKmRTp07SXb/88itavfpHmd+yZat85siRg3LlelKmM2TIoNs+/3xhOn36jM4DS6Waowq9eRdgGKDWlDz5o0Ll5S86c+acPDRevXpFqOwskEbNderUlhG25879yjIn1gB1HztVqhRmUfXBHC+++ILEpGjR53VzqNW89FKozkNaE9ONv27op0TevE9TjRrVCdIZ2PxMmzadLl267KfR4zbMCy+UoMKFn9OdoWYGSUZYWEXxHKTL33yzOfXv/57OBzJRqVJFS4T1iIgBtHz5SvFOS9K4caPF9++6wyhT5iVavPjbQC6Fx2YEGAFGgBFgBBiBRI6AT8wGVJCGDBnoqGuNw3fr1u3ozz+P6y2Hhr5IQ4e638pC/Qced6BeY6pZ6I5BSqxZs45w6I+Jsmd/gkaMGCoPUvZ2bdq0oq5dewiG5ZCsgv3EqFHD7c2kOsnbb78l7DIy6Tp43lHMxs8/75TlOISbtGPHTlqzZq1ZRN27v+14Y9y0aWPCT1G/fhGSOVB5b99F6tSpaezYUbLbjRs3pN49pBOgMmVKS9sSHMpBrVq1ELiU1gxXpUoVRak7gdkcOPADXQEm8rPPPtV5lcA8M2fOUFnJmFaoELvam+7gp0SKFMmFLUIratTodclwIHq6yVT6aRqvhgHzqujatWtC5SxCrmXevPmE7y937qdk9Suv1Agas/Hkky5mFxODCYZ6FAgXDjt37qQSJYrLPC4YmBgBRoARYAQYAUbgwUbAdQXpBQZQLRk1apgjo4HuefLkppEjow/aMHieMGGso/oHbj67desiDqDBuYnF+uJCOPyPHDnMkdHAeFBdmT//K3r22UL/G95ZutKhQ1sLoxGXtcSnT1zfRcqUKUkxGpgfeviK0UAeh/IXXnAdLJGHBEPRJ59MV0n5DRQoEKLziTVhl2KkS5eWevToRqtWLZOMh11iFYx9mHYaa9dGSUYD0q1PP52uGQ2sA+8qNrsff613woRJwi6jsfx16vS2HvaRRx4RUrdcOn/q1Cmd5gQjwAgwAowAI8AIPJgIeC3ZaN68meXg+dVXXwvPMzvEgaOeOHCWkOgVL16UoGYE6QbaP/bYY7L87t274oZ4hig/QXXqvKrb16tXh8aMGU9Qh0oIeuON/1gkMVgDpBSrVq2Wy4FKT8mSL+iloS4qagPBMLdKlZelOhQO3C1bvikOpb2lN55XX61LDz/8sLi5j9RufHE4BOF2HN6GoP5kV3HSk8SSgCrTgQMHZSt4J8L8oE2bNgv1tI0yjX+U2hXSvrwLuyE3btDr1HlN7gljbdy4STAP0apcTz31lMQEEiCToYAaUoMGdeVe0Q9qP0qKBHWvkSNHS/zwzaBO0UcfjVVJOnfunE7jMJ0iRQqd95SApOzSpUuy2ltvR9evX6dbt27R++8Poh9++ElIDFpaGEww2vAYhvcM26ClS5d5mt7v5crbGAY+duyYlF716tXd8reoJsV3CdWzQNPZs2cJPzsNGBBhYaq/++7B8yxmx4TzjAAjwAgwAozAg46A18wGjEIVwZ4CnmZAONQuX75EH0ZxOAKzgRgYimA/MHWqSz3m0KFDQu3C5TkHh3KMu2VLwjAbMGK1E9x2KmbDjIUAm5AWLdroQxbUfcCMgKIlG0S//bZfluGWHCpJisaNm0DTp0fKQy3K4npLjsM+fqC6dWtrb1TQmZ89+wtZbv/Hl3cBV7WK8B5hB4B3VKxYUVk8aNAQ4QGpilAfe0s1k8+wsAo6D6YMjAKwhHteUKVKFWnKlKlISqYLzCeoZs0amtm4ePGiVK2TFbZ/IiOnExgTbyg8vKq8YY+MnOZNc1q06Bvq3fsd2RZqa/gVKfK8VFOCfRKMsEFQWYKK2Y8//kg3btyUZYH+B25uFTkFxFN1eDrZy5j1gUz37NldXjyoOeCOFzZNTIwAI8AIMAKMACPwYCPgNbORM2e0201llA3o4Fv/ueeKuaGI+AmKEBtgx47NKmt5wmg8sRJu6xXt3r1HMxooW7FilWY2zAOham8+ly1bTh9/PMUsIkh7gkVxfRdXrlyRS4TthqIrV66Kg/Z1ldXPsLBoFSr0w2HdtHOA8Tje9fnzcWMsH330ET1XbAmo8+DnLTmNvWvXburc+W0pFXr3XRcj4u14/mx37dpVi7RAjY14FTBgf+edPqqI8G4SgmBHBBsXRb//fkRK+sCgMzECjAAjwAgwAozAg42A18wGvCkpOn78hEre189PP53lFrUYhu5OBC9aJp0+bc2bdfZ0VNR6e1GSysOuAwboiooXL0bz5lmlLJAOwFB8/vyFqplPT0hKvDlMQ40KzBE8hnnTHouwM0CQOtWoUU1KNkzplk8L9lNjfHe5c+e2jPbNN98JF70fukXj9uWbtAwYjwwkGiajAccH//lPi6Coc8Vj2dyVEWAEGAFGgBFgBIKEgNfMBvTaFZUoYZVklC9fVqtRQcUHKiamG1zowX/66UzV3fLEDXJCEQ6+yo7AaQ137tzRxcWKFZGuadVtbbFi0RiYe9UdjERCHAKN6X16F8mSef1J6CngperRRx/VeU+JSpUqxpnZgHtgXwiH9BIlSvnSRbpprl+/nrDNeEPapdg7b9iwUThJGBM0FSrMb7ozRr5z567S6xPS5cqVxUPS3bv3hOraXyorn3B1PHq0y7MYCtati6I5c760tIlPpnfvHsIDXUs9BAJhvvFGK4utja7kBCPACDACjAAjwAg8kAh4fbL8448/CaowIOjvw40rDjdly5YWtgifaPBg14A4GidPntS2DPBgtGXLNunmNm3atEI/voc+nGLcGzdO6f6JKXHyZPS6smbNShUqlKefflojDd+rVq2sl3r48O867ZRQDIpTXXzKTFUsqKp5stnw5V1cvuxSnfJlXZUqVdTNoVYHF6iKSpV6kQoVKiiziikxjdDv3YtWJ4NDAdhF4HY8IeiDDwY5uhWGzRGYDGUrE8y1bdy4WRroqzlhBA6Cil/jxg1VMW3dus1NNS9v3ryWaO7+ZHoR9b1Fizf0/LD1wd/+xYsXdRknGAFGgBFgBBgBRoAR8JrZwEELvvxByZMnF8G6FtAff/wh7DWe1SjidhW2DSAckipXflmmEVfhhx9WCIPhLZJhMd2nTp7sMhqGPv+IEcOEMe5Dsg9UcRTB45WaBx6wJk6cLKtatGhO5cuXk+knnoi2r0DBjBlTxeHLJZmIiBhIx48fl+18+Wft2ijJICkDYQTcgz569uzZtRcojLdlyxY9bIcO7YQHpvTSY5UqRDwKMCogeJOyS1NWr14uD49Err2rfiNGfCjilAyWWaimbNu2XVXJJ27v8wnjbdBrr9UiMByIvA6JDNRsTpxwqbv59i58YzbgHljtDeuApyZ4mlIEI/wPP3TtAepWiCYO42FFpnoacP7mm4XiG9otDOn/kR62lCG5ah/IpwpGp+bAux4zZpwMWKfKgv1EEL9evboJ5j6znLp//77CI1Uj6YJaeXtDRWSku+TQ9A6GNk7BKlHuK2F+k9FAfzCUK1cuswwF257y5cNlrBZLBWcYAUaAEWAEGAFG4IFBwGtmY8GCRdJYVh1gMmXK6Ob95r//jRR68q7DKlymIsicYixwEwsXqiYtXvytuMU+KovgDrZcuTJmtU6jDrfiIHXwRxqqTKoceZNMG4KsWbPEidnA2uCaFzFB1LxPP53HnEauf9q0/+qyli3fFJKPdDqPBNao1glVEzuzkTZtGo/eqZTXKjPehRp85cpVFszA1OEHgj2KYjZ8eRdp0qRRw3v1xHvFt6DIfvtvOhNAG8TiMJkNeO+C1yu4TAbBlS8iUYOgBhRMZkNOKv4BAzRx4iTCN29Kj1R9MJ9Q0Rs+fJT4DdWRue02HPCeBYmbndTfKsohXYN3MH8QpHxOhLgkJiEPZjRQkj1zLk4zAowAI8AIMAKMQOJEwGtmA4euxo3/QxER/YTr08oWP/8wxEU0bEQEV4S4BY0aNRUuctG+ikUSgFgAM2d+JlyhRreH5yIY96pDvRrH/rx+/YYuMu1IdKFDQnlTwhMHH3UAwhpjI+wJUZERsBBenVR/HALBLOEW3/S6hDnszIY5h1qLWYY9xRaQzanf3LnzpJTp9dfry8B5VoYk2hOQL+8C0iCoOcEGQ82pcMY3gH2b78DcK+ogeTIJEiWoVqngdHZmDdi1bduBEGEdtkAZMmTUh+pgH1IhAdq1a4+0a/Dm2zD3GZ90jx5dJYODMXbv3iOM6+dbhoNBOP5mBg0a8D8JmKsa7wfxboYNG+l4oDeZDbgj9peK07Vr0fZbloXaMubfBargICA8PEy2euSRR2ytOcsIMAKMACPACDACSRGBh/KGFIw+lRo7PHxgn4iQrSJjGxUiidv2kJD88ub5zJlzwoj1dIw3wAjIlivXkyLuRCoZ1A43x2As7jdCcDfcvMMz159//hnjnhNib0oKEtNtfGJ/F2AEwXDi+wg2sxGsdwYGbevWjY7TIWhky5ZtHOtQiG8wJCSftJc6JKRkMb3rjRvXSXfD6PfZZ7Olah3SCUVwIYwAk07UsGFT+vnnnU5VXMYIMAKMACPACDAC9zECXks2zD3igLNv329mUYxp3MDaVYdi7JBIK52iJiempcZ08FTrTOzvAgyGN/tQ+7kfn/fuOfL3ciumwbzT3jxF77a3hQ2UGcPGXypU9nl8ycOmyxMl9Xfuad9czggwAowAI8AIJHUE4sRsJHVQeH+MQCARuHLlioiaXtkx8ODFi3/7ZWplu4PBwMBt2eIfe434LG78+In0xRfOrncTygNZfPbDfRkBRoARYAQYAUYgdgSY2YgdI27BCPgdAdixBJJgewJXtCDY0sDmI6Hp2rVrhB8TI8AIMAKMACPACDw4CDCz8eC8a97pA4QA1JIQ74aJEWAEGAFGgBFgBBiBhETg/xJycp6bEWAEGAFGgBFgBBgBRoARYASSLgLMbCTdd8s7YwQYAUaAEWAEGAFGgBFgBBIUgaCoUSH6d79+fYTLzhARh2G7iIjcly5f9i1SdYKiFMTJe/XqLqOBI9bF2LETRETt74I4+/0zFePk33eFAIpz586R8VXsIy9d+j3BuDup0tdff0lOwSzXrYuiIUOGJdVt874YAUaAEWAEGIGgIBBvZgPB3+A7X8V4QJAxe/Cw9u3b0gsvlJAbCgurSNWrVxMHm3leb7BUqZJUtGhR2f73348QImcnNAViTWDG2rRppbfWp0/PBGM2mjVrIuKipNZrUQnYAezd+4vKJsgzMeGUIAAEYFL8HT/zTAHHkfPkecqxPKkU4jLEKZjoyZOnksoWeR+MACPACDACjECCIRBvZiNz5szUu3cPvYE9e/bShg3WgGUI5meSrz7169atQ3XqvCaH2LHjZ81sFC78HHXs2N4c2i2Nufr06ed3LzhOa8LhfNiwIfTww1ZYL1w4TwcOHJLRoWMKXJYmjRWnO3fuuu0nWAWIFI8Ae3ZKkyZ1gjMbiQknOz5JJX/z5i26evWq3M6ZM2cdt5UpU0bq1KmDuAgoImJ6ZJQudnfu3EVffz2f1q1b79gn0IVxWdMff/ypJRvoz8QIMAKMACPACDAC/kPAeir237iWkWbMiKSCBZ+RZQgGCLUMf1DevE9TeHhYrEN9+OEwvzMbTpMiMnTVqpWdqnTZggWLZCRnJxegu3fvpVWrVlOJEsXp1q1/aMyY8bofJ6IRYJyisQhUqmHDJjEG7syfPx9NnTqZcuTIblnCE09kk38DUD9C1PJgUlzXVKVKDb3Mnj27U9u20dJFXcEJRoARYAQYAUaAEYgTAkFhNqKiNlBoaLk4LTCpdapbt7aM7NymTQe3rd25c0dIarq4lSdEQf36jYQalUvSMnjwQDKDxCXEesw5ExNO5roCkc6SJQuNG/cRzZz5GS1fvlJKDwIxj69jQoJnZzTUGFBJgmRs06bNdPDgIVUc8GdiXFPAN80TMAKMACPACDACiRwBn5gN6HVXrFiBChQIkYak69evp+PHnYOT5cr1pLyht+//2rXrtGLFSnuxzufLl5dgD5EjRw6C+oYvBtKdOr1NOIiadPfuHTp16rQswtrTp39cpleuXE3Zs2enMmVCxUH6KbGPE/TTT2vo0KHDZneZjuuapkyZSn/+eZyKFStK9erV0WpJFSqUl9hs375Djg9pSKpUVhUqVGzbtl32l41s/8BGJjy8kpQYZc2aRQZtgz3LmjVr6dy5vyyty5cvK9VcULhlyza6d+8ulS79klQdgYRl48ZNZA8yB3U4RWfOnPGa2ShZ8gV6/vnClC1bVrpx4wZBRWXJkmUyrcaD6l3ZsqVVlr7/foWlHmPkzJlD1h879gdBdQ7kK05xed8wlC5fvpxwZpBf6PEno/379wu1vdUi4ncFSps2rVwH8krFSBYE8B+orUHShR9sZUaNGuOmphjA6R2Hhv0VVBgVLVmyVBpSwx5ryJBBqpjefLM59e//ns4HMpEY1xTI/fLYjAAjwAgwAozA/YKA18xG1qxZhdrEJK0OhQ22a9eaoKPtRK+++gp16dLZreru3XtijMJu5SjA4aSPMIpWxuYog9ehw4d/RzJW+uGHHykme5ChQz+QUgUMVLHicmGoXtUyZrduXahnzz60bNlyXR6fNcF2ZdOmLTRv3nx5QBw9eqQet0mTRsIzl4vZGD9+jGZEdAORgDeqSZOmmEUynTFjBqGi8imBCbLTxYsXqW/fd+nHH3/SVZBMQL0FBGakXLmyFoNYMAWwa8GhP64EFbJPPplExYsXcxuiY8d2whtZhMQClaVLh9Lw4R/qdlevXtN2OCgcMmQg5c6dW9ZD979Vq7Yy7StOvr7vPHny0JQpEylPntxyPvUPvvHChQuL79LlKfrMmdYJcuCHIfOnn06XzOHIkaMTzHamZs3qChqpnvjOOxF08+ZN+Z3DwUHu3C6D8ldeqRE0ZiMxrkmDxAlGgBFgBBgBRuABRsDrOBs9e3azMBoKMxiH+oNw0OvTp5eF0cC4kKYoew9/zKPGsDMaKH/kkUfE4aivNvD255q++26pRQc+PmpJERH9HRkN7CF9+vT0wQcD3XBEHQhSFbvnnZQpU4oD/mACwxBX+uCDQY6MBsbLmTOnuJEfrocGIwTXvooqVoxWsXvyyZya0UB9TFIw1d+bpzfve+DA99wYDYyNb1wxGt7M5c82sN25deuWZciXXgqlBQu+Eu5ox4j15rHUBSNjqk+tXRslGQ1IIsEIKUYD68B39fjjLklioNeVGNcU6D3z+IwAI8AIMAKMwP2AgFeSDRz4a9WqqfeDW0zcgt+7d4+qVaviqAK0ePG3UjUJnaCS0rp1S93fKVG7di3LgW7//gMEN6ulSr1Izz5byKmLW9mSJYvlmsyKLVu20oABg80ind61azf99tt+qlQpjDJnziTLoSOPw/HRo0fJH2vSk4kE1KIU44TDmaLOnbtq+4jOnTsSVNBiIqhlKYL0ZNiwkVSkyPPC8HyALMZeoOr266/7VDPLE6pi586dk2tRh8G0adNQlSqV5e20pbEXGUiiKlSIZhggzZk9ew7hUAwJDgi4FipUUK7psoixsnbtOnr55XBZB7UlRWCGFEFKBTsFRb7ipPqpZ0zvG6ploaEvqqZSTQrf+MMPPyy/8RQpUug6lcBh2qlc1asn/k4uXboks2AGvaHr169LJuPEiRNChauydC/duHEjC0OIv73KlV8WjMcCwXhMEmqHZ7wZOt5tsmVzSckw0LFjx6hp08ZSAumkCgiJ2t9//x3vOWMbIDGuKbY1cz0jwAgwAowAI/AgIOAVswH9efM2fOrU6TRx4mSJDw6uputbBRpsFfADQYc/NmbDvOmHWs/rrzcWevw3pbRh48Z1lC6dS19eje/0fPpp91teTwcd6L83aNBYDgNVnYkTx+ohcUACs+GPNelBReLChQs6C1UouJb9999/LSpEUD2Jjdkwb7rBtEDFB3YXVarUFIfjZHIOT6pnsKGoUeNV2Sa3UFVasWKJXlOuXLl02pcEmILGjf+jD95g4PAOoSZWu/armhkF06kYIEh6FLMBFT0wR2AwTaZlw4ZNloOqGV/FG5zMPcT2vhVuqs/QoSMF4/W1zB4+fJh69OimqvQzMnK6kOZEM366wiERHl5VvNdcFBk5zaHWvWjRom/E39U7suKvv87T6NHjhIrXNGrYsAG1aPGGtIlBJSQuDRrUF8zMZRox4iP3gQJQAje3ihBDJyYKlivZxLimmHDhOkaAEWAEGAFG4EFBwCs1KvttrHnb7C81F3OONWvWSUYDL+H27dsW+4OYXgxukHHwNX9Xrlxx7GK638VB3SSlMuOPNZnjpkmTRmdxOASjERcyjbfBEMHGYdWq70WgxM+pWbMmUmrhaWzTLgMMFQ74ijJkeFwlfX6C6YS9Rvfubwu7kNVCZWy3sGtYqxkN+4A//PAT4fZeEZiM5MmTC0lWKVUkXCQv0+n4JmJ73xkyZNBT4Dtavny5zi9Z8r1Om4lHH33EzMaYhooeft6S09jAKzJypmSSldMDb8fzZ7tr11zxN+xjgikaOjRaXQ71V644t7X3jW8+Ma4pvnvi/owAI8AIMAKMQFJAwCvJhn2jMEJWdPGi/1UkzPExjz2v5rY/n322aIwG4mZ7U+XEE0NitrevwZ4323pKIy6IIqjHxJVwyw3deNMjEMYCcwS1papVq9Arr7xG589HS1LUXGfPnlVJ+Txz5qyUKlgKfcxA1Wj27JlSguVtV6jirRRenV57rZbsAlUqSERSpEgu82AyTUmGt+N6aufL+4YUD17TFHn6PqCK5s1hGswLJD2XL1/2qj3mdXp3sGdp1aoFIaCkwkmt0RNzqer9+QSjA6mYSfAaN3jwh2SXLp4+7fIEZ7YNRDoxrikQ++QxGQFGgBFgBBiB+w0Br5gNSApMgn3A6tU/yqIiRZw9S5ntvUmb0bIxvkn2vFkXyLQ/1wTVKNM24eTJk3FeOhiVRo2aSVsCuLCFAbPJyEBFq1KlSloNyJzomWcK6CwO1QUK5Nd5eAqLC8HlKVTlFMEeA4wEDsyTJnkOTAhVKsVswLVrzZo11BAUFbVeHM6dpVK6kR8TpmoahoXHLKjXgSB1caJ27To5FXssw4G4RIloyY3HhrYK2Cy1adNSMJFVLXZNaAYJ2bRp02nWrNm2XoHLnj5ttQ2BLY2ScMLTmSJ8T+fO/aWy8gnXwqNHj9Jl69ZF0Zw5X+p8XBPxWVNc5+R+jAAjwAgwAowAIxA7Al4xGydPnrKM1LRpE4KxLQ4TzZo1tdTFNXPqVPQcMCR++eVKBFWbMmVch+m4jhuffv5YEwywYdA9YECExe7FVGfyZY04rMF+QLkHRiwPxKKA4fnixfP1UPnz59VpMwGD4okTJxHeabVqVQn2Eors71mVx/Y0PRChbZcu3aWKVD0RWyQmAkMBCREkMthPnTqv6eam2pMuDGACcVZM6tq1i3hfyaTqU7t2bcyqoKaB7cKF89zmhGRo5szPJaMRTKYMC9m4cbPlXSm3ytmzPyFsdxrqtW7dus1N0pg3b14RHyZMt/GX5CM+a9KL4QQjwAgwAowAI8AI+B0Br5gNqIvglho35qCyZUsLT1FrZBpGzk7UokVzfZOPIG6KYA9hGslGRAwUXquOW9zCou2kSROkZyncvntLsBOwq5NAKlO+fCWCPrmvtG/fb5Yuvq5p1qxIS3+V+V0E38OtPgiYjhgxTBxsXTi+IAKmKYKXn5IlXXkYW08URvnQ+2/U6HXpEhjtcOsOGxcEJjTp4MHDZlan4d72hx9WSMNr004BDZT9hn1NZuyMBg3qEeI9gNSajh49JvPqn2++WSDVfOCBKibCuwHTZR5Q0R5ShlWrfrB0ta8pNpwsnb3IwObE/MahojZt2mQvega2if37R9BKxG3Bt4C/y4QgBPHr1aub8ODm+rvu37+v8EjVSDKNjz32mF4S7EvsBEcAJm3evMXMxjkdnzXFeVLuyAgwAowAI8AIMAKxIuAVs4EDPG7QcahQ5InJUPXFihUTUonoKNGqHE+zHNGvwWzMn7+QOnRoK12kqrb2g5Yqj+lpXxfsCeC6Ny7krzWZc8MbVI8evbWLXhz4y5UrYzbRabiwVS55FRa4xV6yZJm+WYabXjAlJiEaeEz2DhjLzmjAXgIR1EExrQl16v2pNW3atFlKMpTrU6iMeUtguuzMBpgnRDY3KaY1OeFk9vUmDUnB2LHjtftgsw/Un9TtvVkezDT+BmEwP1YEeoQkKyEJ9jTDh48Sv6Farctuw4Hgkep7MtdqMhvY0+bNW83qOKfjs6Y4T8odGQFGgBFgBBgBRiBWBLwWG8ya9bl0rWkaxB45clRGhsZtqyJ4zAGppyr39IThLAiHvWbN3qQdO37WB3HUrVixSkTLjtZHNw13r1939fU0Nspxe/7PP64AcjduRBv92ten1oE+alxf14R5MJ+d4PIWB/JPPpkubBTq0S+//KqbYA4YEMdGak1oh2jcH388xe1mG4e35ctXikjsrSwuY82xcSuOOBiKMHdU1Abhmri9lgr5uiYYUMP1rZJwQL3u6tWrwmj8C7lvNZe5B1WG2CN298ROXqh8XRPG9/V9z507jzp1eltGB8c7w6H+iy/myqjyar3Bfl64cJG+/nqBcCFcn7p16xU0RqNHj66S8Ro8eIDwflXPbdswCG/XroNUxzMr8Xc0c+Zn1L59Z/09mfUms3Hw4CGvnT+YY3hKx2VNuIyIiOin91q1amVPw3M5I8AIMAKMACPACMQBgYfyhhT816nf4QP7KH/+Qk5VBN3s27fvuB12HRvHoRDB0nCTDCmAycjEYSi/dUmMa8LmoLYC97c43EOiYTd0Rhu4olU38xMmfEwTJkyScRrSpXtMxEL5Q7sZRtv4EtSd7t37Vwaxi42JghQKQfymTJmo7VnAeJQvHy6Zz/iuxZf+cEv83nv99TqmTZuh1cqaN29G777rinmBMatXr0We4pj4Mmdiagv1uq1bNzouCcxoy5ae7VagLhcSkk8ag0MdzYnhVgMjZg6+ERAuEeDBKhDk7Zris+9ArJvHZAQYAUaAEWAEkhoCXqlR2TcdV0Ni+zie8rgd/f33I56qE6Q8Ma4JQCAy9e7de3zGBN577B58fB7EoYOTy1aHZjIY3rRpnxAil5sESQKkGMEmSIUQkVtFBIctzJYtWylTpkwyOrtaDyQeie3bVGuLzxMMoidCdPWYCO6U7S6VndqDyVCMBur9pULlNJe3a4rPvp3m5TJGgBFgBBgBRoARsCIQJ2bDOgTnGAHfEYBxsZ3RANM0efJU3wfzQw/YiEydOl140uosR4PECJ67TIKkplevvo7qQWa7+zENVbiwsMqOgQf9FUsHEjhFYO7AzCU0BWPfCb1Hnp8RYAQYAUaAEUhIBJjZSEj0gzT3nDlfCLWpbHK2QN4m+7KdGzduSlUkGPYi2B2MwmHjkRBSDbXuiRMn04EDh4Tb5TDhces56awgVaqUhMCHO3fulIzQgQMHVfMk94QaXiBp16491KKFSx0L791uqxPIuWMaO9D7jmlurmMEGAFGgBFgBJI6AnGy2UjqoPD+GAEgAG9bsCuJyQaBkWIEGAFGgBFgBBgBRoAR8IwASzY8Y8M1DzgCsRm4P+Dw8PYZAUaAEWAEGAFGgBGIFQGvXd/GOhI3YAQYAUaAEWAEGAFGgBFgBBgBRsBAICiSDUSc7tevj3CPGSKiTm+XRrYITne/Ua9e3UWcjFoybsfYsRMIfv2ZkhYCKVOmoLlz5zgGgly69HsaP35i0tqwsZuvv/6S4ALYTuvWRdGQIcPsxZxnBBgBRoARYAQYAUYgVgSCwmy0b9+WXnihhFxMWFhFEaegmjjQzXNbXLNmTSh16tRu5evXb6C9e39xKy9Y8BkRk6GcWzmMjBGEEB5v/EVglNq0aaWH69OnZ4IxG77ipBfNiVgRQLT5Z54p4NguT56nHMuTSiEuBVRUeHNPgXZ1bc7FaUaAEWAEGAFGgBFIWggEhdlInTqVBTVPBreI5AuDXDulSZPakdkIDw/TrkrtfebM+VIEHryti8HEDBs2hBAx2KQLF85LD0Rwu/rzzzvNKks6TRrrHu7ciTn2gKWznzO+4uTn6R+o4W7evCUDJmLT8ErlRJkyZRSRxztQ0aJFRByJjJLJ3blzl4j8PZ/WrVvv1CXgZYUKFaS2bVtLxilHjuwy4COkivBG9u23SxwZcQTRVJIN7ImJEWAEGAFGgBFgBBiB+CJgPXnHdzQP/WfMiCRIIUD79v1GUEcJNiFScNWqlWOcdsGCRTKiMWIu2Gn37r20atVqKlGiuIjS/Q+NGTPe3oTzSRCBhg2byG/W09by588n4nNMJhzoTULEdnxvUD9CpOxgUtOmjSgiIjoaOuZ++uk88tegQX0KDS0lIqK/LyK937Msq0qVGjrfs2d3waxES/J0BScYAUaAEWAEGAFGgBHwAYGgMBtRURvEAcdd3cm+zvr1Gwk1KpcEYfDggWQGAbO3RX7OnLm0bdt2WVW8eHHq2vUtp2Zel9WtW1tGOG7TpoNbnzt37lDHjl3cyhOiwFecEmKN/p4zS5YsNG7cRzRz5me0fPlKx5t5f8/pzXiQltkZDdUPKkmQQm3atJkOHjykigP6zJcvr7CP6uuoDqUmrl+/rpBwbKHFi79VRfxkBBgBRoARYAQYAUYgIAh4xWxUr16VUqRIIRfw3XdLReTntFSqVEmZ//PP41LF6aWXQkXguKyyLCpqPaVMmVJKAeyrvnbtOq1YsdJeLPN79uzV5WfOnImV2bhw4YI4yG2RfXy1z5gyZSph7cWKFaV69epo9a0KFcrLdW/fvkOOi9vpVKlcDJBenEiAyUF/T5QjRw6qUiWcnnzySWlsfOzYH/TLL7/Shg0bLV0QSbts2dKy7MqVKzK4HdaEG3NgeODAAQKzZt5C+4qTmtAVFRtryin3dPr0GWGwv0MErNulmsgn7GAyZswg01j3jh0/63qo2VSuHK7zOPhfv35d5wOVgCodpEr4wX5n1KgxblgGam5P48IOqXDh53T1kiVLpSQDdklDhgzS5W++2Zz6939P5wOZqFSpoiUKeETEAMmcvfhiScGsjaZkyVwO6MqUeYmZjUC+CB6bEWAEGAFGgBFgBCQCXjEbY8d+pA/jOJw+/3xhGj16pBxg7dp11Lp1e+rRo6ssRyFUNLJkyexoT3H37j2hUlVY9k3If3DoB6Myb958eWhV+8GamjRpJA/hSI8fP0bvHXlFY8dOoEmTpqis5YnDZe/ePdzsQ9Bo2bLl4uY5gpSqVoUK5ejDDwfL/rdu3ZLzli79kmU8rLVTp7d1H0ullxlIbd5//13JwJhdwKR98cVcGj58FN24cUNWvfdef8qV60mZ3r//ANWqVUd3qVixvGj7oc4fOXLUjVnRlQFKwJD500+n08aNm2jkyNGO9jwBmtoybM2a1XUe7/OddyJkBHR8U3AmkDu3y6D8lVdqBI3ZAHOraMuWrdoRAxh8REEHswbKly+fasZPRoARYAQYAUaAEWAEAoaAV3E2jh07pheQLVs2ofv9tM5DFxyUNWsWXfbbb/t1+n5IQFoDWxJFsalvqXZOT0gk+vbt5chooD2kRLVrv+rUlZInT052RgMNUdaqVQvHPt4UwrsSGBpISuwEg3wwV7Vq1dRVy5ev0OkCBULEu3VJrFBoev+C9GnXrt26bSATsJMBM2YSpGkLFnwlGcI8eVzfoVkf6LSpPrV2bZRkNCDRAiOkGA2sAbg//vjjgV6OHH/ChEnUoEFj+QODquiRRx4RDGQulaVTp07pNCcYAUaAEWAEGAFGgBEIFAJeMRt79/6q54eq1NNP59b57Nmzy8NUpkyZZRk8TeE2HPrgvXu/I3/Tp/9Xt0+sCWX7gfXhwKioc+eueh/w1hMbFSnyvEVfvn37TlS37uuW2/+yZct4HAYHaqxlxw6rZyzo2ceVoBqmXJri/XzwwVCxp35kujSF6o8ieCsySTEYGKN8+bK6ClIaSEZwmE6fPn2sP6hxKfKmPdqAAQOdOHGCwsIqE9TfLl26rIaRz2rVqginA98I1aWBFsbI0igAGTDeisCQN23amJYsWeTIMMJgPBh09uxZyQCCCbx06ZKecsCACMqcOZPOg8FmYgQYAUaAEWAEGAFGINAIeKVGBRsBqIKAXMxGtGQDB9CSJV/QuuAHDhyUN9CwZ8APBLWr1q1bynRi/Qf2H4pgr4AbfxykV65cpYolBkq9SBfaEvbbdxz0cbDr0qWbdiv6999/23pFZ6GCpgx3odqlcIfkCAdv+/jRPT2nvvrqa21If/nyZWmsjLEQN6JDh3ayY0hIfj3Ab0Iydfjw75Q3r+s9V6xYTqibfU3PPluIMmTIoNspr2KRkdOpePGiujymRHh4VXnDHhk5LaZmum7Rom8ks4eCv/46L9T3xgmGYxo1bNiAWrR4Q9sJwRYBnpbAiIwY8ZHuH8gE3NwqQiyZmChTpui2MbULRB08SzVoUE8PvW7devr++2jpla7gBCPACDACjAAjwAgwAn5GwCvJBgybFT3xxBMWFRGUly4dqqoTTH9eLyCOCRVfAN1xYPXV4FxNaxpvo6xx44Y0e/ZM+umnVdLWIWfOnPLQrNqbT3i8WrXqB10EyYEiMD9xVcW5ePGiZFJwQJ8y5WPxjn6mPXt2aEZDzWE+TekG1Lgefvhhgn2JohMnTmppzaOPPqKKY31CnQc/b8lpbBikR0bOlKpCp06d9nYov7e7du2q45hgioYOHW6pu3LFua2lUQAy3bu/bXFh+/vvR4R9Ve84f98BWCIPyQgwAowAI8AIMAJJGAGvmI1ff92nDyfFihXVnqlQDoLuvCKTMVFl98NT3eJjrVDZiSsdPXpMHjTBOJgECRA8F02dOoneequTWaXT8NSlDMdRCJUYf1Dlyi+LAHNfSlsReKJClOzYCJ6VFCEgYokSxQSzUV4VCUP373X63LlzhMN0bD8wcTBCh3Qltraq/vz5aImTmhB7gFrQypXLyK6eFFcmUY3ty9OJ0fnmm++EXU4twYhZbVlOnw4+UwSJhilxwbf5n/+0oJgka77sn9syAowAI8AIMAKMACMQGwJeqVFdvXqVoJOeO3duQmRiEA5a8ESFvArYh3K4Jb3fCKpRyi4Baz958mS8thAZOUtgE0U1alQTrnWLiV8RET8ktR4TKi0TJnys8yqRLl1ayp79CW1LYeKKNvfu3VVNfXp26dJJ22zg8D5//kLavXuPkAzUtTAQ5qBweQspjXLtWrv2azqNdkqFCul27ZyZJ9Q5Eb6dEiVKOVXFWAY1rjZtWopgeVW12p7qAEZm2rTpNGvWbFUU8CdcB5sE+x7l1rlcuWjbFnhgO3fuL7OpTNevX5fCwyvJ9L//3pPerEw7C7cOPhTAG5qpunjo0GF6441WYh3nfBiFmzICjAAjwAgwAowAIxA/BLxiNjDFnj2/SGZDTbd3715ZpvJ44jYf+v73C0EtCZIa3JJD8qAoPvrskCIotTK4hW3Zso2UBI0ZM1IfLGH3glglV65cUVPKJ1SlYGQMuwQEN6xbt7au/+eff8jpll83iCHx1FMuF6xosnTpMhGjYrSUbvTs2S2GXkRQpVLMBmKRKAIjEmymEt6dFi6cp5agnzdv3hSB/j6XjMbly1Y8daMAJTZu3Ex16rymR1dSFjCMUJ9TtHXrNoJhvp2qVHmZKlasIIshkUmWbIC9SZzy77zTW9qzqM6QQLZo0YagTsfECDACjAAjwAgwAoxAMBHwmtnA4dJ0jwoPVb/8YpViIEoyDsWgFi2aa2kBAtcpgiGvaRwcETGQjh8/LoPIjRgxTBz6H5JNixcvprpI41bEVgAhzsfEiZNl2pwDtiQmzZgxVRzwXKpMmMMuFZg1K9JsrtPQaVeeemAobq4JQdwUgSkoWdKVN9cEb1SoU4Q+UFspWjTagBouY+2MhmqP+AyNGjUUxuCPWtSdYHiPwH72NXmDE6RScGELghE1pDgw9E6bNo2a1vEJ6QXc+JqMGBqaKlSOHQNQaF8DGFvEs8C3kFC39VA169Wrm/Dy5Pq++/fvK959I+mVy/S8BfsSJwoJcb0T1EHyYDopcGrvTRnmh+G8SZA+QuXMpBs3rovvIFyrR5p1nGYEGAFGgBFgBBgBRsBfCHjNbNhtMSDZgOtUHJCUhyLzthvqQ2XKuCJj2xdrlsPLEpgNjFGunLNLWNSpPuahM6Y5QkNf1NNiDm/iCsC1LYxnVbTumNYEN6L4gcw1LVy4SKirNNMuW+GW1U5Qs/JEmNuJCZg8earsEtOaPOG0evUPmtlIkSJ5rJHZ1dpgM7JlyzYysUTdd99ZD66qfTCekABAOjN27ASh2vdHMKb0OMft27dlMMThw4dqtS6oGpq0Zs1a4RxgjVkk05BsQQKiaPPmLSoZr6cZE8UcCCp6JiGvPK6Z5ZxmBBgBRoARYAQYAUbAnwh4zWxAFQMHPRxQQCr2Bp4q9oLJkMBjkDd048YN2QzqMDhomwd3p/7Xr7vao86XOSBxgSpLsmTJLMOCWYLUYNeuPTKGwzURCVpRXNYEl7H16jWiQYPep+eeK2SRTkCigTgRs2d/qaZwew4dOoI6dmwnb8dRCR3+ESM+0i5447Km8eM/plSpUsngfcmSPSylR1jn3LnzRGTrvnINuOl2olWrVluYDfQ7cOCAU9OAll24cFEYuS+gzz6bbQnAGNBJxeA9enSV9kmYZ7ewc4E0xSQYhENyNWjQAAvzgO8aLoeHDRvpKD0wXQ1jPH8xG3Ay4A3hOzIJ3sagfqWcB4SGljKrOc0IMAKMACPACDACjECcEHgob0jBf516Hj6wj/LnL+RUxWVeIgDGBtHIYRwOyQpcotoJRsKI7q0oJORZeeCDjQIYH7iY9RfhQJkuXTrJdHljiIzb73HjRmupEtYxcuRoYR8xw19LSnTjPPZYOtq6daPjuqKiNkgbHMdKUZglSxYKCcknjcGhFuVkp6H6NmnSiGArBAITHxpaLkFtKuKzb7UnfjICjAAjwAgwAowAI2BHwGvJhr0j52NHAIdN2ID4SpDCQNrib4Kdg7d2ARMnjqPKlcO1JAtrgSRp7tyv/L2sRDXevXuOvLdco93ux75wqJ15667YlGwcPHgwQRkN7CM++7bjwHlGgBFgBBgBRoARYAQUAsxsKCT4aUEAkhWlMocK3L737dtfxMgIrscny6KCkIHhflhYZcfAgxcveo787uvSIPFStGmTf+w11HhxeQZr33FZG/dhBBgBRoARYAQYgfsXAWY2Evjd7d69V9hwfCFX4a0NSjCWDA9PkLDAhubIkSPSvezOnbuCMXWCz+FP1TVPmxk06ENt43H48GFPzYJaHox9B3VDPBkjwAgwAowAI8AIJDgCbLOR4K+AF8AIMAKMACPACDACjAAjwAgkTQSiI9klzf3xrhgBRoARYAQYAUaAEWAEGAFGIIEQYGYjgYDnaRkBRoARYAQYAUaAEWAEGIGkjgAzG0n9DfP+GAFGgBFgBBgBRoARYAQYgQRCgA3EEwh4f06L+A4FCuSnjBkz0cMPJ5PxHRAg8fvvV9CtW7f8ORWPFSAEEEyvefNmOugkAgJevHgxQLPxsIwAI8AIMAKMACPACAQHAa+Zjd69e1CePHncVnXhwnnav/8gffHFXLp9+7ZbPRcEFoHu3d+m1q1bCibD/VVu2LBJBJg7F9gF8Oh+QSBz5syEvzFFe/bspQ0bnIMLqjb8ZAQYAUaAEWAEGAFGILEj4H5C9bDi8PBKgtnI7aGWqE6d16h7997STarHRlzhVwSee+5Zat++rccx//33nsc6rmAEGAFGgBFgBBgBRoARYAQCjYDXzEZsC3n22UK0cOFX9PLL1eivv87H1pzr/YBAoUIF9SgIujdo0Ae0a9ceGYDv2rXr/B40OpxgBBgBRoARYAQYAUaAEUgIBOLEbCxZspT++9+ZVKrUi/TKKzVIHXpTpUpFr7/egD75ZBrVrFld65+rja1e/YMIEpeMGjasL1WyEDBu//4DNGNGpGoin888U4BKlCguJSlQzfr996O0ePE3Msic2bB8+bLCTiGjLNqyZRvdu3eXSpd+idKkSUPXrl2jjRs3kVOgsscee4wqVw6nJ5/MSVjz6dNnaPv2HWQPWlew4DOEtZh08uRJ2rx5K2HusmXLUKZMmQjRlz//fA4dPHhIN02ZMgVVrFiB8uXLJ9aYgU6dOk3r12+gvXt/0W3ikkiZMiUVLVpEdg0NLaWHgLoUcEqbNq0sw76OHj2q65GAbUeZMi9R3rx5xb5T0p9//klbt253W1N89m2Z0EMmWbJkQfk+gH/69I/LVaxbF2VhvqpUqUypU6eSdStXrqarV6/q1ebIkYOqVMH38STBluLYsT/ol19+jVGtydtvFpNgTKytQIEQmV6/fj0dP35Sz88JRoARYAQYAUaAEWAEkgoCcWI2cDCCTjl+3323hH76aZWMNA1QQkLyU7Zs2WjUqOFuGL377vv09ttvUebMmXTd0aPHNLOBQ9j77/en+vXr0UMPPaTbING8eVPRt7s4UB/R5YMHD6Qnnsgm82vWrKVy5crqdaDwxo0b1KdPP2korTrVrVtbzPEu4dBuEiQDsDsZPnyU7Ie6N99sLtXDzHZgFn76aS117tzBLKZt27ZrZiM09EUaOnQI5ciR3dKma9cuNH78RMmMwYA7LlSxYnkaN260W1cwEjNnzrCUlylTUdtsNG3amHr16i6ZK7MR1vHxx1No0qQp0rAcdXHdtzluTOlgfR9Dh34gGT2spVevvoJh/VYva/z40fpbOXeuDUVFbZB12DtsJ5xsYJYtW079+kVIRlYN5Os3mzVrVpo6dRKBoVPUrl1rN0ZX1fGTEWAEGAFGgBFgBBiB+xmBeLu+hVTg/PlotakMGdILPP51xKRDh7YWRsPe6K23OlKDBvXdGA20wy3wokVf01NP5bJ3k/kKFcrrw6NqAIZiyJDB9Nhj6WQRbp8//HCwG6OBSjA3TZo0olq1aqruUh1JZ/6XgCSlQ4d29mKdh6HvhAlj3RgNNEiW7P+oW7cuNHDge7p9MBKQ9oDBgrTDTpAuAfePPhqhq8B42Sm2fdvbx5x3Hx/tA/l9xLweV23+/Pmob99ejowGWlSvXpVq137VMpSv32zPnt0sjIYaTEmrVJ6fjAAjwAgwAowAI8AIJAUE4s1s5MuXVzAQmTUWf/55XKouvfpqXapb93XLLTDUU0A3b96UqilXrlzV6itgDFq3bqXHgQThvfcGSknAzZsu960pUqQg3NB7okOHDkvVqb///ls3SZs2jVCJqSzzJkNy9+5d+uCDoeIWux+dPHlKtw8Lq6jTI0d+JPdgqnlBkgKmAXT27Fmx1xNCInBP7xPuS6GmBcIcU6ZMpf7935eSD1ko/qlXrw5lyJBBZX16QtXro4/Gyh9UvxRBbUyV4wkJjXKd2qVLJ9VMqqItWLBIqn2Z+65Roxrlzp1btovLvvUEXiSg2pYQ30dsSytS5HkLw9q+fSf5/k31OqjOKfL1m4UUxGRm8XewaNE3hPdx/fp1NSw/GQFGgBFgBBgBRoARSDIIxEmNCocyHJhLlSopdc9NNH799VeZ/e23/fJ56dJloRufWjcZN24CTZ8eqeM/QH8fBPUrdYhHfuzYCbRjx89IUvHixYV9RGmZLlgw2ihaFvzvnz/++JNq1HDdOuPQvGLFEl2dK5dLGoLYBVB3Al2+fFmqPSVPnlzYhjylpRVYh6Lz5y8Iqc0FKVVRZXgeOHBAqGf1l3r8yGMPYCxApnoM1MymTnWpNh06dIjmzp0t20BFB0zali0XZN6Xf2D7AZsYEFSgYNsCwv5VuSz43z+Q2EAqpGjhwsUUETFAZpcsWfb/7Z0JnE7V/8cPssaEJgphIq2WiRDZRmQpZQvZl5RC5NciqYisRYisYynSWNKi7PsyU1n7p2QJYxkqofhJ/P7nc57OmXuf584zz/OYeeaZx+f7ej1z7z333HvPeZ87r9f53vNdpOnYHH1K+d7AzyOQfpub+LgT7PfDl2a55ySBcvrFF0tF7959lR8Q7mFVZP19Z4sVK2pTZqZMmSYmTJikmgZF2Rr61pf2sg4JkAAJkAAJkAAJhDqBgJQN+CTg5y4HD/4iFixY7F5sjmHzDv8Aq+hJ+s03F7YWS4XEXk+fhLO1kyCBnRZMmOF4rifZBQu6nITxpf/ixSIqeRom6YULF1IOuvo6X7YwMerb90Xjn4FrdB+wb+0HTGO2bYtHsYek1A+PildZEBGRz6bsrVix0txx+/YdSrHQbYmMdDnbmwqWndT6baka8G56vh++NArKoVXatGkl8INSBwfx8eMnCigFWqxjjbLU3tkCBWBimCzLlq0wB8uXr6CyYWhwhwRIgARIgARIIFwIXLUZlQaBiWuPHj3NioUut243btxkPUzTfZg0WSUpyX6Mc/XqPSSVoY+V3T0iUcGsxV/Bfa1Rp/y9PqPrY2VECybRSUlJ+tDrNhj9Ts/3w2vn/j2JYAXDho0Q//zzj606/FrKlr1XOXb36pVskmarFMCBNnPDpadPJ5v+BXArXkICJEACJEACJEACIUkgoJUNmBGtWbNOOVBj8orJN/wH8PXbm5w4kTzRda936dIlW1H37s9K344LtjIcwMTHSawhajE5vOOOZHMo+FRA4LuAcxDcZ+HCxWLXrt3SKb2ZgMmML+KtD7je2o/Vq9eKmTNnOd52585djuVpXXjpkn3iHB1dwShLCBEMp2gt1rbrMr1Nrd+63tVsvT3DvW3+vh9RUSVN08qVK2veA1P4705s7Gyxfv1GaZLXQERHR8tfedvKUMuWzeUKx/uqtr9tsq6A4QYwR1y1ao26V/nyZdWWf0iABEiABEiABEggnAgEpGysWbNeOSP7C8KbMuKeDyN//huk8+w69YjGjRupvBY4+OGHPWaybH0+Vi0mTJionL0bNHhYmkglm2VpR+gSJUqYS5Yu/UqG531XrW4gQpCv4q0PuAfycNxzz93qdqVK3Sb9MpD/44rKfwGbfL2aAh+LCxeSHdN9fb6/9eB4DL8ZHZGrSZNHxOeffyGf/V8V1jd79uzmlvv3HzD77jup9du9fiDH3p4RyPtx4QKcrl1md3XrxojY2FnKmR/hbZ0E71C1alXVKZgEdunylEBQgjFjRglcD4HpFHKZnDt3ziOHS2rvrH4P1Y3kn7Ztn5RJGHepNrVr11YXc0sCJEACJEACJEACYUMgIGXDl94jPCzC4Oo8GLima9fOZgVhwYJFyq9C3+vAgYMquhPyRUCQI+HRR4/DKxIAABj1SURBVB+Rk7qzKpoUnKoheqsOLH8wmV69erly4HWP9AT/DcihQ4eMHwdC7NasWUNFhULEKieB0oBQp/gSrgVOwQMGvKIOT548JaZOtee22LIlXplroQLC9KJN8fEJ6h5QPrRMmjRF76b7FjlIoGRAKle+X2zYsFY6yJ8RxYoVM89GZLA9e35Ux4H029zIx51gvB+JiUdNH+G/s3XrRrX6ltI7hJUGa7SzSpUqqvepQoUKplcwO4OiAfH3nUXiRayoaR8ZBD3YtMmlULvnlTEP5A4JkAAJkAAJkAAJZGIC6aZsdOnSyXxN13yqV68mM1i7okrB0VYrATgPkxSEbB0+fKjKeYEITzVqVNeXqi3Cu06bNsNWZj2AiZS7ooGoR2vXuiZ0yGCuncZz5cqZYs4OfU84kXfs2F4fqi0ia+kyTB7dlY24uIVqwqoViyJFbvFIDLhkyecCTuzBkrFjx6tIU4iABYHTOH5Wga+CnkQH0m/rvXzZD8b7gbCy1izrOvIZVprwrrjL4sWfyrFtJxChDNKgQX33KnJ1ZLYp8/edxcqNKxSyS1nFjahkGJzcIQESIAESIAESCEMCnjOuFDqJib4WX3ICIHu3N3E6j7Csffv+xxbxR99j8+Yton37zubruy7XW0zyt25N0IfKdAlZobt1e8b4kowb9770oZitck3AjwOTPyg9Q4cON9e5TG9ch05tNBXlzvnznn1E+NTWrduqbNU6P4i+BmFTEfr3lVcG6KKr2lrHwVtbExMTZajiJ0Rc3ALDAn2HHDp0WDz7bC/pOL/ItMXbvVDJqd/mYh93UnuG03l/3w8oG1BOoVxo+fXX38TgwUPFkSOJusj0B2ZkzZu3lhHEdqh3xFSQO1jRGDToLTFjxkxrsfC3TbNnfyhGjnxHKnZ/mvvAZAuZya2O6daxNRW5QwIkQAIkQAIkQAKZjECWUmXucvTq3r93j3QedvkeZESfihYtIiIjI9WkDxPDP/9Mnpzp9qxbt8qYacFpF6FJYVMfEXGDnEweVn4Juq51CzOaiIgIFbL2zJkz1lNpuo+kb8WL3yodjPPIyepJAWd668Q3TR/m483w1R5tQkI55BqBP0dmFF/eD90vjENUVEn1LllD1+rzTlusgsAMDitZx48fF1BSUhN/2oR7YdULDvxYIaOQAAmQAAmQAAmQQDgSCFllwxfYTsqGL9exDgmQAAmQAAmQAAmQAAmQQPoT8NmMKv2bwieQAAmQAAmQAAmQAAmQAAmEE4F0cxAPBqS5c+dJs6mb1aPi478JxiP5DBIgARIgARIgARIgARIgAR8JZGplY/LkaT52k9VIgARIgARIgARIgARIgASCTYBmVMEmzueRAAmQAAmQAAmQAAmQwDVCgMrGNTLQ7CYJkAAJkAAJkAAJkAAJBJtApjajCjYsPo8E0oJA7ty5xPz5c0WOHDk8brd06ddi3LgJHuXhUPD4403EM8909+gKcr706NFTJro85HGOBSRAAiRAAiRAApmbQEgpG+3aPanyGrgj3bRps/j++/9zLxZ33XWnqFmzhkc5ckggeZpOXOdRgQUkkIEEoGTceecdji2IiirhWB4OhchDctttUY5dKVCgAJUNRzIsJAESIAESIIHMTSCklI2BA18VWbJk8SCaN+/1jspG3bp1RO/ePT3qo2Du3I9lwrRLtnM33XSTzAI9UD7Du/XYO++MccxibrtZGh4MHvyGQNu8CbJOHzx40FalYcOHTTSu5ctXiKNHj9nOZ8RBlSr3i06dOppH//DDHpls8X1z7L6DJIwNGzZQxSdPnhJffrnUvUrYHyPTvE5aieSPThIZeaN47rkeokKF8uLGG29UivSOHTtl5veFYsOGTU6XpHvZPffcLbp37ybuuKOMTFBYRCbRPK8ys2N1Zt68+fL4gq0NSIyokyNmy5ZVQMGgkAAJkAAJkAAJhDeBkFI20ht14cKFxEMP1U31MZjA+ZppOtWb+VChQYP6In/+/F5rYvLmrmz06dNbZcbGhX/88YdYvHiJ13sE4+RjjzURUAK1PPBAFTF58lSVvVuXWbcVK1YU/fu/pIqOHj16TSobrVo9Kfbs+dGKxbZ/++2lxZQpkwRWBqxyyy03i4cfrieGDh0u5sz5yHoq3fdbtmwhhgx50/ZxIFeunEqBKFeurPw/ixHduj0jzp8/b9oyf36cNB+LU8fIZL979zZzjjskQAIkQAIkQALhScD7J/4g97lFi9aiQ4fO6nfo0OFUnz537nxTf+zY8anWZ4X0JYBVqdq1a9kekidPHoHVjswgvXo9K956601RqFChkGru8OFDPRQN3cCsWbMKrAhCIQmWFClyi3j9dedVSN2GSpUqio4d2+tDbkmABEiABEiABK5RAn6vbOALPL5awvY6MjJS/Pbbb9LE6QcBMx53syUwhTMsJqClS5eW5h8FxfHjJ0RKPhi7d39vhiEpKUmUKFHcHDvt/P7772Lr1gR1KhD/jNGj3xU//7zf49bx8a57Wk9Uq/aAsrO/9dZi4uzZs3KV4Rfx9dfLBfxDtGTLlk00btxQYGuVVatWi6xZs4lWrVrIlYgouZ9V/PTTXjF9eqyq9vTTz4mIiAj1lXjKlInm0o8//kSsWrVGHSckuJIWFi1aVBQvfqsqK1iwoKmLr8knTiSZY7DUpjm60JexgMIAs6acOXNIk5dfRVLSKfHoo43lvc5Jk51Fyqm5adPHRfbs2eVX6k9sz0QbYO7jLjExdWymPnhG5cqVFJMKFcqZ6jCreeCBquYYqzXevvibimm0U6rUbaJRo4YCqzPw+Zk6dZo4c+ZsGt09sNtg0l627L3mYpiZYSWjTp3acjvYlHfq1EEMGPC6OU7PnSpVKsv3I6d5xMsvvyqWLVshypS5XUycON68A1jVmjRpsqnHHRIgARIgARIggWuPgF/KBkyQhg4d5Ghrjcl3t25PK5ttjbFq1cpi2DDPr7Iw/0HEHZjXXLlyRVcP+nbdug1q0u/twfiKO3LkMDk59vw6/9RTXUWfPv2kwrJP3QLZzEePHuFxu9dee0M8/3wv6ZcRac4h8o5WNrZv36HKMQm3yrZtO8S6deutReKFF55Xk39boTxo27aN+unyV18dqJQDfezrWFx//fVi7NjR6jLY3EOJw+oEpHr1asq3BJNySNeunSWXakbhiompLUs9BcrmoEFDzAkokXPmzDTHegfPmTVruj5UimmtWqmbvZkL0mgH5kDdu3cVrVs/oRSOWbM+NH1Mo0f4fBsor1r++usvaXI2ULUlLm6hwPtXsmQJdfqRRxoFTdm47rrsUgl1KbbffbfNmO/Bh2Tr1niBtkCcom2pE/xDAiRAAiRAAiRwzRDI6mtPYVoyevRwR0UD94iKKilGjUqeaMPhefz4sY7mH3AO7du3t5yABudLLNoXiGDyP2rUcEdFA/eD6crChZ8IOMq65H//bu2bHj262xQN+9n0Pwp0LHLnzm0UDbSyatUqQisaOMakvFKl+7CrBCsYWqzZ3eFrACfiUBf3VYyIiHyiX7++YuXKr5Ti4b5iFYz+WP001q/fqBQNrG7NnDnNKBpoB8YqNb+ftGpvXNwCUaNGjPr16fMfdVuwgUJevfoD5jFQRCgkQAIkQAIkQALXNgGfVzY6dGhnm3h+8skCgclEy5bN5YSzoqJ4330VBMyMjhxJlL4U7cQNN9ygyi9fviy/EE+X5UdF06ZNTP3mzZuKMWPGCZhDZYTAphxttQpWKVauXKWKYNJz//2VzGmc27hxs4Bjbv36DylzKEy4u3TpJCelL6loUE2aNBPXXXed/HIfa8L4YnIIgclVUtJJAfMndxMn85BUdmDKtHfvz6oWohPh+RB8Ud60aYvaxx9tdoV9f8bi77//xiVG8AW9adPHVJ9QuGXLVqlAJptylShRQjHBCpBVoYAZUsuWzVRfcR3MfmA6BoG516hR7yp+eGdwTss774zVu+LUqVNmH5PpXLlymeOUdrBSdubMGXXa12hHcGK+ePGieOONwWL16rVyxaCLTcGEoo2IYRhn+AYtXfpVSo9P83Kslmk5dOiQWr168cUXbP+L+jzeS5ieBVOgYIwYMVTkyxchTQHzmUcfPnxEfPjhXHPMHRIgARIgARIggWuTgM/KRunSpQwhmFDANAiCSe2yZV+aySgmR5jAIweGFvgPTJniMo/Zt2+ftPV3Rc7BpBz3TUjIGGWjRYtmuolmGx//jVE2rLkQYE7UufNT4uTJk6ouzH2gjECSVzaE+PHHn1QZvpLDJEnLe++NF9OmxapJLcoC/UqOyT5+kGbNHjfRqGAz/9FH81S5+x9/xgKharVgHOEHgDGKjq6gigcPHiojINWX5mO9dDW1rVOnljmGUgZFASwRnhcSE1NbfPDBFOwqpQvKJ6Rx40ZG2Th9+rQyrVMn3P7Exk4TUEx8kbp1H5Z+LcVFbOxUX6qLTz/9TLz0Un9VF2Zr+JUvX06ZKcE/CT42EJgswcRszZo1Mqzrf1VZev9BmFstTgnx9DlsnfxlrOfTYx/P1Mq09f4rVqy0+fNYz3GfBEiABEiABEjg2iHgs7JRrFhy2E3tlA1MyO1w773RHsSQP0ELcgNs2xavD21bOI2HquBrvZZdu3YbRQNly5evNMqGdUKo61u3X321TLz//gfWIoHVnmBJoGNx7tw51URrvoRz5/5U+RTc216nTrIJFa7DZN3qPA/ncYz1b78FpljmyJHd/ZEpHsN5HT9fxeneO3fuEj17Pq9WhV57zaWI+Hq/tKz3119/OprgIV8FHNj793/ZPA5jE2zBKhVWrPLlyydzbST/v8CfB0pI7959g90kPo8ESIAESIAESCCECPisbCCakpbExKN6N1NvZ86cLeCobRU4ujsJomhZ5cQJ+7H1nPv+xo2b3IvC6hiO3XBA13LffdEiLs6+yoLVATiKL1y4WFfza4uVEl8m0zCjgnKEiGG+1Ecj3BUgrDo1atRArWxYV7f8anAaVcZ7V7JkSdvdPvvsCxmi922PbNz+vJO2G17FwbZt22XAgqbqDlFRUXLFs7/05aiujpEDBCsfOpHfVTyGl5IACZAACZAACWRSAj4rG9bkXBUr2lcyatZ80JhRwcQHJiaXLl0ySGAHP3PmLHNs3cEX5IwSTHy1H4FTG/755x9THB1dXoWmhTkVJDo6mYG1r+YCy05GTAItj/drLLJl8/mVMI9AlCpfIg/FxNQOWNlAeGB/BJP0ihWr+HOJCtPcokVz6ZvR0dE0aPPmLTJIwpigmVCh8dZwxjju2bOPCjON/Ro1HsRGyeXLV6Tp2q/6UG0R6vjdd12RxVCwYcNGMXfux7Y6gRwgzO69996jLkVYZ6zcQZB0En4aWtlAgAX4cyFENIUESIAESIAESODaJODzzBIOnzCFgcB+H2FcMbl58MFq0hdhsqEHvwbk0Th27JjxZUAEo4SEb1WYW5hbvPRSPzM5xX0vXDhurg+lnWPHkttVuHBhUatWTbF27Trl+I6vtlr27z+gdx23WkFxPHkVhVZTLJiqpeSz4c9YnD3rMp3yp1kxMbVNdZjVIeeKFuRkuPvuu9ShVkqsTuhXriSbkyGgAPwi3Feb9L3SeztkyGDHsMLwOYKSoX1l0rsd1vtv2RKvHPR1GZzAITBZatOmlS4W33zzrYdpXqlSpWzZ3NNK6UXeD+RegeD/Hx8M8L8CB/769R8ybcJOIO+T7QY8IAESIAESIAESyNQEfFY2MNHS8fOR0GvJkkXi8OHD5gsnKODrKnwbIJgk1avnmnggr8Lq1culw3CCUlis4VMnTXI5DcOef+TI4dIZN4u6HqY4WhDxSn9JRQSsCRMmqVOdO3cQNWvWUPu33JJsL46C6dOnyPa4ViYGDhwkEhMTVT1//qxfv1EpSNpBGAn3Dhw4KCd6RUwUKNwvISHB3LZHj6dlBKYCKmKVLoT9OhQVCKJJua+mrFq17F97d1ff9XUjR74t85S8pQ7bt+8svv32O31KbfH1Hs7bkMcee1RA4UDmdazIwMzm6FGXuZt/Y+GfsoGv17pvaAciNSHSlBY44b/9tqsPMLdCNvENG5LNyqzmaeD82WeL5Tu0SzrS/60ibGlHcn2/9NwiJLNVMNZjxrynEtZZy4O5jyR+L77YV+U3wXMHDHhFRqRqrUJQ62hvKI+N9Vw5tEYHQx2nZJUo91eWyWAEWtlAZLW1a1eqdy1SJvm0JvvDil9Grlz62y/WJwESIAESIAESSHsCPisbixZ9qpxl9QQGttj4WWXGjFhpJ++arCJkKhLNacUCX2IRQtUqS5Z8Lr9i/6KKMGnR5hfWOtjHOXwVh+iJP/ZhyqTLcWwVqw9B4cKFAlI20DaE5kVOEP1cZE63CupMnTrDFHXp0kmufESYY+ygjbqd+/bt91A28uXLm2J0Kh21ChN1d0HEHyszKHX4QeCPopUNf8Yib9687o/xeoxxtb4H7l//rcEEcCPk4rAqG4jehahXCJkMQShfnUARZkDBVDZUA+QfKEATJkwUeOetq0f6fDC3mLCPGDFa/obJd0RHxSppawKiZ2HFzV30/yrKsbqG6GBpIXgeFHGYT2pxikj15ptDBBIRUkiABEiABEiABK5dAj4rG5h0tWnTXgwc+KoMfVrPFucfjrjIho2M4FqQt6B167bSYRT169tWApALYNasOTIUanJ9RC6Cc6+e1Ov7uG/Pn79giqx+JKbQYUdHU8IWky58jccWbUxN0KcdO3aohIWI6qSvxyQQyhK+4lujLuEZ7sqG9Rm6LdYy9Cm1hGxO182fH6e+JD/xRAvpY1DENiZyemke4c9YYDUIZk7wwdDP1JzxDqDf1jGw9hXn3BO5YUUJplU6OZ27sgZ23bv3UBnW4QtUsOCNZlIN1sEUrADt3Llb+TX48m6kVdv69eujFBzcb9eu3dK5fqHt1nAIx//M4MFv2iI+YXyQ72b48FHqvbRdJA+sygbCEZ8+fdq9SkDHYIMxQ/jj5s2beUTL2rt3r8pHsnLlatv9ESCgbt06qix79uy2czwgARIgARIgARIITwJZSpW5y3FGt3/vHpkhW2fGtnceX9vLlLldOdQmJZ2STqwnvH4BRkK24sVvlXkn8qikdvhyDMUiswmSu+HLOyJzHTlyxGufM6JvehXE29f4UB8LKIJQOPF+BFvZCNaYQUH75pstjo9D0sguXZ5yPIdCvINlypRW/lL75CqZt7HesmWDCjeM6+bM+UiZ1mE/rQUZ6mHOB+UHZnwpKTWIVIUEk07SqlVbsX37DqdTLCMBEiABEiABEsjEBHxe2bD2EROcPXt+tBZ53cckxN1PwesFIXpSJ/QL0eZ5nXjqNof6WEDB8DaB1v3IzNsrVxz1e9Ulq8O8Ux/xDvryHsIHyprDJq1MqJzahLDE+KUm8OlKScJ9zFPqN8tJgARIgARIINwJBKRshDsU9o8E0pPAOenXVKdOPcfEg6dP/5Emj9a+O7gZFLiEhLTx17iaxo0bN0HMm+ccejejIpBdTX94LQmQAAmQAAmQQOoEqGykzog1SCDNCcCPJT0FvicIQw2BLw18PjJa4CxOh/GMHgU+nwRIgARIgASCS4DKRnB582kkEBQCMEtCvhsKCZAACZAACZAACWQkAXtigYxsCZ9NAiRAAiRAAiRAAiRAAiQQVgSobITVcLIzJEACJEACJEACJEACJBA6BKhshM5YsCUkQAIkQAIkQAIkQAIkEFYEqGyE1XCyMyRAAiRAAiRAAiRAAiQQOgSobITOWLAlJEACJEACJEACJEACJBBWBKhshNVwsjMkQAIkQAIkQAIkQAIkEDoEqGyEzliwJSRAAiRAAiRAAiRAAiQQVgSobITVcLIzJEACJEACJEACJEACJBA6BKhshM5YsCUkQAIkQAIkQAIkQAIkEFYEqGyE1XCyMyRAAiRAAiRAAiRAAiQQOgSobITOWLAlJEACJEACJEACJEACJBBWBKhshNVwsjMkQAIkQAIkQAIkQAIkEDoEqGyEzliwJSRAAiRAAiRAAiRAAiQQVgSobITVcLIzJEACJEACJEACJEACJBA6BKhshM5YsCUkQAIkQAIkQAIkQAIkEFYEqGyE1XCyMyRAAiRAAiRAAiRAAiQQOgSobITOWLAlJEACJEACJEACJEACJBBWBKhshNVwsjMkQAIkQAIkQAIkQAIkEDoEqGyEzliwJSRAAiRAAiRAAiRAAiQQVgSobITVcLIzJEACJEACJEACJEACJBA6BKhshM5YsCUkQAIkQAIkQAIkQAIkEFYEqGyE1XCyMyRAAiRAAiRAAiRAAiQQOgSobITOWLAlJEACJEACJEACJEACJBBWBKhshNVwsjMkQAIkQAIkQAIkQAIkEDoEqGyEzliwJSRAAiRAAiRAAiRAAiQQVgSobITVcLIzJEACJEACJEACJEACJBA6BK4LnaawJSRAAiRAAiRAAiSQfgRy5swp8uePEHny5BbZsuF7a5b0exjvTAIpEvifuHz5ijh//oL444+z4uLFiynWDIcT/w8TaUhmKYjzgwAAAABJRU5ErkJggg==;" vertex="1" parent="1">
          <mxGeometry x="978" y="26.680000000000007" width="374" height="220.64" as="geometry" />
        </mxCell>
        <mxCell id="C-j3dDMoZOkLHx2g_xAV-49" value="struct ViewModel { &lt;br&gt;&lt;div style=&quot;&quot;&gt;&lt;span style=&quot;background-color: initial;&quot;&gt;&lt;span style=&quot;white-space: pre;&quot;&gt;	&lt;/span&gt;let footnote: String?,&lt;/span&gt;&lt;/div&gt;&lt;span style=&quot;white-space: pre;&quot;&gt;	&lt;/span&gt;let image: ImageSource&lt;br&gt;}" style="text;html=1;align=left;verticalAlign=middle;resizable=0;points=[];autosize=1;strokeColor=none;fillColor=none;fontFamily=Tahoma;fontColor=#FFFFFF;" vertex="1" parent="1">
          <mxGeometry x="47" y="124" width="167" height="60" as="geometry" />
        </mxCell>
        <mxCell id="C-j3dDMoZOkLHx2g_xAV-50" value="If a remote image is loading and then I add an instant image it may be replaced by the remote image.&lt;br&gt;&amp;nbsp;Cause Nuke is not cancelling the request for the UIImageView" style="text;html=1;align=center;verticalAlign=middle;resizable=0;points=[];autosize=1;strokeColor=none;fillColor=none;fontFamily=Tahoma;fontColor=#FF0000;" vertex="1" parent="1">
          <mxGeometry x="292.99999999999994" y="258" width="553" height="32" as="geometry" />
        </mxCell>
        <mxCell id="C-j3dDMoZOkLHx2g_xAV-51" value="&lt;font color=&quot;#ffffff&quot;&gt;&lt;i&gt;(Still loading image)&lt;/i&gt;&lt;/font&gt;" style="text;html=1;align=center;verticalAlign=middle;resizable=0;points=[];autosize=1;fontStyle=1;fontFamily=Verdana;" vertex="1" parent="1">
          <mxGeometry x="618.3" y="106" width="149" height="18" as="geometry" />
        </mxCell>
        <mxCell id="C-j3dDMoZOkLHx2g_xAV-52" value="enum ImageSource&amp;nbsp;{ &lt;br&gt;&lt;div style=&quot;&quot;&gt;&lt;/div&gt;case urlImage&lt;br&gt;case image&lt;br&gt;}" style="text;html=1;align=left;verticalAlign=middle;resizable=0;points=[];autosize=1;strokeColor=none;fillColor=none;fontFamily=Tahoma;fontColor=#FFFFFF;" vertex="1" parent="1">
          <mxGeometry x="42" y="204" width="123" height="60" as="geometry" />
        </mxCell>
      </root>
    </mxGraphModel>
  </diagram>
</mxfile>
